<svg width="288" height="83" viewBox="0 0 288 83" fill="none" xmlns="http://www.w3.org/2000/svg">
<path d="M287.983 68.0879H156.742V82.5133H287.983V68.0879Z" fill="white"/>
<path d="M210.053 72.4553H210.71L213.009 76.3895L213.665 77.5917C213.665 76.936 213.556 76.2803 213.556 75.7338V72.4553H214.212V78.5752H213.446L211.148 74.641L210.491 73.4389C210.491 74.0946 210.6 74.641 210.6 75.2967V78.5752H209.943V72.4553H210.053Z" fill="#37A351"/>
<path d="M215.651 78.1345C217.621 76.4953 218.497 75.1838 218.497 74.2003C218.497 73.4353 218.168 72.9982 217.293 72.9982C216.745 72.9982 216.307 73.326 215.979 73.7632L215.541 73.4353C215.979 72.8889 216.526 72.561 217.293 72.561C218.387 72.561 219.044 73.2167 219.044 74.3096C219.044 75.5117 218.059 76.8231 216.636 78.1345C216.964 78.1345 217.293 78.1345 217.621 78.1345H219.372V78.6809H215.651V78.1345Z" fill="#37A351"/>
<path d="M220.033 77.9215L220.362 77.4843C220.69 77.8122 221.128 78.14 221.894 78.14C222.66 78.14 223.208 77.5936 223.208 76.6101C223.208 75.7358 222.66 75.1894 221.894 75.1894C221.456 75.1894 221.237 75.2987 220.909 75.5172L220.58 75.2987L220.799 72.4573H223.755V73.0037H221.456L221.237 74.8615C221.566 74.7522 221.785 74.643 222.223 74.643C223.208 74.643 224.083 75.1894 224.083 76.6101C224.083 77.9215 223.098 78.6864 222.113 78.6864C221.018 78.6864 220.471 78.2493 220.033 77.9215Z" fill="#37A351"/>
<path d="M224.73 75.5186C224.73 73.4422 225.497 72.3494 226.591 72.3494C227.686 72.3494 228.452 73.3329 228.452 75.5186C228.452 77.595 227.686 78.6878 226.591 78.6878C225.497 78.6878 224.73 77.595 224.73 75.5186ZM227.795 75.5186C227.795 73.7701 227.357 72.8958 226.591 72.8958C225.825 72.8958 225.387 73.6608 225.387 75.5186C225.387 77.3764 225.825 78.1414 226.591 78.1414C227.357 78.1414 227.795 77.3764 227.795 75.5186Z" fill="#37A351"/>
<path d="M229.223 77.0452C229.223 76.171 229.77 75.6246 230.317 75.406C229.879 75.0781 229.442 74.641 229.442 73.9853C229.442 73.111 230.098 72.4553 231.084 72.4553C232.069 72.4553 232.725 73.111 232.725 74.0946C232.725 74.7503 232.287 75.2967 231.85 75.5153C232.397 75.8431 232.835 76.2803 232.835 77.1545C232.835 78.0288 232.069 78.6845 230.974 78.6845C230.098 78.6845 229.223 78.0288 229.223 77.0452ZM232.397 77.1545C232.397 76.2803 231.631 75.9524 230.755 75.6246C230.208 75.9524 229.879 76.4988 229.879 77.0452C229.879 77.7009 230.427 78.2474 231.193 78.2474C231.959 78.1381 232.397 77.7009 232.397 77.1545ZM232.287 74.0946C232.287 73.4389 231.85 73.0018 231.193 73.0018C230.646 73.0018 230.208 73.4389 230.208 73.9853C230.208 74.7503 230.865 75.0781 231.631 75.2967C232.069 74.9688 232.287 74.5317 232.287 74.0946Z" fill="#37A351"/>
<path d="M233.692 6.01375C233.692 9.40154 227.672 17.1607 227.672 17.1607C227.672 17.1607 221.652 9.40154 221.652 6.01375C221.652 2.62596 224.389 0.00316814 227.672 0.00316814C230.956 -0.106115 233.692 2.62596 233.692 6.01375Z" fill="#37A351"/>
<path d="M224.934 10.4936V3.17163H226.137L229.421 9.4008V3.17163H230.297V10.4936H229.093L225.809 4.26446V10.4936H224.934Z" fill="#E0E0E0"/>
<path d="M220.266 54.3147H216.326C215.231 54.3147 214.465 53.4404 214.465 52.4569V32.2394C214.465 31.1466 215.341 30.3816 216.326 30.3816H220.266C221.361 30.3816 222.127 31.2559 222.127 32.2394V52.4569C222.127 53.4404 221.251 54.3147 220.266 54.3147Z" fill="#E0E0E0"/>
<path d="M219.373 31.1428H217.075C216.637 31.1428 216.309 30.8149 216.309 30.3778V26.8807C216.309 26.4436 216.637 26.1157 217.075 26.1157H219.373C219.811 26.1157 220.139 26.4436 220.139 26.8807V30.3778C220.139 30.7056 219.811 31.1428 219.373 31.1428Z" fill="#E0E0E0"/>
<path d="M237.541 54.1994H233.601C232.506 54.1994 231.74 53.3252 231.74 52.3416V32.1242C231.74 31.0313 232.616 30.2664 233.601 30.2664H237.541C238.636 30.2664 239.402 31.1406 239.402 32.1242V52.3416C239.512 53.4345 238.636 54.1994 237.541 54.1994Z" fill="#E0E0E0"/>
<path d="M236.682 31.0349H234.384C233.946 31.0349 233.617 30.707 233.617 30.2699V26.7728C233.617 26.3357 233.946 26.0078 234.384 26.0078H236.682C237.12 26.0078 237.448 26.3357 237.448 26.7728V30.2699C237.558 30.707 237.12 31.0349 236.682 31.0349Z" fill="#E0E0E0"/>
<path d="M196.391 47.0973H160.051C159.723 47.0973 159.395 46.7695 159.395 46.4416V45.8952C159.395 45.5673 159.723 45.2395 160.051 45.2395H196.391C196.719 45.2395 197.047 45.5673 197.047 45.8952V46.4416C197.047 46.8787 196.719 47.0973 196.391 47.0973Z" fill="#E0E0E0"/>
<path d="M196.618 54.5339H164.875C164.656 54.5339 164.438 54.3154 164.438 54.0968C164.438 53.8782 164.656 53.6597 164.875 53.6597H196.618C196.837 53.6597 197.056 53.8782 197.056 54.0968C197.056 54.3154 196.837 54.5339 196.618 54.5339Z" fill="#E0E0E0"/>
<path d="M164.438 56.9305V46.8764C164.438 46.5485 164.766 46.2207 165.094 46.2207H165.641C165.97 46.2207 166.298 46.5485 166.298 46.8764V56.9305C166.298 57.2584 165.97 57.5862 165.641 57.5862H165.094C164.656 57.6955 164.438 57.3676 164.438 56.9305Z" fill="#E0E0E0"/>
<path d="M177.227 56.931V46.8769C177.227 46.549 177.555 46.2212 177.883 46.2212H178.431C178.759 46.2212 179.088 46.549 179.088 46.8769V56.931C179.088 57.2588 178.759 57.5867 178.431 57.5867H177.883C177.555 57.5867 177.227 57.3681 177.227 56.931Z" fill="#E0E0E0"/>
<path d="M188.383 56.9305V46.8764C188.383 46.5485 188.711 46.2207 189.04 46.2207H189.587C189.915 46.2207 190.243 46.5485 190.243 46.8764V56.9305C190.243 57.2583 189.915 57.5862 189.587 57.5862H189.04C188.602 57.5862 188.383 57.2583 188.383 56.9305Z" fill="#E0E0E0"/>
<path d="M185.223 46.1185V38.3593C185.223 38.0315 185.551 37.7036 185.879 37.7036H186.427C186.755 37.7036 187.083 38.0315 187.083 38.3593V46.1185C187.083 46.4463 186.755 46.7741 186.427 46.7741H185.879C185.551 46.8834 185.223 46.5556 185.223 46.1185Z" fill="#E0E0E0"/>
<path d="M284.197 47.7578H254.862C253.11 47.7578 251.578 46.3371 251.578 44.4793V44.2607C251.578 42.5121 253.001 40.9822 254.862 40.9822H284.197C285.948 40.9822 287.48 42.4029 287.48 44.2607V44.4793C287.371 46.2278 285.948 47.7578 284.197 47.7578Z" fill="#E0E0E0"/>
<path d="M265.686 46.1124L262.949 46.1157L262.963 57.4812L265.7 57.4779L265.686 46.1124Z" fill="#E0E0E0"/>
<path d="M283.174 46.1119L280.438 46.1152L280.451 57.4807L283.188 57.4775L283.174 46.1119Z" fill="#E0E0E0"/>
<path d="M251.763 57.5932L201.083 57.7025C197.471 57.7025 194.625 54.8612 194.625 51.2548V44.2606C194.625 40.6543 197.471 37.8129 201.083 37.8129L251.763 37.7036C255.375 37.7036 258.221 40.545 258.221 44.1513V51.1455C258.221 54.6426 255.375 57.5932 251.763 57.5932Z" fill="#37A351"/>
<path d="M287.983 68.0056L156.742 68.1638L156.76 82.5892L288.001 82.431L287.983 68.0056Z" fill="#E0E0E0"/>
<path d="M208.396 72.4583H209.6L211.351 75.7368L212.008 77.0482C211.899 76.3925 211.899 75.6275 211.899 74.8625V72.4583H213.103V78.5782H211.899L210.148 75.2996L209.491 73.9882C209.6 74.6439 209.6 75.4089 209.6 76.1739V78.6874H208.396V72.4583Z" fill="#37A351"/>
<path d="M214.295 77.9229C215.937 76.3929 216.922 75.3 216.922 74.3165C216.922 73.6608 216.594 73.3329 216.046 73.3329C215.609 73.3329 215.171 73.6608 214.952 73.9886L214.295 73.3329C214.842 72.7865 215.389 72.3494 216.265 72.3494C217.469 72.3494 218.235 73.1144 218.235 74.2072C218.235 75.3 217.36 76.5022 216.156 77.595C216.484 77.595 216.922 77.4857 217.141 77.4857H218.455V78.4693H214.295V77.9229Z" fill="#37A351"/>
<path d="M219.008 77.8076L219.555 77.0427C219.883 77.3705 220.321 77.6984 220.869 77.6984C221.525 77.6984 221.963 77.2612 221.963 76.6055C221.963 75.8405 221.525 75.5127 220.978 75.5127C220.65 75.5127 220.431 75.622 220.103 75.8405L219.555 75.5127L219.665 72.562H222.948V73.5456H220.759L220.65 74.857C220.869 74.7477 221.088 74.6384 221.416 74.6384C222.401 74.6384 223.277 75.2941 223.277 76.6055C223.277 78.0262 222.292 78.7912 221.088 78.7912C220.103 78.6819 219.446 78.3541 219.008 77.8076Z" fill="#37A351"/>
<path d="M224.045 75.5181C224.045 73.4417 224.921 72.3489 226.125 72.3489C227.329 72.3489 228.205 73.4417 228.205 75.5181C228.205 77.5945 227.329 78.6873 226.125 78.6873C224.921 78.6873 224.045 77.5945 224.045 75.5181ZM227.001 75.5181C227.001 73.7696 226.563 73.3324 226.125 73.3324C225.577 73.3324 225.249 73.8789 225.249 75.5181C225.249 77.2666 225.687 77.8131 226.234 77.8131C226.672 77.7038 227.001 77.1574 227.001 75.5181Z" fill="#37A351"/>
<path d="M228.965 77.0481C228.965 76.2831 229.403 75.7367 230.059 75.4088C229.622 75.081 229.293 74.6438 229.293 73.9881C229.293 73.0046 230.059 72.3489 231.154 72.3489C232.248 72.3489 232.905 73.0046 232.905 73.9881C232.905 74.6438 232.577 75.081 232.139 75.4088C232.686 75.7367 233.124 76.1738 233.124 77.0481C233.124 77.9223 232.358 78.6873 231.044 78.6873C229.841 78.6873 228.965 78.0316 228.965 77.0481ZM231.92 77.0481C231.92 76.3924 231.373 76.1738 230.607 75.846C230.278 76.0645 230.059 76.5017 230.059 76.9388C230.059 77.4852 230.497 77.8131 231.044 77.8131C231.592 77.8131 231.92 77.4852 231.92 77.0481ZM231.81 73.9881C231.81 73.4417 231.482 73.1139 231.044 73.1139C230.607 73.1139 230.278 73.4417 230.278 73.8789C230.278 74.4253 230.716 74.7531 231.373 74.9717C231.701 74.7531 231.81 74.4253 231.81 73.9881Z" fill="#37A351"/>
<path d="M122.349 67.7975L4.79102 67.939L4.80837 82.3644L122.367 82.223L122.349 67.7975Z" fill="#E0E0E0"/>
<path d="M78.8368 6.01571C78.8368 9.4035 72.8167 17.1626 72.8167 17.1626C72.8167 17.1626 66.7969 9.4035 66.7969 6.01571C66.7969 2.62792 69.5331 0.00512126 72.8167 0.00512126C76.1003 -0.104162 78.8368 2.62792 78.8368 6.01571Z" fill="#37A351"/>
<path d="M70.0781 10.4934V3.17139H71.2823L74.5658 9.40055V3.17139H75.4416V10.4934H74.2375L70.954 4.26422V10.4934H70.0781Z" fill="#E0E0E0"/>
<path d="M32.7252 38.2498H4.70312V39.889H32.7252V38.2498Z" fill="white"/>
<path d="M12.5966 55.8453H8.54688V38.6877H14.8954L12.5966 55.8453Z" fill="#E0E0E0"/>
<path d="M28.0214 38.2498H0V39.889H28.0214V38.2498Z" fill="#37A351"/>
<path d="M7.78645 55.8453H3.8457V38.6877H10.1943L7.78645 55.8453Z" fill="#37A351"/>
<path d="M119.537 25.1343H38.2086H37.7707H16.5356V27.6478H13.252V34.4234H22.0085V27.6478H18.7249V26.3364H32.9544C29.3423 28.0849 26.8248 31.8006 26.8248 36.1719V42.4011C26.8248 49.8323 32.9544 55.9522 40.3976 55.9522H45.3234V46.6631C45.3234 46.0074 44.5571 46.1167 44.5571 46.1167H39.1937V33.4398H54.6274V43.3846V46.0074V55.9522H119.427C121.069 55.9522 122.382 54.6408 122.382 53.0016V28.0849C122.382 26.4457 121.069 25.1343 119.537 25.1343Z" fill="#E0E0E0"/>
<path d="M72.7754 29.2856V55.8415H115.683V29.2856H72.7754ZM111.305 53.2187H77.0444V32.0177H111.305V53.2187Z" fill="#37A351"/>
<path d="M117.211 50.9236H71.4566C70.2525 50.9236 69.2676 49.94 69.2676 48.7379C69.2676 47.5358 70.2525 46.5522 71.4566 46.5522H117.211C118.415 46.5522 119.4 47.5358 119.4 48.7379C119.4 49.94 118.415 50.9236 117.211 50.9236Z" fill="#37A351"/>
<path d="M100.937 43.9285H80.4688V46.442H100.937V43.9285Z" fill="#37A351"/>
<path d="M56.3561 75.296C56.3561 75.6239 56.3561 75.8424 56.3561 76.1703L53.9479 72.0175L53.8387 71.9082H52.8535V78.1374H53.9479V74.7496C53.9479 74.4217 53.9479 74.2032 53.9479 73.8753L56.3561 78.0281L56.4657 78.1374H57.4508V71.9082H56.3561V75.296Z" fill="#37A351"/>
<path d="M62.4662 72.6713H62.5754V72.0156H58.4161V72.9992H61.1524L58.1973 77.4798V77.5891V78.2448H62.5754V77.2612H59.6202L62.4662 72.6713Z" fill="#37A351"/>
<path d="M66.7624 74.4199H64.4638V72.0156H63.3691V78.2448H64.4638V75.4034H66.7624V78.2448H67.857V72.0156H66.7624V74.4199Z" fill="#37A351"/>
<path d="M72.0285 75.4069C71.919 75.2976 71.919 74.9698 71.7001 74.8605C72.138 74.5326 72.4661 74.0955 72.4661 73.4398C72.4661 72.4562 71.7 71.8005 70.6054 71.8005C69.9486 71.8005 69.4013 72.0191 68.854 72.5655L68.7444 72.6748L69.4011 73.4398L69.6203 73.2212C69.8392 73.0027 70.1677 72.6748 70.715 72.6748C71.2623 72.6748 71.481 73.0027 71.481 73.4398C71.481 73.6584 71.4809 74.3141 70.0579 74.3141H69.8391V75.2976H70.0579C71.4809 75.2976 71.7001 75.844 71.7001 76.2812C71.7001 76.8276 71.2623 77.1555 70.715 77.1555C70.1677 77.1555 69.7295 76.9369 69.4011 76.4998L69.1823 76.2812L68.416 77.2647L68.5256 77.374C69.0729 77.9205 69.7296 78.2483 70.4958 78.2483C71.6999 78.2483 72.5757 77.4833 72.5757 76.3905C72.5757 75.9533 72.2474 75.7348 72.0285 75.5162C72.0285 75.5162 72.0285 75.5162 72.0285 75.4069Z" fill="#37A351"/>
<path d="M76.28 75.4069C76.1705 75.2976 76.1705 74.9698 75.9516 74.8605C76.3894 74.5326 76.7179 74.0955 76.7179 73.4398C76.7179 72.4562 75.9515 71.8005 74.857 71.8005C74.2003 71.8005 73.653 72.0191 73.1057 72.5655L72.9965 72.6748L73.6532 73.4398L73.872 73.2212C74.2003 72.8934 74.5287 72.6748 74.9666 72.6748C75.5138 72.6748 75.7328 73.0027 75.7328 73.4398C75.7328 73.6584 75.7328 74.3141 74.3099 74.3141H74.0911V75.2976H74.3099C75.7328 75.2976 75.9516 75.844 75.9516 76.2812C75.9516 76.8276 75.5138 77.1555 74.9666 77.1555C74.3098 77.1555 73.9815 76.8276 73.6532 76.4998L73.4344 76.2812L72.7773 77.2647L72.8869 77.374C73.4342 77.9205 74.0908 78.2483 74.857 78.2483C76.061 78.2483 76.9367 77.4833 76.9367 76.3905C76.9367 75.9533 76.6084 75.8441 76.3895 75.5162C76.3895 75.5162 76.3894 75.5162 76.28 75.4069Z" fill="#37A351"/>
<path d="M80.0175 72.0156H79.2516C79.0326 72.2342 78.5947 72.3435 78.1569 72.3435H77.9377V73.1085H78.9232V77.2612H77.6094V78.2448H81.1122V77.2612H79.9083V72.0156H80.0175Z" fill="#37A351"/>
<path d="M84.9302 75.0774C85.2586 74.7496 85.587 74.2032 85.587 73.6567C85.587 72.5639 84.8207 71.9082 83.8356 71.9082C82.8505 71.9082 82.0842 72.5639 82.0842 73.5475C82.0842 74.0939 82.3031 74.531 82.7409 74.8589C82.3031 75.1867 81.7559 75.6238 81.7559 76.4981C81.7559 77.4817 82.6316 78.2466 83.8356 78.2466C85.0396 78.2466 85.8058 77.4817 85.8058 76.4981C85.6963 75.8424 85.2586 75.296 84.9302 75.0774ZM84.7114 76.6074C84.7114 77.0445 84.2733 77.3724 83.726 77.3724C83.1787 77.3724 82.6317 76.9352 82.6317 76.4981C82.6317 75.9517 82.9601 75.6238 83.2884 75.4053C84.1641 75.7331 84.7114 75.9517 84.7114 76.6074ZM82.9601 73.5475C82.9601 73.1103 83.2882 72.7825 83.726 72.7825C84.2733 72.7825 84.4923 73.2196 84.4923 73.6567C84.4923 73.9846 84.3828 74.3124 84.0544 74.6403C83.3976 74.3124 82.9601 74.0939 82.9601 73.5475Z" fill="#37A351"/>
</svg>
