<svg width="206" height="58" viewBox="0 0 206 58" fill="none" xmlns="http://www.w3.org/2000/svg">
<path d="M205.396 47.1602H166.977V57.3712H205.396V47.1602Z" fill="#E0E0E0"/>
<path d="M177.91 50.6904H178.718L179.306 52.3066C179.379 52.5269 179.452 52.7473 179.526 52.9677C179.599 52.7473 179.673 52.5269 179.746 52.3066L180.334 50.6904H181.142V54.2165H180.481V52.7473C180.481 52.38 180.554 51.9393 180.554 51.572L180.261 52.38L179.746 53.8492H179.306L178.792 52.38L178.498 51.572C178.498 51.9393 178.571 52.38 178.571 52.7473V54.2165H177.91V50.6904Z" fill="#37A351"/>
<path d="M181.754 53.7758L183.37 51.2781H181.9V50.6904H184.251V51.1312L182.635 53.6288H184.324V54.2165H181.827V53.7758H181.754Z" fill="#37A351"/>
<path d="M186.294 51.2771H184.678V50.6895H187.028V51.1302C186.22 52.1587 186.073 52.8198 186.073 54.2155H185.339C185.412 52.9667 185.633 52.2321 186.294 51.2771Z" fill="#37A351"/>
<path d="M187.404 53.7713L187.698 53.3306C187.919 53.551 188.139 53.6979 188.506 53.6979C188.874 53.6979 189.094 53.551 189.094 53.1837C189.094 52.8164 188.874 52.596 188.139 52.596V52.0817C188.8 52.0817 189.021 51.8614 189.021 51.5675C189.021 51.2737 188.874 51.1267 188.58 51.1267C188.36 51.1267 188.139 51.2737 187.919 51.4206L187.551 50.9798C187.845 50.686 188.213 50.5391 188.58 50.5391C189.241 50.5391 189.755 50.9064 189.755 51.4941C189.755 51.8614 189.535 52.1552 189.168 52.3021C189.535 52.3756 189.902 52.7429 189.902 53.1837C189.902 53.8448 189.315 54.2121 188.654 54.2121C188.066 54.2856 187.625 54.0652 187.404 53.7713Z" fill="#37A351"/>
<path d="M190.273 53.8492C191.229 52.9677 191.816 52.3065 191.816 51.7923C191.816 51.425 191.596 51.2046 191.302 51.2046C191.008 51.2046 190.861 51.3516 190.641 51.572L190.273 51.2046C190.567 50.8373 190.935 50.6904 191.376 50.6904C192.037 50.6904 192.477 51.1312 192.477 51.7923C192.477 52.4535 191.963 53.1146 191.302 53.7757C191.449 53.7757 191.743 53.7023 191.89 53.7023H192.625V54.29H190.273V53.8492Z" fill="#37A351"/>
<path d="M193.275 53.6279H194.009V51.4241H193.348V50.9833C193.715 50.9098 193.936 50.8364 194.156 50.6895H194.67V53.6279H195.331V54.2155H193.201V53.6279H193.275Z" fill="#37A351"/>
<path d="M195.853 34.8159H177.562V43.2639H195.853V34.8159Z" fill="#E0E0E0"/>
<path d="M196.58 43.5611H177.188V34.0112H196.58V43.5611ZM178.289 42.4592H195.479V35.1131H178.289V42.4592Z" fill="#E0E0E0"/>
<path d="M201.717 29.6802H195.84V43.1968H201.717V29.6802Z" fill="#E0E0E0"/>
<path d="M202.449 43.5586H195.471V28.9399H202.449V43.5586ZM196.572 42.4567H201.347V30.0418H196.572V42.4567Z" fill="#E0E0E0"/>
<path d="M199.233 20.4966H171.391V24.9042H199.233V20.4966Z" fill="#E0E0E0"/>
<path d="M198.778 20.8613H195.84V29.6766H198.778V20.8613Z" fill="#E0E0E0"/>
<path d="M199.511 30.0463H195.471V20.2026H199.511V30.0463ZM196.572 28.9444H198.409V21.2311H196.572V28.9444Z" fill="#E0E0E0"/>
<path d="M173.227 24.9019V38.492H171.391V43.1935H175.946H175.725V38.492H173.962V24.9019H173.227Z" fill="#E0E0E0"/>
<path d="M190.255 6.16879C190.255 8.29915 186.362 13.3679 186.362 13.3679C186.362 13.3679 182.469 8.37261 182.469 6.16879C182.469 4.03844 184.232 2.27539 186.362 2.27539C188.493 2.27539 190.255 3.96498 190.255 6.16879Z" fill="#37A351"/>
<path d="M184.676 9.03497V4.3335H185.484L187.541 8.30036V4.3335H188.055V9.03497H187.247L185.19 5.0681V9.03497H184.676Z" fill="black"/>
<path d="M11.0158 10.1385C10.722 10.1385 10.3546 10.1385 10.0608 10.065C4.25723 9.33044 0.584135 2.27826 0.437211 1.98441C0.216824 1.61711 0.363659 1.10288 0.804432 0.882498C1.17174 0.662117 1.68571 0.809046 1.9061 1.24981C1.9061 1.32327 5.35901 7.86124 10.3544 8.52238C12.9256 8.81622 15.5703 7.49394 18.215 4.48207C18.4354 4.18823 20.8594 1.32326 24.0183 1.54364C26.2957 1.76402 28.2791 3.45361 29.9688 6.61241C30.1891 6.97971 30.0424 7.49393 29.6751 7.71431C29.3078 7.93469 28.7933 7.78778 28.573 7.42048C27.1772 4.77591 25.5613 3.38016 23.8717 3.23324C21.4474 3.01286 19.4636 5.51051 19.3902 5.58397C16.5986 8.52238 13.8074 10.1385 11.0158 10.1385Z" fill="#E0E0E0"/>
<path d="M101.675 24.0984C99.9856 24.0984 98.5898 22.7027 98.5898 21.0131C98.5898 19.3235 99.9856 17.9277 101.675 17.9277C103.365 17.9277 104.761 19.3235 104.761 21.0131C104.761 22.7027 103.365 24.0984 101.675 24.0984ZM101.675 18.7358C100.426 18.7358 99.3979 19.7642 99.3979 21.0131C99.3979 22.2619 100.426 23.2903 101.675 23.2903C102.924 23.2903 103.953 22.2619 103.953 21.0131C103.953 19.7642 102.924 18.7358 101.675 18.7358Z" fill="#E0E0E0"/>
<path d="M101.805 23.801L111.355 37.0239H117.379L104.376 21.083C104.302 21.083 104.302 23.5072 101.805 23.801Z" fill="#E0E0E0"/>
<path d="M118.206 37.3938H111.154L101.09 23.5098H101.751C103.882 23.2894 103.881 21.306 103.881 21.2325V20.0571L118.206 37.3938ZM111.595 36.5857H116.59L104.616 22.0406C104.396 22.8486 103.734 23.6567 102.559 24.024L111.595 36.5857Z" fill="#E0E0E0"/>
<path d="M101.444 23.5068H99.8281V52.4502H101.444V23.5068Z" fill="#E0E0E0"/>
<path d="M110.991 42.1675H109.008V52.5254H110.991V42.1675Z" fill="#E0E0E0"/>
<path d="M119.285 42.1675H117.301V52.5254H119.285V42.1675Z" fill="#E0E0E0"/>
<path d="M136.789 42.167H134.805V52.5249H136.789V42.167Z" fill="#E0E0E0"/>
<path d="M141.192 48.1157H135.609V50.0991H141.192V48.1157Z" fill="#E0E0E0"/>
<path d="M144.773 48.1138H142.863V50.0972H144.773V48.1138Z" fill="#6C6C6C"/>
<path d="M115.332 48.1138H109.75V50.0972H115.332V48.1138Z" fill="#E0E0E0"/>
<path d="M119.008 48.1147H117.098V50.0982H119.008V48.1147Z" fill="#E0E0E0"/>
<path d="M145.081 42.1675H143.098V52.5254H145.081V42.1675Z" fill="#E0E0E0"/>
<path d="M150.074 37.4614H105.336V42.4567H150.074V37.4614Z" fill="#E0E0E0"/>
<path d="M150.885 43.2696H104.531V36.6582H150.885V43.2696ZM106.147 41.6535H149.268V38.2743H106.147V41.6535Z" fill="#E0E0E0"/>
<path d="M148.094 18.5088H136.121V36.9473H148.094V18.5088Z" fill="#E0E0E0"/>
<path d="M148.891 37.7585H135.375V17.7773H148.891V37.7585ZM136.917 36.1424H147.276V19.32H136.917V36.1424Z" fill="#E0E0E0"/>
<path d="M132.304 37.0938H120.109L123.929 5.65283H128.778L132.304 37.0938Z" fill="#E0E0E0"/>
<path d="M133.392 38.1242H118.992L123.106 4.69971H129.718L133.392 38.1242ZM121.197 36.1407H131.188L127.882 6.68314H124.87L121.197 36.1407Z" fill="#E0E0E0"/>
<path d="M131.634 6.68775H120.688V0.51709H131.634V6.68775ZM122.671 4.70432H129.65V2.50052H122.671V4.70432Z" fill="#E0E0E0"/>
<path d="M150.213 27.1104H133.17V28.7265H150.213V27.1104Z" fill="#E0E0E0"/>
<path d="M150.213 17.5527H133.17V19.1689H150.213V17.5527Z" fill="#E0E0E0"/>
<path d="M88.2193 24.3154C88.2193 31.7349 88.2193 39.2278 88.2193 46.6473C88.2193 48.7042 88.2195 48.7777 90.2764 48.7042C91.2314 48.7042 91.6722 48.9246 91.6722 50.0265C91.6722 51.1284 91.2313 51.4957 90.2029 51.4957C80.2122 51.4957 70.2948 51.4957 60.3041 51.4957C59.2757 51.4957 58.7617 51.2019 58.7617 50.1C58.7617 48.998 59.2756 48.7777 60.2306 48.7777C62.214 48.7777 62.2877 48.6308 62.2877 46.6473C62.2877 31.6614 62.2877 16.6755 62.2877 1.68958C62.2877 0.367298 62.5813 0 63.9036 0C71.4701 0.0734603 79.1104 0.0734603 86.6769 0C87.9257 0 88.2927 0.367297 88.2193 1.61612C88.1458 9.10908 88.2193 16.749 88.2193 24.3154ZM75.2905 41.8724C74.409 41.8724 73.5271 41.8724 72.6455 41.8724C71.6171 41.7989 71.1762 42.3132 71.1762 43.2681C71.1762 44.5904 71.1762 45.9127 71.1762 47.3085C71.1762 48.4104 71.6906 48.7777 72.7191 48.7777C73.8945 48.7777 75.0698 48.7777 76.3186 48.7777C79.2571 48.7777 79.2572 48.7777 79.1837 45.8393C79.1102 41.4316 79.5512 41.8724 75.2905 41.8724ZM75.2905 13.2963C78.082 13.2963 80.8731 13.2963 83.5912 13.2963C84.6196 13.2963 84.987 12.929 85.0605 11.9006C85.134 10.6517 84.3261 10.5783 83.4446 10.5783C77.935 10.5783 72.4254 10.5783 66.9158 10.5783C66.0343 10.5783 65.373 10.7252 65.373 11.8271C65.373 12.929 65.9609 13.2963 66.9893 13.2963C69.7074 13.2963 72.499 13.2963 75.2905 13.2963ZM75.3636 4.40762C72.4986 4.40762 69.6337 4.40762 66.6952 4.40762C65.7402 4.40762 65.2994 4.77493 65.2994 5.72991C65.2994 6.61144 65.5936 7.12565 66.5486 7.12565C72.2051 7.12565 77.8616 7.12565 83.5181 7.12565C84.4731 7.12565 84.987 6.83182 84.987 5.72991C84.987 4.70147 84.4731 4.40762 83.5181 4.40762C80.8 4.40762 78.0816 4.40762 75.3636 4.40762ZM75.1434 35.3344C72.4254 35.3344 69.7074 35.3344 66.9893 35.3344C66.0343 35.3344 65.2994 35.4813 65.2994 36.6567C65.2994 37.8321 65.8873 38.0525 66.9158 38.0525C72.4254 38.0525 77.8615 38.0525 83.371 38.0525C84.326 38.0525 84.987 37.9055 84.987 36.7302C84.987 35.5548 84.3995 35.3344 83.371 35.3344C80.7264 35.3344 77.9349 35.3344 75.1434 35.3344ZM75.217 25.6377C78.0085 25.6377 80.8 25.6377 83.5181 25.6377C84.5466 25.6377 85.0605 25.2704 85.0605 24.1684C85.0605 23.0665 84.3996 22.8462 83.5181 22.8462C77.9351 22.8462 72.4253 22.8462 66.8423 22.8462C65.8873 22.8462 65.3729 23.2135 65.2994 24.2419C65.2994 25.2704 65.8137 25.6377 66.7687 25.5642C69.6337 25.6377 72.4254 25.6377 75.217 25.6377ZM75.2905 29.1638C72.499 29.1638 69.7074 29.2372 66.9893 29.1638C65.8874 29.1638 65.4465 29.5311 65.4465 30.633C65.4465 31.7349 66.1078 31.9553 66.9893 31.9553C72.4989 31.9553 78.0085 31.9553 83.5181 31.9553C84.4731 31.9553 85.134 31.8083 85.134 30.5595C85.134 29.3841 84.4731 29.1638 83.5181 29.1638C80.7266 29.1638 78.0086 29.1638 75.2905 29.1638ZM75.2905 19.467C78.082 19.467 80.7997 19.467 83.5912 19.467C84.6931 19.467 85.0605 19.0262 85.0605 17.9978C84.987 16.8959 84.3993 16.8224 83.5912 16.8224C78.0816 16.8224 72.6455 16.8224 67.136 16.8224C66.034 16.8224 65.4465 17.0428 65.4465 18.2182C65.4465 19.5404 66.328 19.467 67.2095 19.467C69.8541 19.467 72.5724 19.467 75.2905 19.467Z" fill="#E0E0E0"/>
<path d="M38.8477 27.3288C38.8477 20.7173 38.8477 14.1059 38.8477 7.56795C38.8477 6.24567 39.1414 5.73145 40.6106 5.73145C46.4137 5.80491 52.2168 5.73143 58.02 5.80489C60.0034 5.80489 60.0035 5.87836 60.0035 7.78832C60.0035 20.0562 60.0035 32.3241 60.0035 44.5185C60.0035 46.4284 60.0034 46.5019 58.02 46.5019C57.1385 46.5019 56.5508 46.6488 56.6243 47.6773C56.6977 48.6322 56.1836 48.9995 55.3021 48.9995C50.2335 48.9995 45.1649 48.9995 40.0963 48.9995C38.921 48.9995 38.8477 48.2649 38.8477 47.3834C38.8477 42.9023 38.8477 38.3478 38.8477 33.8667C38.8477 31.7364 38.8477 29.5326 38.8477 27.3288ZM44.2835 33.5729C47.0748 33.5729 47.0749 33.5729 47.0749 31.2956C47.0749 28.0634 47.0747 28.0634 44.5771 28.0634C41.5654 28.0634 41.5656 28.0634 41.5656 30.6345C41.639 33.5729 41.639 33.5729 44.2835 33.5729ZM56.9184 30.7814C56.9184 28.0634 56.918 28.0634 54.6408 28.0634C51.629 28.0634 51.6293 28.0634 51.7027 31.2222C51.7762 33.5729 51.7763 33.5729 54.127 33.6463C56.9184 33.5729 56.9184 33.5729 56.9184 30.7814ZM47.1484 12.3429C47.1484 9.55138 47.0747 9.55137 45.0178 9.55137C41.6388 9.55137 41.6391 9.55137 41.6391 12.2694C41.6391 14.914 41.7127 14.9874 44.0633 15.0609C47.0751 14.9874 47.075 14.9874 47.1484 12.3429ZM44.2099 42.682C44.7976 42.682 45.3852 42.682 45.9728 42.682C46.7809 42.682 47.1483 42.1677 47.0749 41.4331C46.8545 40.1843 47.8831 38.3478 46.3405 37.7601C45.0917 37.3194 43.3285 37.5397 42.0063 38.054C41.4921 38.2743 41.7125 40.1109 41.5656 41.2128C41.5656 41.2862 41.5656 41.4331 41.5656 41.5066C41.5656 42.3881 42.0062 42.7554 42.8142 42.7554C43.3284 42.682 43.7692 42.682 44.2099 42.682ZM44.357 18.9543C41.639 18.9543 41.6391 18.9543 41.6391 21.1581C41.6391 24.17 41.639 24.17 44.7977 24.0965C47.1484 24.0231 47.1484 24.023 47.1484 21.6723C47.1484 18.9543 47.1484 18.9543 44.357 18.9543ZM56.9184 12.1959C56.8449 9.47791 56.8447 9.47791 54.7878 9.47791C51.7026 9.47791 51.7028 9.47791 51.7763 12.5632C51.7763 14.914 51.8494 14.914 54.2001 14.9874C56.918 15.0609 56.9184 15.0609 56.9184 12.1959ZM54.3471 42.682C56.9916 42.6085 56.9919 42.6085 56.9184 39.3763C56.9184 37.3928 56.9181 37.3928 53.3921 37.4663C51.6291 37.4663 51.6293 37.4663 51.7027 40.9189C51.7027 42.7554 51.7026 42.7554 54.3471 42.682ZM54.2001 24.0965C56.918 24.0965 56.9184 24.0965 56.9184 21.5254C56.9184 18.8808 56.918 18.8808 54.6408 18.8808C51.4821 18.9543 51.7762 18.5135 51.7027 21.7458C51.7027 24.0965 51.7025 24.0965 54.2001 24.0965Z" fill="#E0E0E0"/>
<path d="M155.799 51.2783H3.66211V57.6694H155.799V51.2783Z" fill="#E0E0E0"/>
<path d="M45.2365 51.2024H37.0824C37.0824 50.7616 37.0824 50.1005 37.0824 49.5862V26.887C35.8336 19.9817 35.3925 14.6191 35.3925 14.6191H21.5818C16.6599 47.162 10.7832 51.79 10.7832 51.79H45.6038C45.4568 51.5697 45.3835 51.3493 45.2365 51.2024ZM33.556 26.887H22.4637C22.023 26.887 21.6553 26.5197 21.6553 26.0789C21.6553 25.6382 22.023 25.2709 22.4637 25.2709H33.556C33.9968 25.2709 34.3644 25.6382 34.3644 26.0789C34.3644 26.5197 33.9968 26.887 33.556 26.887Z" fill="#E0E0E0"/>
</svg>
