<svg width="71" height="74" viewBox="0 0 71 74" fill="none" xmlns="http://www.w3.org/2000/svg">
<path d="M33.4496 73.3666L23.2617 67.8235L23.3249 34.335L33.5128 39.878L33.4496 73.3666Z" fill="#E0E0E0"/>
<path d="M33.5119 39.8778L23.3241 34.3348C23.3331 29.4959 23.2293 26.607 23.0171 25.6636C22.8366 24.8692 22.3942 24.2778 21.6855 23.8896L31.8734 29.4327C32.5821 29.8209 33.0244 30.4077 33.205 31.2067C33.4171 32.1501 33.521 35.039 33.5119 39.8778Z" fill="#E0E0E0"/>
<path d="M39.5029 10.0636L29.3105 4.52052L37.8192 3.32886L48.0071 8.87191L39.5029 10.0636Z" fill="#E0E0E0"/>
<path d="M23.5785 22.3052L13.3906 16.7622C14.4514 16.3649 15.4715 15.9361 16.4556 15.4712L26.6434 21.0143C25.6594 21.4792 24.6392 21.9125 23.5785 22.3052Z" fill="#E0E0E0"/>
<path d="M26.6429 21.0189L16.4551 15.4759C18.2065 14.6498 19.836 13.7154 21.3391 12.6772L31.527 18.2203C30.0238 19.2585 28.3943 20.1929 26.6429 21.0189Z" fill="#E0E0E0"/>
<path d="M31.5277 18.2158L21.3398 12.6727C22.4232 11.9234 23.4433 11.12 24.4003 10.2578L34.5881 15.8009C33.6312 16.663 32.611 17.4665 31.5277 18.2158Z" fill="#E0E0E0"/>
<path d="M34.5882 15.8007L24.4004 10.2576C25.2309 9.5083 26.0164 8.71837 26.7521 7.8833L36.94 13.4264C36.2042 14.2614 35.4233 15.0514 34.5882 15.8007Z" fill="#E0E0E0"/>
<path d="M36.9398 13.4265L26.752 7.88347C27.4697 7.07097 28.1422 6.21785 28.7651 5.32861L38.953 10.8717C38.3301 11.7654 37.6575 12.614 36.9398 13.4265Z" fill="#E0E0E0"/>
<path d="M38.9574 10.8716L28.7695 5.32849C28.9546 5.06217 29.1397 4.79586 29.3157 4.52051L39.5036 10.0636C39.323 10.3389 39.1424 10.6052 38.9574 10.8716Z" fill="#E0E0E0"/>
<path d="M23.5648 29.5907L13.377 24.0476L13.3905 16.7622L23.5783 22.3053L23.5648 29.5907Z" fill="#E0E0E0"/>
<path d="M48.0072 8.87207L47.8898 71.3353L33.4499 73.3665L33.5131 39.878C33.5221 35.0391 33.4183 32.1502 33.2061 31.2068C32.994 30.2589 32.4072 29.6044 31.4412 29.2342C30.4797 28.8686 28.3266 28.9228 24.9908 29.3877L23.5645 29.5863L23.578 22.3054C30.561 19.7009 35.8693 15.6203 39.503 10.0637L48.0072 8.87207Z" fill="#37A351"/>
<path fill-rule="evenodd" clip-rule="evenodd" d="M20.4362 44.7845C19.9623 43.3988 16.4189 41.7332 19.8178 38.6953C19.538 42.1439 22.2553 43.2634 20.4362 44.7845Z" fill="#37A351"/>
<path fill-rule="evenodd" clip-rule="evenodd" d="M20.4398 44.7891C19.054 45.2675 15.5648 43.4981 15.2578 48.0436C17.8036 45.7009 20.3585 47.1589 20.4398 44.7891Z" fill="#37A351"/>
<path fill-rule="evenodd" clip-rule="evenodd" d="M15.9629 43.9267C15.7824 42.55 12.8032 40.3517 16.5181 38.167C15.6154 41.3132 17.931 42.8524 15.9629 43.9267Z" fill="#37A351"/>
<path fill-rule="evenodd" clip-rule="evenodd" d="M15.967 43.9314C14.5947 44.1255 11.6833 41.846 10.5684 46.0078C13.3534 44.297 15.4569 46.1116 15.967 43.9314Z" fill="#37A351"/>
<path fill-rule="evenodd" clip-rule="evenodd" d="M12.1994 42.2791C12.3168 40.9791 10.0418 38.334 13.9102 37.0972C12.4251 39.801 14.2307 41.7013 12.1994 42.2791Z" fill="#37A351"/>
<path fill-rule="evenodd" clip-rule="evenodd" d="M12.1976 42.2837C10.8976 42.1798 8.68576 39.4896 6.8125 43.0871C9.71944 42.085 11.2812 44.184 12.1976 42.2837Z" fill="#37A351"/>
<path fill-rule="evenodd" clip-rule="evenodd" d="M8.73242 39.6882C9.12513 38.5236 7.62652 35.6121 11.4317 35.3323C9.48173 37.4764 10.714 39.6069 8.73242 39.6882Z" fill="#37A351"/>
<path fill-rule="evenodd" clip-rule="evenodd" d="M8.73034 39.6929C7.56575 39.3182 6.12582 36.3842 3.63867 39.2641C6.51402 38.9752 7.48902 41.2321 8.73034 39.6929Z" fill="#37A351"/>
<path fill-rule="evenodd" clip-rule="evenodd" d="M6.0625 35.9824C6.67187 35.0074 5.9316 32.0327 9.45694 32.5969C7.22257 34.1317 7.88611 36.3344 6.0625 35.9824Z" fill="#37A351"/>
<path fill-rule="evenodd" clip-rule="evenodd" d="M6.06502 35.9867C5.0855 35.3999 4.39037 32.4298 1.51953 34.5288C4.19627 34.8718 4.61155 37.1288 6.06502 35.9867Z" fill="#37A351"/>
<path fill-rule="evenodd" clip-rule="evenodd" d="M4.25391 31.7663C4.9987 30.9989 4.90842 28.1462 8.00495 29.3514C5.67127 30.3038 5.84279 32.4434 4.25391 31.7663Z" fill="#37A351"/>
<path fill-rule="evenodd" clip-rule="evenodd" d="M4.2533 31.7709C3.4724 31.0486 3.40469 28.2139 0.398438 29.5771C2.76372 30.3986 2.70955 32.5292 4.2533 31.7709Z" fill="#37A351"/>
<path fill-rule="evenodd" clip-rule="evenodd" d="M3.32812 27.1938C4.13611 26.6206 4.53785 24.0116 7.15139 25.632C4.86736 26.106 4.66424 28.0786 3.32812 27.1938Z" fill="#37A351"/>
<path fill-rule="evenodd" clip-rule="evenodd" d="M3.32843 27.1937C2.73711 26.4083 3.13885 23.8173 0.177734 24.5666C2.19996 25.7041 1.80274 27.636 3.32843 27.1937Z" fill="#37A351"/>
<path fill-rule="evenodd" clip-rule="evenodd" d="M3.2793 22.4769C4.09631 22.0752 4.83659 19.7595 6.98068 21.6057C4.83207 21.7095 4.36263 23.4745 3.2793 22.4769Z" fill="#37A351"/>
<path fill-rule="evenodd" clip-rule="evenodd" d="M3.27474 22.4812C2.84141 21.6868 3.56363 19.3847 0.769531 19.6646C2.45321 20.9691 1.82578 22.6708 3.27474 22.4812Z" fill="#37A351"/>
<path fill-rule="evenodd" clip-rule="evenodd" d="M3.97461 18.0307C4.76905 17.7914 5.78468 15.8143 7.43676 17.8005C5.49127 17.5702 4.80065 19.0914 3.97461 18.0307Z" fill="#37A351"/>
<path fill-rule="evenodd" clip-rule="evenodd" d="M3.973 18.0306C3.69314 17.2542 4.67266 15.2817 2.11328 15.1372C3.44488 16.5546 2.64141 17.999 3.973 18.0306Z" fill="#37A351"/>
<path fill-rule="evenodd" clip-rule="evenodd" d="M5.47852 14.0585C6.22331 13.9637 7.42851 12.3522 8.60664 14.3744C6.90039 13.8779 6.05629 15.1328 5.47852 14.0585Z" fill="#37A351"/>
<path fill-rule="evenodd" clip-rule="evenodd" d="M5.47361 14.0629C5.33368 13.3316 6.48472 11.7066 4.21875 11.2146C5.2118 12.6681 4.29098 13.8462 5.47361 14.0629Z" fill="#37A351"/>
<path fill-rule="evenodd" clip-rule="evenodd" d="M7.7793 10.3613C8.45187 10.3748 9.73381 9.10644 10.5102 11.0564C9.06575 10.3929 8.14944 11.3905 7.7793 10.3613Z" fill="#37A351"/>
<path fill-rule="evenodd" clip-rule="evenodd" d="M7.77969 10.3659C7.74358 9.69789 8.95782 8.39338 7.00781 7.68921C7.71198 9.09303 6.75504 10.0274 7.77969 10.3659Z" fill="#37A351"/>
<path fill-rule="evenodd" clip-rule="evenodd" d="M10.7578 7.04821C11.3446 7.143 12.622 6.19508 13.0599 7.99613C11.8773 7.23328 10.9519 7.99161 10.7578 7.04821Z" fill="#37A351"/>
<path fill-rule="evenodd" clip-rule="evenodd" d="M10.7548 7.04834C10.7954 6.45702 12.0051 5.44591 10.3711 4.61084C10.836 5.92889 9.89262 6.64209 10.7548 7.04834Z" fill="#37A351"/>
<path fill-rule="evenodd" clip-rule="evenodd" d="M14.2754 4.22711C14.7719 4.3851 15.9907 3.72156 16.1441 5.3285C15.2188 4.52503 14.3296 5.0667 14.2754 4.22711Z" fill="#37A351"/>
<path fill-rule="evenodd" clip-rule="evenodd" d="M14.2759 4.2271C14.3752 3.72154 15.5262 2.96772 14.1946 2.07397C14.4609 3.26564 13.5672 3.78474 14.2759 4.2271Z" fill="#37A351"/>
<path fill-rule="evenodd" clip-rule="evenodd" d="M18.21 2.1687C18.6072 2.3628 19.7177 1.96106 19.6454 3.33328C18.9684 2.53884 18.1513 2.88189 18.21 2.1687Z" fill="#37A351"/>
<path fill-rule="evenodd" clip-rule="evenodd" d="M18.2108 2.16881C18.3462 1.74902 19.407 1.22541 18.3643 0.327148C18.4726 1.36534 17.6556 1.71743 18.2108 2.16881Z" fill="#37A351"/>
<path fill-rule="evenodd" clip-rule="evenodd" d="M51.6314 45.3036C52.0016 43.8862 55.4096 41.9633 51.7939 39.1873C52.3311 42.6043 49.704 43.9223 51.6314 45.3036Z" fill="#37A351"/>
<path fill-rule="evenodd" clip-rule="evenodd" d="M51.627 45.3082C53.0443 45.6828 56.3936 43.6606 57.0391 48.17C54.3263 46.0214 51.8842 47.6644 51.627 45.3082Z" fill="#37A351"/>
<path fill-rule="evenodd" clip-rule="evenodd" d="M56.0322 44.1164C56.1135 42.7307 58.9166 40.3157 55.0527 38.4109C56.1812 41.4803 53.9875 43.1911 56.0322 44.1164Z" fill="#37A351"/>
<path fill-rule="evenodd" clip-rule="evenodd" d="M56.0273 44.1208C57.4086 44.2111 60.1485 41.724 61.5659 45.791C58.6589 44.2924 56.6954 46.2559 56.0273 44.1208Z" fill="#37A351"/>
<path fill-rule="evenodd" clip-rule="evenodd" d="M59.67 42.1891C59.4533 40.8981 61.5297 38.095 57.5801 37.1516C59.2592 39.7381 57.5981 41.7648 59.67 42.1891Z" fill="#37A351"/>
<path fill-rule="evenodd" clip-rule="evenodd" d="M59.666 42.1936C60.957 41.995 62.9612 39.1467 65.0962 42.5908C62.1216 41.8144 60.7223 44.0217 59.666 42.1936Z" fill="#37A351"/>
<path fill-rule="evenodd" clip-rule="evenodd" d="M62.9352 39.3408C62.4567 38.2123 63.7342 35.1925 59.9199 35.197C62.0189 37.1922 60.9491 39.4085 62.9352 39.3408Z" fill="#37A351"/>
<path fill-rule="evenodd" clip-rule="evenodd" d="M62.9336 39.3453C64.0666 38.8849 65.2853 35.8516 67.9801 38.5373C65.0912 38.4696 64.2878 40.7898 62.9336 39.3453Z" fill="#37A351"/>
<path fill-rule="evenodd" clip-rule="evenodd" d="M65.3179 35.4452C64.6363 34.5199 65.1509 31.5001 61.6797 32.3261C64.0224 33.6848 63.5259 35.9327 65.3179 35.4452Z" fill="#37A351"/>
<path fill-rule="evenodd" clip-rule="evenodd" d="M65.3184 35.4498C66.2527 34.7908 66.7222 31.7755 69.742 33.6533C67.1013 34.1949 66.8576 36.479 65.3184 35.4498Z" fill="#37A351"/>
<path fill-rule="evenodd" clip-rule="evenodd" d="M66.8112 31.0984C66.0123 30.3897 65.8859 27.5415 62.8887 28.9679C65.2856 29.7533 65.2765 31.8929 66.8112 31.0984Z" fill="#37A351"/>
<path fill-rule="evenodd" clip-rule="evenodd" d="M66.8125 31.1028C67.5392 30.3264 67.3903 27.4917 70.4958 28.6247C68.1938 29.6223 68.4059 31.7438 66.8125 31.1028Z" fill="#37A351"/>
<path fill-rule="evenodd" clip-rule="evenodd" d="M67.3886 26.4671C66.54 25.957 65.9442 23.3841 63.457 25.1942C65.7727 25.4966 66.1247 27.4511 67.3886 26.4671Z" fill="#37A351"/>
<path fill-rule="evenodd" clip-rule="evenodd" d="M67.3887 26.4672C67.9213 25.6411 67.3255 23.0863 70.3317 23.6099C68.4043 24.8963 68.946 26.7922 67.3887 26.4672Z" fill="#37A351"/>
<path fill-rule="evenodd" clip-rule="evenodd" d="M67.0856 21.7547C66.2415 21.4161 65.3297 19.1592 63.3301 21.1634C65.4787 21.1092 66.079 22.8335 67.0856 21.7547Z" fill="#37A351"/>
<path fill-rule="evenodd" clip-rule="evenodd" d="M67.0879 21.7592C67.458 20.9377 66.5688 18.6943 69.3764 18.762C67.7966 20.1884 68.5459 21.8405 67.0879 21.7592Z" fill="#37A351"/>
<path fill-rule="evenodd" clip-rule="evenodd" d="M66.0532 17.3673C65.2407 17.1867 64.0852 15.2909 62.582 17.3898C64.5095 17.0197 65.3084 18.4867 66.0532 17.3673Z" fill="#37A351"/>
<path fill-rule="evenodd" clip-rule="evenodd" d="M66.0534 17.3717C66.2746 16.5773 65.1597 14.6814 67.6965 14.3474C66.4732 15.8596 67.3805 17.2408 66.0534 17.3717Z" fill="#37A351"/>
<path fill-rule="evenodd" clip-rule="evenodd" d="M64.2664 13.5078C63.5126 13.4671 62.2036 11.9414 61.1699 14.0404C62.8355 13.4265 63.7654 14.6137 64.2664 13.5078Z" fill="#37A351"/>
<path fill-rule="evenodd" clip-rule="evenodd" d="M64.2646 13.5076C64.3504 12.7674 63.091 11.2281 65.3164 10.5781C64.4316 12.0993 65.4337 13.2052 64.2646 13.5076Z" fill="#37A351"/>
<path fill-rule="evenodd" clip-rule="evenodd" d="M61.7054 9.97795C61.0329 10.0411 59.6697 8.86302 59.0332 10.8627C60.428 10.0953 61.4075 11.0252 61.7054 9.97795Z" fill="#37A351"/>
<path fill-rule="evenodd" clip-rule="evenodd" d="M61.7071 9.97785C61.6935 9.3098 60.3935 8.09556 62.2894 7.25146C61.689 8.70494 62.7092 9.5716 61.7071 9.97785Z" fill="#37A351"/>
<path fill-rule="evenodd" clip-rule="evenodd" d="M58.5111 6.88583C57.9288 7.02576 56.5882 6.16812 56.2812 7.99625C57.4052 7.15215 58.3802 7.84278 58.5111 6.88583Z" fill="#37A351"/>
<path fill-rule="evenodd" clip-rule="evenodd" d="M58.5104 6.88598C58.4247 6.29917 57.1472 5.37834 58.7181 4.43042C58.3525 5.77556 59.3455 6.42105 58.5104 6.88598Z" fill="#37A351"/>
<path fill-rule="evenodd" clip-rule="evenodd" d="M54.796 4.33105C54.3131 4.52515 53.0492 3.9564 53.0176 5.56786C53.8797 4.69668 54.8096 5.17064 54.796 4.33105Z" fill="#37A351"/>
<path fill-rule="evenodd" clip-rule="evenodd" d="M54.7998 4.33086C54.6644 3.83433 53.4547 3.17079 54.7141 2.17773C54.5381 3.38294 55.4679 3.83433 54.7998 4.33086Z" fill="#37A351"/>
<path fill-rule="evenodd" clip-rule="evenodd" d="M50.7019 2.57959C50.3228 2.80528 49.1808 2.49383 49.3658 3.85702C49.9752 3.00841 50.8193 3.28376 50.7019 2.57959Z" fill="#37A351"/>
<path fill-rule="evenodd" clip-rule="evenodd" d="M50.7025 2.57971C50.5355 2.16895 49.4341 1.73562 50.4001 0.756104C50.382 1.79881 51.2216 2.08319 50.7025 2.57971Z" fill="#37A351"/>
</svg>
