<svg width="95" height="48" viewBox="0 0 95 48" fill="none" xmlns="http://www.w3.org/2000/svg">
<path d="M71.336 0.226318C64.7979 0.226318 58.8785 2.86965 54.6042 7.15804C53.1279 8.63437 51.1313 11.0809 49.1488 13.6398L55.3353 22.1041C57.0507 19.8123 60.0315 15.9317 61.7187 14.2585C64.1793 11.7979 67.5819 10.2654 71.35 10.2654C78.8723 10.2654 84.9744 16.3675 84.9744 23.8898C84.9744 31.412 78.8723 37.5142 71.35 37.5142C67.5959 37.5142 64.1793 35.9957 61.7187 33.5211C59.2582 31.0605 54.0137 23.8898 54.0137 23.8898H41.6406C41.6406 23.8898 50.3158 36.3331 54.5902 40.6075C58.8785 44.8959 64.7979 47.5532 71.336 47.5532C84.412 47.5532 94.9994 36.9518 94.9994 23.8898C94.9994 10.8278 84.398 0.226318 71.336 0.226318Z" fill="url(#paint0_linear)"/>
<path d="M53.7029 23.8898C53.7029 23.8898 45.0277 11.4324 40.7393 7.15804C36.451 2.86965 30.5456 0.226318 24.0076 0.226318C10.9315 0.226318 0.330078 10.8137 0.330078 23.8898C0.330078 36.9659 10.9315 47.5532 23.9935 47.5532C30.5316 47.5532 36.451 44.8959 40.7393 40.6075C42.2438 39.103 44.2966 36.5722 46.3213 33.9429L40.0785 25.6333C38.3069 27.9673 35.284 31.8479 33.6108 33.507C31.1502 35.9676 27.7476 37.5001 23.9795 37.5001C16.4572 37.5001 10.3691 31.398 10.3691 23.8757C10.3691 16.3535 16.4713 10.2513 23.9795 10.2513C27.7336 10.2513 31.108 11.812 33.6108 14.2444C36.2963 16.8596 41.4705 23.7632 41.4705 23.7632L53.7029 23.8898Z" fill="url(#paint1_linear)"/>
<path d="M84.7199 38.1188C76.9165 41.4932 68.6771 40.495 61.7032 33.5211C55.9245 27.7423 48.0226 14.2866 40.894 7.15802C40.669 6.93306 40.43 6.70809 40.2051 6.51125C33.9623 0.732469 24.9215 -1.67184 15.5433 1.70263C6.2354 5.04898 0.330078 14.2866 0.330078 23.9601C0.470681 18.4766 4.26696 12.3884 10.6081 9.64669C18.4116 6.27222 26.6509 7.2705 33.6248 14.2585C39.952 20.5715 47.5586 33.5914 54.5887 40.6215C60.8456 46.8783 70.0832 49.4795 79.8129 45.9785C89.1208 42.6321 94.9839 33.4789 94.9839 23.8054C94.8574 29.303 91.0611 35.3911 84.7199 38.1188Z" fill="url(#paint2_linear)"/>
<defs>
<linearGradient id="paint0_linear" x1="62.2018" y1="33.6786" x2="87.6545" y2="6.38402" gradientUnits="userSpaceOnUse">
<stop offset="0.000862" stop-color="#2FAB00"/>
<stop offset="0.1777" stop-color="#38CC00"/>
<stop offset="1" stop-color="#37A351"/>
</linearGradient>
<linearGradient id="paint1_linear" x1="8.14647" y1="42.1767" x2="32.9291" y2="13.5985" gradientUnits="userSpaceOnUse">
<stop stop-color="#37A351"/>
<stop offset="0.2918" stop-color="#2DC700"/>
<stop offset="0.6252" stop-color="#37A351"/>
<stop offset="0.9779" stop-color="#26A300"/>
<stop offset="1" stop-color="#26A100"/>
</linearGradient>
<linearGradient id="paint2_linear" x1="66.9719" y1="55.133" x2="30.105" y2="-4.52453" gradientUnits="userSpaceOnUse">
<stop stop-color="#30AD00"/>
<stop offset="0.1466" stop-color="#25AA00"/>
<stop offset="0.3076" stop-color="#1EA800"/>
<stop offset="0.7057" stop-color="#44CC00"/>
<stop offset="0.7956" stop-color="#58DF1A"/>
<stop offset="0.9279" stop-color="#7DD35A"/>
<stop offset="1" stop-color="#64C73E"/>
</linearGradient>
</defs>
</svg>
