<svg width="221" height="220" viewBox="0 0 221 220" fill="none" xmlns="http://www.w3.org/2000/svg">
<path d="M56.1141 203.763L1.73402 110L56.1141 16.2372L164.886 16.2372L219.266 110L164.886 203.763L56.1141 203.763Z" stroke="#CACACA" stroke-width="3"/>
<path d="M97.8531 79.9014C84.0844 79.9014 72.8192 91.1666 72.8192 104.935V139.357C68.5165 139.357 64.9961 142.877 64.9961 147.18C64.9961 151.483 68.5165 155.003 72.8192 155.003H108.805" stroke="#767676" stroke-width="4" stroke-miterlimit="10" stroke-linecap="round" stroke-linejoin="round"/>
<path d="M133.393 100.242C131.183 88.695 120.97 79.9019 108.805 79.9019" stroke="#767676" stroke-width="4" stroke-miterlimit="10" stroke-linecap="round" stroke-linejoin="round"/>
<path d="M97.8521 79.9023H96.2874C94.5664 79.9023 93.1582 78.4941 93.1582 76.773C93.1582 75.052 94.5664 73.6438 96.2874 73.6438H110.369C112.09 73.6438 113.498 75.052 113.498 76.773C113.498 78.4941 112.09 79.9023 110.369 79.9023H108.804" stroke="#767676" stroke-width="4" stroke-miterlimit="10" stroke-linecap="round" stroke-linejoin="round"/>
<path d="M108.803 73.6433H97.8504C93.5477 73.6433 90.0273 70.1229 90.0273 65.8202C90.0273 61.5175 93.5477 57.9971 97.8504 57.9971C104.109 62.6909 108.803 57.9971 108.803 57.9971C113.105 57.9971 116.626 61.5175 116.626 65.8202C116.626 70.1229 113.105 73.6433 108.803 73.6433Z" stroke="#767676" stroke-width="4" stroke-miterlimit="10" stroke-linecap="round" stroke-linejoin="round"/>
<path d="M94.7207 126.838C97.0676 131.532 101.761 131.532 101.761 131.532H106.455C110.328 131.532 113.496 128.364 113.496 124.491C113.496 120.619 110.328 117.45 106.455 117.45H101.761C97.8891 117.45 94.7207 114.282 94.7207 110.41C94.7207 106.537 97.8891 103.369 101.761 103.369H106.455C106.455 103.369 111.149 103.369 113.496 108.063" stroke="#767676" stroke-width="4" stroke-miterlimit="10" stroke-linecap="round" stroke-linejoin="round"/>
<path d="M104.107 98.6765V103.37" stroke="#767676" stroke-width="4" stroke-miterlimit="10" stroke-linecap="round" stroke-linejoin="round"/>
<path d="M104.107 131.532V136.226" stroke="#767676" stroke-width="4" stroke-miterlimit="10" stroke-linecap="round" stroke-linejoin="round"/>
<path d="M122.105 155.004H151.832C152.263 155.004 152.615 154.652 152.615 154.222V144.834C152.615 144.404 152.263 144.052 151.832 144.052H122.105C121.674 144.052 121.322 144.404 121.322 144.834V154.222C121.322 154.652 121.674 155.004 122.105 155.004Z" stroke="#767676" stroke-width="4" stroke-miterlimit="10" stroke-linecap="round" stroke-linejoin="round"/>
<path d="M125.232 144.051H154.959C155.39 144.051 155.742 143.699 155.742 143.269V133.881C155.742 133.451 155.39 133.099 154.959 133.099H125.232C124.801 133.099 124.449 133.451 124.449 133.881V143.269C124.449 143.699 124.801 144.051 125.232 144.051Z" stroke="#767676" stroke-width="4" stroke-miterlimit="10" stroke-linecap="round" stroke-linejoin="round"/>
<path d="M131.489 133.1H161.217C161.647 133.1 161.999 132.748 161.999 132.318V122.93C161.999 122.5 161.647 122.148 161.217 122.148H131.489C131.059 122.148 130.707 122.5 130.707 122.93V132.318C130.707 132.748 131.059 133.1 131.489 133.1Z" stroke="#767676" stroke-width="4" stroke-miterlimit="10" stroke-linecap="round" stroke-linejoin="round"/>
<path d="M128.362 122.145H158.09C158.52 122.145 158.872 121.793 158.872 121.363V111.975C158.872 111.545 158.52 111.193 158.09 111.193H128.362C127.932 111.193 127.58 111.545 127.58 111.975V121.363C127.58 121.793 127.932 122.145 128.362 122.145Z" stroke="#767676" stroke-width="4" stroke-miterlimit="10" stroke-linecap="round" stroke-linejoin="round"/>
</svg>
