<svg width="221" height="220" viewBox="0 0 221 220" fill="none" xmlns="http://www.w3.org/2000/svg">
<path d="M112.418 58.2341C116.393 59.802 119.043 63.5783 119.043 68.4587V72.8754" stroke="#767676" stroke-width="4" stroke-miterlimit="10" stroke-linecap="round"/>
<path d="M96.959 72.8751V68.4585C96.959 63.5781 99.609 59.8018 103.584 58.2339" stroke="#767676" stroke-width="4" stroke-miterlimit="10" stroke-linecap="round"/>
<path d="M108 53.0002V64.0419" stroke="#767676" stroke-width="4" stroke-miterlimit="10" stroke-linecap="round" stroke-linejoin="round"/>
<path d="M92.543 72.8752H123.46" stroke="#767676" stroke-width="4" stroke-miterlimit="10" stroke-linecap="round"/>
<path d="M99.168 77.292V79.5003C99.168 84.7341 102.856 88.3337 108.001 88.3337C113.147 88.3337 116.835 84.7341 116.835 79.5003V77.292" stroke="#767676" stroke-width="4" stroke-miterlimit="10" stroke-linecap="round" stroke-linejoin="round"/>
<path d="M96.9592 103.792L92.5425 112.625C92.5425 112.625 100.735 120.73 101.376 121.459C100.404 123.071 98.6154 125.875 94.7508 125.875C93.5804 125.875 89.1637 123.601 85.9175 121.459C80.6837 118.014 80.22 116.578 81.5008 112.625C82.2958 110.196 87.4633 98.5802 88.1258 97.1669C89.4287 94.3402 93.0062 92.7502 96.9592 92.7502H101.376" stroke="#767676" stroke-width="4" stroke-miterlimit="10" stroke-linecap="round" stroke-linejoin="round"/>
<path d="M119.042 103.792L123.458 112.625C123.458 112.625 115.265 120.73 114.625 121.459C115.597 123.071 117.385 125.875 121.25 125.875C122.42 125.875 126.837 123.601 130.083 121.459C135.317 118.014 135.781 116.578 134.5 112.625C133.705 110.196 128.538 98.5802 127.875 97.1669C126.572 94.3402 122.995 92.7502 119.042 92.7502H114.625" stroke="#767676" stroke-width="4" stroke-miterlimit="10" stroke-linecap="round" stroke-linejoin="round"/>
<path d="M96.959 117.042H119.042" stroke="#767676" stroke-width="4" stroke-miterlimit="10" stroke-linejoin="round"/>
<path d="M110.21 147.958H105.793" stroke="#767676" stroke-width="3" stroke-miterlimit="10" stroke-linecap="round" stroke-linejoin="round"/>
<path d="M66.043 147.958H70.4596" stroke="#767676" stroke-width="3" stroke-miterlimit="10" stroke-linecap="round" stroke-linejoin="round"/>
<path d="M92.543 147.958H96.9596" stroke="#767676" stroke-width="3" stroke-miterlimit="10" stroke-linecap="round" stroke-linejoin="round"/>
<path d="M79.293 147.958H83.7096" stroke="#767676" stroke-width="3" stroke-miterlimit="10" stroke-linecap="round" stroke-linejoin="round"/>
<path d="M149.96 147.958H145.543" stroke="#767676" stroke-width="3" stroke-miterlimit="10" stroke-linecap="round" stroke-linejoin="round"/>
<path d="M132.293 147.958H136.71" stroke="#767676" stroke-width="3" stroke-miterlimit="10" stroke-linecap="round" stroke-linejoin="round"/>
<path d="M119.043 147.958H123.46" stroke="#767676" stroke-width="3" stroke-miterlimit="10" stroke-linecap="round" stroke-linejoin="round"/>
<path d="M81 117.042H72.6662C68.382 117.042 67.5649 120.001 66.0412 123.667L57.8262 144.734" stroke="#767676" stroke-width="4" stroke-miterlimit="10" stroke-linecap="round" stroke-linejoin="round"/>
<path d="M135.5 117.042H143.335C147.619 117.042 148.436 120.001 149.96 123.667L158.175 144.734" stroke="#767676" stroke-width="4" stroke-miterlimit="10" stroke-linecap="round" stroke-linejoin="round"/>
<path d="M108.001 139.125H149.959C154.839 139.125 158.792 143.078 158.792 147.958C158.792 152.839 154.839 156.792 149.959 156.792H108.001H66.0423C61.1619 156.792 57.209 152.839 57.209 147.958C57.209 143.078 61.1619 139.125 66.0423 139.125H108.001Z" stroke="#767676" stroke-width="4" stroke-miterlimit="10" stroke-linejoin="round"/>
<path d="M56.1141 203.763L1.73402 110L56.1141 16.2372L164.886 16.2372L219.266 110L164.886 203.763L56.1141 203.763Z" stroke="#CACACA" stroke-width="3"/>
</svg>
