<svg width="221" height="220" viewBox="0 0 221 220" fill="none" xmlns="http://www.w3.org/2000/svg">
<path d="M67.5527 155.561V150.699L72.4959 99.6541H92.2684L97.2115 150.699V155.561" stroke="#767676" stroke-width="4" stroke-miterlimit="10"/>
<path d="M99.6816 121.531L109.276 112.095C109.463 111.911 109.715 111.808 109.977 111.808H115.983C116.535 111.808 116.983 112.255 116.983 112.808V126.392" stroke="#767676" stroke-width="4" stroke-miterlimit="10" stroke-linecap="round"/>
<path d="M121.926 121.531L131.52 112.095C131.707 111.911 131.959 111.808 132.221 111.808H138.227C138.779 111.808 139.227 112.255 139.227 112.808V126.392" stroke="#767676" stroke-width="4" stroke-miterlimit="10" stroke-linecap="round"/>
<path d="M144.675 155.671H57.666" stroke="#767676" stroke-width="4" stroke-miterlimit="10" stroke-linecap="round"/>
<path d="M107.098 140.976H112.041" stroke="#767676" stroke-width="3" stroke-miterlimit="10" stroke-linecap="round"/>
<path d="M119.457 140.976H124.4" stroke="#767676" stroke-width="3" stroke-miterlimit="10" stroke-linecap="round"/>
<path d="M131.812 140.976H136.756" stroke="#767676" stroke-width="3" stroke-miterlimit="10" stroke-linecap="round"/>
<path d="M95.68 82.5901C96.4462 83.611 96.9158 84.875 96.9158 86.2362C96.9158 89.1774 94.7902 91.6324 91.9727 92.1915" stroke="#767676" stroke-width="4" stroke-miterlimit="10" stroke-linecap="round"/>
<path d="M114.264 75.3467C114.437 76.1245 114.511 76.9267 114.511 77.7288C114.511 84.4376 108.975 89.8825 102.154 89.8825C100.201 89.8825 98.3474 89.4449 96.6914 88.6428" stroke="#767676" stroke-width="4" stroke-miterlimit="10" stroke-linecap="round"/>
<path d="M147.802 84.3161C143.946 87.0142 138.731 88.6671 133.022 88.6671C125.311 88.6671 118.539 85.653 114.732 81.1318" stroke="#767676" stroke-width="4" stroke-miterlimit="10" stroke-linecap="round"/>
<path d="M77.4375 75.4681C77.4375 66.7418 85.3365 59.9614 94.2094 59.9614C97.8921 59.9614 98.2699 62.2448 103.49 62.2817C108.711 62.3186 119.948 54.9042 134.358 62.245C142.539 66.4258 147.259 73.5479 163.942 69.3913" stroke="#767676" stroke-width="4" stroke-miterlimit="10" stroke-linecap="round"/>
<path d="M75.8574 92.3618C73.7813 90.5874 72.4961 87.9865 72.4961 85.0696C72.4961 79.6977 76.9202 75.3467 82.3824 75.3467C83.2474 75.3467 84.063 75.4439 84.8539 75.6627" stroke="#767676" stroke-width="4" stroke-miterlimit="10" stroke-linecap="round"/>
<circle cx="152" cy="139" r="22.5" fill="white" stroke="#767676" stroke-width="3"/>
<path d="M152.176 147V140.73L149.118 145.944H147.336L144.366 140.642V147H140.604V135.076H145.004L148.326 141.302L151.978 135.076H155.916L155.938 147H152.176ZM166.041 137.628V139.806H158.187V138.068L161.839 134.922C162.205 134.614 162.455 134.357 162.587 134.152C162.719 133.932 162.785 133.727 162.785 133.536C162.785 133.287 162.682 133.089 162.477 132.942C162.271 132.781 161.956 132.7 161.531 132.7C161.135 132.7 160.783 132.781 160.475 132.942C160.181 133.089 159.947 133.309 159.771 133.602L157.637 132.458C157.989 131.842 158.517 131.358 159.221 131.006C159.925 130.654 160.783 130.478 161.795 130.478C162.983 130.478 163.936 130.742 164.655 131.27C165.373 131.783 165.733 132.465 165.733 133.316C165.733 133.785 165.608 134.233 165.359 134.658C165.109 135.083 164.647 135.597 163.973 136.198L162.301 137.628H166.041Z" fill="#767676"/>
<path d="M56.1141 203.763L1.73402 110L56.1141 16.2372L164.886 16.2372L219.266 110L164.886 203.763L56.1141 203.763Z" stroke="#CACACA" stroke-width="3"/>
</svg>
