<svg width="221" height="220" viewBox="0 0 221 220" fill="none" xmlns="http://www.w3.org/2000/svg">
<path d="M56.4021 203.263L2.31202 110L56.4021 16.7372L164.598 16.7372L218.688 110L164.598 203.263L56.4021 203.263Z" stroke="#767676" stroke-width="4"/>
<path d="M145.391 105.861H72.8435C71.7602 105.861 70.8828 106.738 70.8828 107.822V125.468C70.8828 126.551 71.7602 127.429 72.8435 127.429H145.391C146.474 127.429 147.351 126.551 147.351 125.468V107.822C147.351 106.738 146.474 105.861 145.391 105.861Z" stroke="#767676" stroke-width="5" stroke-miterlimit="10" stroke-linecap="square" stroke-linejoin="round"/>
<path d="M84.6055 117.625V127.428" stroke="#767676" stroke-width="5" stroke-miterlimit="10" stroke-linecap="round" stroke-linejoin="round"/>
<path d="M100.293 117.625V127.428" stroke="#767676" stroke-width="5" stroke-miterlimit="10" stroke-linecap="round" stroke-linejoin="round"/>
<path d="M115.98 117.625V127.428" stroke="#767676" stroke-width="5" stroke-miterlimit="10" stroke-linecap="round" stroke-linejoin="round"/>
<path d="M139.508 148.996H66.9607C65.8774 148.996 65 149.873 65 150.956V168.603C65 169.686 65.8774 170.564 66.9607 170.564H139.508C140.591 170.564 141.468 169.686 141.468 168.603V150.956C141.468 149.873 140.591 148.996 139.508 148.996Z" stroke="#767676" stroke-width="5" stroke-miterlimit="10" stroke-linecap="square" stroke-linejoin="round"/>
<path d="M78.7227 160.761V170.565" stroke="#767676" stroke-width="5" stroke-miterlimit="10" stroke-linecap="round" stroke-linejoin="round"/>
<path d="M94.4102 160.761V170.565" stroke="#767676" stroke-width="5" stroke-miterlimit="10" stroke-linecap="round" stroke-linejoin="round"/>
<path d="M110.098 160.761V170.565" stroke="#767676" stroke-width="5" stroke-miterlimit="10" stroke-linecap="round" stroke-linejoin="round"/>
<path d="M153.231 127.427H82.6443C81.561 127.427 80.6836 128.305 80.6836 129.388V147.035C80.6836 148.118 81.561 148.995 82.6443 148.995H153.231C154.314 148.995 155.191 148.118 155.191 147.035V129.388C155.191 128.305 154.314 127.427 153.231 127.427Z" stroke="#767676" stroke-width="5" stroke-miterlimit="10" stroke-linecap="square" stroke-linejoin="round"/>
<path d="M92.4531 139.193V148.997" stroke="#767676" stroke-width="5" stroke-miterlimit="10" stroke-linecap="round" stroke-linejoin="round"/>
<path d="M108.137 139.193V148.997" stroke="#767676" stroke-width="5" stroke-miterlimit="10" stroke-linecap="round" stroke-linejoin="round"/>
<path d="M123.82 139.193V148.997" stroke="#767676" stroke-width="5" stroke-miterlimit="10" stroke-linecap="round" stroke-linejoin="round"/>
<path d="M106.75 92.3211C136.568 91.8064 135.587 60.7631 135.587 60.7631C135.587 60.7631 123.823 58.8024 115.98 62.7239" stroke="#767676" stroke-width="5" stroke-miterlimit="10" stroke-linecap="round" stroke-linejoin="round"/>
<path d="M104.215 86.2534C115.2 53.2984 81.471 60.2982 74.8046 48.9995C74.4614 50.9995 59.1089 90.616 94.4118 92.1356" stroke="#767676" stroke-width="5" stroke-miterlimit="10" stroke-linecap="round" stroke-linejoin="round"/>
<path d="M90.4922 72.5288C90.4922 72.5288 110.099 82.3325 108.139 105.861" stroke="#767676" stroke-width="5" stroke-miterlimit="10" stroke-linecap="round" stroke-linejoin="round"/>
</svg>
