<svg width="221" height="220" viewBox="0 0 221 220" fill="none" xmlns="http://www.w3.org/2000/svg">
<path d="M56.4021 203.263L2.31202 110L56.4021 16.7372L164.598 16.7372L218.688 110L164.598 203.263L56.4021 203.263Z" stroke="#767676" stroke-width="4"/>
<path d="M94.3065 73.8704C77.4161 73.8704 63.5968 87.6897 63.5968 104.58V146.806C58.3185 146.806 54 151.124 54 156.403C54 161.681 58.3185 165.999 63.5968 165.999H107.742" stroke="#767676" stroke-width="5" stroke-miterlimit="10" stroke-linecap="round" stroke-linejoin="round"/>
<path d="M137.905 98.8227C135.194 84.6579 122.665 73.8711 107.742 73.8711" stroke="#767676" stroke-width="5" stroke-miterlimit="10" stroke-linecap="round" stroke-linejoin="round"/>
<path d="M94.3049 73.8718H92.3856C90.2743 73.8718 88.5469 72.1443 88.5469 70.033C88.5469 67.9218 90.2743 66.1943 92.3856 66.1943H109.66C111.771 66.1943 113.498 67.9218 113.498 70.033C113.498 72.1443 111.771 73.8718 109.66 73.8718H107.74" stroke="#767676" stroke-width="5" stroke-miterlimit="10" stroke-linecap="round" stroke-linejoin="round"/>
<path d="M107.739 66.1936H94.3038C89.0256 66.1936 84.707 61.875 84.707 56.5968C84.707 51.3185 89.0256 47 94.3038 47C101.981 52.7581 107.739 47 107.739 47C113.018 47 117.336 51.3185 117.336 56.5968C117.336 61.875 113.018 66.1936 107.739 66.1936Z" stroke="#767676" stroke-width="5" stroke-miterlimit="10" stroke-linecap="round" stroke-linejoin="round"/>
<path d="M90.4648 131.45C93.3439 137.208 99.1019 137.208 99.1019 137.208H104.86C109.61 137.208 113.497 133.321 113.497 128.571C113.497 123.82 109.61 119.934 104.86 119.934H99.1019C94.3515 119.934 90.4648 116.047 90.4648 111.297C90.4648 106.546 94.3515 102.659 99.1019 102.659H104.86C104.86 102.659 110.618 102.659 113.497 108.417" stroke="#767676" stroke-width="5" stroke-miterlimit="10" stroke-linecap="round" stroke-linejoin="round"/>
<path d="M101.98 96.9023V102.66" stroke="#767676" stroke-width="5" stroke-miterlimit="10" stroke-linecap="round" stroke-linejoin="round"/>
<path d="M101.98 137.207V142.965" stroke="#767676" stroke-width="5" stroke-miterlimit="10" stroke-linecap="round" stroke-linejoin="round"/>
<path d="M124.057 166H160.525C161.053 166 161.485 165.568 161.485 165.041V153.524C161.485 152.997 161.053 152.565 160.525 152.565H124.057C123.53 152.565 123.098 152.997 123.098 153.524V165.041C123.098 165.568 123.53 166 124.057 166Z" stroke="#767676" stroke-width="5" stroke-miterlimit="10" stroke-linecap="round" stroke-linejoin="round"/>
<path d="M127.893 152.564H164.361C164.889 152.564 165.321 152.133 165.321 151.605V140.089C165.321 139.561 164.889 139.129 164.361 139.129H127.893C127.365 139.129 126.934 139.561 126.934 140.089V151.605C126.934 152.133 127.365 152.564 127.893 152.564Z" stroke="#767676" stroke-width="5" stroke-miterlimit="10" stroke-linecap="round" stroke-linejoin="round"/>
<path d="M135.569 139.131H172.037C172.565 139.131 172.996 138.699 172.996 138.171V126.655C172.996 126.127 172.565 125.695 172.037 125.695H135.569C135.041 125.695 134.609 126.127 134.609 126.655V138.171C134.609 138.699 135.041 139.131 135.569 139.131Z" stroke="#767676" stroke-width="5" stroke-miterlimit="10" stroke-linecap="round" stroke-linejoin="round"/>
<path d="M131.733 125.693H168.201C168.729 125.693 169.161 125.261 169.161 124.733V113.217C169.161 112.689 168.729 112.257 168.201 112.257H131.733C131.205 112.257 130.773 112.689 130.773 113.217V124.733C130.773 125.261 131.205 125.693 131.733 125.693Z" stroke="#767676" stroke-width="5" stroke-miterlimit="10" stroke-linecap="round" stroke-linejoin="round"/>
</svg>
