<svg width="221" height="220" viewBox="0 0 221 220" fill="none" xmlns="http://www.w3.org/2000/svg">
<path d="M56.4021 203.263L2.31202 110L56.4021 16.7372L164.598 16.7372L218.688 110L164.598 203.263L56.4021 203.263Z" stroke="#767676" stroke-width="4"/>
<path d="M92 123C92 127.428 84.8283 131 76 131C67.1717 131 60 127.409 60 123C60 118.572 67.1717 115 76 115C84.8477 115 92 118.572 92 123Z" stroke="#767676" stroke-width="5" stroke-miterlimit="10" stroke-linecap="round" stroke-linejoin="round"/>
<path d="M122 89.5C122 94.2043 115.276 98 107 98C98.7052 98 92 94.1841 92 89.5C92 84.7957 98.7235 81 107 81C115.295 81 122 84.7957 122 89.5Z" stroke="#767676" stroke-width="5" stroke-miterlimit="10" stroke-linecap="round" stroke-linejoin="round"/>
<path d="M92 90V106" stroke="#767676" stroke-width="5" stroke-miterlimit="10" stroke-linecap="round" stroke-linejoin="round"/>
<path d="M122 91V156.168C122 160.503 115.285 164 107.018 164C98.7336 164 92 160.484 92 156.168" stroke="#767676" stroke-width="5" stroke-miterlimit="10" stroke-linecap="round" stroke-linejoin="round"/>
<path d="M92 122.323V156.006C92 160.43 84.8283 164 76 164C67.1717 164 60 160.411 60 156.006V122" stroke="#767676" stroke-width="5" stroke-miterlimit="10" stroke-linecap="round" stroke-linejoin="round"/>
<path d="M153 55.5C153 59.6508 146.052 63 137.5 63C128.929 63 122 59.633 122 55.5C122 51.3492 128.948 48 137.5 48C146.052 48 153 51.367 153 55.5Z" stroke="#767676" stroke-width="5" stroke-miterlimit="10" stroke-linecap="round" stroke-linejoin="round"/>
<path d="M122 56V73" stroke="#767676" stroke-width="5" stroke-miterlimit="10" stroke-linecap="round" stroke-linejoin="round"/>
<path d="M153 56L152.981 156.093C152.981 160.469 146.046 164 137.509 164C128.954 164 122 160.45 122 156.093" stroke="#767676" stroke-width="5" stroke-miterlimit="10" stroke-linecap="round" stroke-linejoin="round"/>
</svg>
