<svg width="248" height="79" viewBox="0 0 248 79" fill="none" xmlns="http://www.w3.org/2000/svg">
<path d="M39.1738 11.7473C38.8028 11.7473 38.4319 11.7473 38.061 11.6555C31.2911 10.829 27.025 2.65633 26.8395 2.28902C26.6541 1.82988 26.7469 1.27891 27.2106 1.09526C27.6743 0.819772 28.2306 1.00343 28.4161 1.46257C28.4161 1.55439 32.404 9.17611 38.2465 9.81891C41.2141 10.1862 44.3672 8.62514 47.3348 5.13568C47.613 4.76837 50.3951 1.46257 54.1047 1.73805C56.7013 1.92171 59.0198 3.94192 61.0601 7.61504C61.3383 8.07418 61.1529 8.62514 60.6892 8.90063C60.2255 9.17611 59.669 8.99246 59.4835 8.53332C57.8142 5.503 55.9595 3.85009 54.012 3.66644C51.1371 3.39095 48.8187 6.32945 48.8187 6.32945C45.6655 9.91074 42.4196 11.7473 39.1738 11.7473Z" fill="white"/>
<path d="M3.37014 78.5136C3.09182 78.5136 2.90625 78.3299 2.90625 78.0544V71.9938C2.90625 71.7183 3.09182 71.5347 3.37014 71.5347C3.64845 71.5347 3.83403 71.7183 3.83403 71.9938V78.0544C3.83403 78.3299 3.64845 78.5136 3.37014 78.5136Z" fill="white"/>
<path d="M16.2601 67.7698C18.5137 67.7698 20.3406 65.9609 20.3406 63.7294C20.3406 61.4979 18.5137 59.689 16.2601 59.689C14.0066 59.689 12.1797 61.4979 12.1797 63.7294C12.1797 65.9609 14.0066 67.7698 16.2601 67.7698Z" fill="white"/>
<path d="M16.257 68.4106C13.6603 68.4106 11.5273 66.2986 11.5273 63.7274C11.5273 61.1562 13.6603 59.0442 16.257 59.0442C18.8537 59.0442 20.9867 61.1562 20.9867 63.7274C20.9867 66.2986 18.9464 68.4106 16.257 68.4106ZM16.257 60.4216C14.4022 60.4216 12.9184 61.8909 12.9184 63.7274C12.9184 65.564 14.4022 67.0332 16.257 67.0332C18.1117 67.0332 19.5956 65.564 19.5956 63.7274C19.6883 61.8909 18.1117 60.4216 16.257 60.4216Z" fill="white"/>
<path d="M16.2742 78.5089C15.9032 78.5089 15.625 78.2334 15.625 77.8661V67.8569C15.625 67.4896 15.9032 67.2141 16.2742 67.2141C16.6452 67.2141 16.9235 67.4896 16.9235 67.8569V77.8661C17.0163 78.1416 16.738 78.5089 16.2742 78.5089Z" fill="white"/>
<path d="M3.37206 71.8959C4.90861 71.8959 6.15427 70.6625 6.15427 69.1411C6.15427 67.6196 4.90861 66.3862 3.37206 66.3862C1.8355 66.3862 0.589844 67.6196 0.589844 69.1411C0.589844 70.6625 1.8355 71.8959 3.37206 71.8959Z" fill="white"/>
<path d="M3.36297 72.4468C1.60093 72.4468 0.117188 70.9775 0.117188 69.2328C0.117188 67.3962 1.60093 66.0188 3.36297 66.0188C5.12501 66.0188 6.6089 67.488 6.6089 69.2328C6.6089 70.9775 5.12501 72.4468 3.36297 72.4468ZM3.36297 66.8453C2.06462 66.8453 1.04449 67.8554 1.04449 69.141C1.04449 70.4265 2.06462 71.4367 3.36297 71.4367C4.66132 71.4367 5.68145 70.4265 5.68145 69.141C5.68145 67.8554 4.66132 66.8453 3.36297 66.8453Z" fill="white"/>
<path d="M231.597 78.5128C231.318 78.5128 231.133 78.3292 231.133 78.0537V71.9931C231.133 71.7176 231.318 71.5339 231.597 71.5339C231.875 71.5339 232.06 71.7176 232.06 71.9931V78.0537C232.06 78.3292 231.875 78.5128 231.597 78.5128Z" fill="white"/>
<path d="M244.377 67.7718C246.067 67.7718 247.437 66.0862 247.437 64.0069C247.437 61.9276 246.067 60.2419 244.377 60.2419C242.687 60.2419 241.316 61.9276 241.316 64.0069C241.316 66.0862 242.687 67.7718 244.377 67.7718Z" fill="white"/>
<path d="M244.382 68.4117C242.435 68.4117 240.766 66.4833 240.766 64.0039C240.766 61.5246 242.342 59.5962 244.382 59.5962C246.423 59.5962 247.999 61.5246 247.999 64.0039C247.999 66.4833 246.423 68.4117 244.382 68.4117ZM244.382 60.9736C242.991 60.9736 241.878 62.351 241.878 64.0958C241.878 65.8405 242.991 67.2179 244.382 67.2179C245.773 67.2179 246.886 65.8405 246.886 64.0958C246.886 62.351 245.773 60.9736 244.382 60.9736Z" fill="white"/>
<path d="M244.571 78.5141C244.2 78.5141 243.922 78.2386 243.922 77.8713V67.862C243.922 67.4947 244.2 67.2192 244.571 67.2192C244.942 67.2192 245.221 67.4947 245.221 67.862V77.8713C245.221 78.1468 244.942 78.5141 244.571 78.5141Z" fill="white"/>
<path d="M231.595 71.9069C233.131 71.9069 234.377 70.6735 234.377 69.1521C234.377 67.6306 233.131 66.3972 231.595 66.3972C230.058 66.3972 228.812 67.6306 228.812 69.1521C228.812 70.6735 230.058 71.9069 231.595 71.9069Z" fill="white"/>
<path d="M231.586 72.4577C229.824 72.4577 228.34 70.9885 228.34 69.2438C228.34 67.4072 229.824 66.0298 231.586 66.0298C233.348 66.0298 234.832 67.499 234.832 69.2438C234.924 70.9885 233.44 72.4577 231.586 72.4577ZM231.586 66.8562C230.287 66.8562 229.267 67.8663 229.267 69.1519C229.267 70.4375 230.287 71.4476 231.586 71.4476C232.884 71.4476 233.904 70.4375 233.904 69.1519C233.997 67.8663 232.884 66.8562 231.586 66.8562Z" fill="white"/>
<path d="M221.034 69.9729C221.034 56.2905 221.034 42.5163 221.034 28.834C221.034 24.518 219.642 24.2426 213.243 24.7017C208.143 24.6099 203.135 24.6099 198.034 24.518C192.934 24.3344 187.926 25.4363 182.825 25.2527C180.692 25.1608 178.374 24.6099 176.983 22.957C176.333 22.2224 175.962 21.3041 175.592 20.3858L167.338 5.50968C166.689 4.40774 165.483 3.67312 164.185 3.67312C158.064 3.67312 140.536 3.76494 137.198 3.67312C134.323 3.58129 133.21 4.40774 132.839 4.95871C132.19 6.70344 130.706 9.82559 130.428 10.2847C127.274 16.1617 124.4 21.9469 121.803 28.0075C121.247 29.4768 119.021 29.0176 119.021 27.4565C118.928 19.6512 118.928 11.8458 118.928 4.04043C118.928 1.83656 117.073 0 114.848 0C102.235 0 89.5299 0 76.9174 0C74.5989 0 72.7442 1.83656 72.7442 4.13226C72.7442 8.63182 72.7442 13.1314 72.7442 17.631C71.7241 16.529 70.6112 15.9781 69.4056 15.7944C68.9419 15.7944 68.2927 15.7026 67.458 15.7026C67.0871 15.7026 66.6234 15.7944 66.3452 15.7026C65.0468 15.7026 63.3775 15.6107 61.7082 15.6107C61.5228 15.7026 61.2445 15.7026 61.059 15.7026C58.8333 15.7026 56.5148 15.7026 54.2891 15.8862C52.2489 15.8862 50.3013 15.8862 48.261 15.8862C46.8699 16.0699 45.7571 17.08 45.2934 18.3656C39.0799 35.9965 31.3826 53.0765 25.2618 70.7993L22.7578 77.5946H31.1044C90.4573 77.5946 149.717 77.5946 209.07 77.5946V78.5129H220.941V69.9729H221.034Z" fill="#E0E0E0"/>
<path d="M130.066 17.9077C131.921 14.6019 133.868 11.2043 135.723 7.89844C136.279 6.88834 136.929 6.4292 138.134 6.4292C146.388 6.4292 154.549 6.4292 162.803 6.4292C164.008 6.4292 164.657 6.79651 165.214 7.89844C167.069 11.3879 169.016 14.8774 171.056 18.275C171.891 19.6524 171.427 19.8361 170.129 19.8361C163.545 19.8361 157.053 19.8361 150.468 19.8361C144.069 19.8361 137.578 19.8361 131.179 19.8361C129.046 19.7442 129.046 19.7442 130.066 17.9077Z" fill="#37A351"/>
<path d="M44.2764 30.7611C45.2966 27.639 47.244 22.5885 48.2641 20.6601C48.7278 19.8336 49.377 19.4663 50.3044 19.4663C56.6107 19.4663 62.0824 19.4663 68.3887 19.4663C69.5016 19.4663 70.2435 19.9254 70.7072 20.8437C71.7273 22.7721 74.0458 31.0366 74.0458 31.0366C74.0458 31.0366 74.324 32.5059 73.1184 32.5059C68.4814 32.5059 63.7517 32.5059 59.1148 32.5059C54.4778 32.5059 49.9335 32.5059 45.2966 32.5059C43.9055 32.5059 43.72 32.3222 44.2764 30.7611Z" fill="#37A351"/>
<path d="M88.5175 74.1969C78.5945 74.1969 68.7642 74.1969 58.9339 74.1969C49.1036 74.1969 39.2732 74.1969 29.4429 74.1969C27.9591 74.1969 27.4954 73.9214 28.0519 72.3604C32.4106 60.5145 36.6765 48.6687 41.0352 36.8229C41.3134 35.9965 41.8699 35.5374 42.7973 35.5374C53.555 35.5374 64.4054 35.5374 75.1631 35.5374C76.276 35.5374 76.7396 36.0883 77.1106 37.0066C80.7274 46.924 84.3443 56.8414 87.9611 66.667C88.6103 68.4118 89.2594 70.2483 89.9085 71.993C90.6505 74.1051 90.6505 74.1969 88.5175 74.1969Z" fill="#37A351"/>
<path d="M90.3499 64.0979L88.5879 58.3128L88.4023 57.7618C88.4023 56.9353 89.1442 57.2108 89.7007 57.2108C95.9141 57.2108 102.128 57.2108 108.248 57.2108C109.639 57.2108 110.103 57.8536 110.01 59.1392C110.01 60.0575 109.732 60.9758 109.361 61.8022C108.898 63.3633 108.434 64.1897 108.434 64.1897H90.3499V64.0979Z" fill="#37A351"/>
<path d="M217.887 72.084C217.887 73.8288 217.331 74.3797 215.661 74.2879C213.899 74.1961 212.137 74.1961 210.375 74.2879C208.891 74.3797 208.428 73.7369 208.52 72.3595C208.613 69.6047 208.52 66.8498 208.52 64.095C208.52 61.3402 207.407 60.2382 204.625 60.0546C203.791 59.9627 203.049 59.9627 202.214 59.9627C182.368 59.9627 162.615 59.9627 142.769 59.9627C137.39 59.9627 136.833 60.5137 136.833 65.7479C136.833 68.0436 136.741 70.2475 136.741 72.5432C136.741 73.7369 136.184 74.2879 134.886 74.1961C128.116 74.0124 129.321 75.2062 129.229 68.87C129.136 56.0141 129.229 43.1582 129.229 30.3023C129.229 27.9148 129.229 27.9148 131.733 27.9148C145.736 27.9148 159.74 27.9148 173.651 27.9148C187.561 27.9148 201.472 27.9148 215.383 27.9148C217.238 27.9148 217.794 28.3739 217.794 30.3023C217.794 44.1683 217.794 58.1262 217.887 72.084Z" fill="#37A351"/>
<path d="M85.0739 30.7624C89.5253 30.7624 89.8037 30.4869 89.2472 25.9873C89.1545 24.9772 88.6907 24.4263 87.6705 24.4263C85.9085 24.4263 84.1465 24.4263 82.3845 24.4263C81.1789 24.4263 80.7151 24.9772 80.7151 26.0792C80.6224 31.6807 80.4369 30.7624 85.0739 30.7624Z" fill="#37A351"/>
<path d="M95.0073 24.4263C94.5436 24.4263 93.6162 24.4263 92.5961 24.4263C92.0396 24.4263 91.3904 24.4263 91.3904 25.1609C91.3904 26.722 91.2976 28.283 91.4831 29.8441C91.5758 30.5787 92.2251 30.6706 92.8743 30.6706C94.7291 30.6706 96.5839 30.6706 98.3459 30.6706C99.4588 30.6706 99.9225 30.2114 99.9225 29.1095C99.9225 23.508 100.386 24.6099 95.0073 24.4263Z" fill="#37A351"/>
<path d="M106.14 30.8486C106.232 30.8486 106.232 30.8486 106.325 30.8486C107.253 30.8486 108.273 30.8486 109.293 30.8486C110.591 30.8486 110.777 29.8385 110.591 28.9202C110.313 27.451 111.519 25.6144 109.664 24.5125C109.571 24.4206 109.386 24.4206 109.293 24.5125C107.345 24.5125 105.398 24.6043 103.45 24.6043C102.616 24.6043 102.337 25.0634 102.152 25.7981C101.225 29.8385 101.966 30.7568 106.14 30.8486Z" fill="#37A351"/>
<path d="M95.6637 15.7009C90.8412 15.7927 91.305 14.7826 91.305 20.4759C91.305 21.5779 91.7687 22.037 92.8816 22.037C94.5509 22.037 96.3128 21.9452 97.9821 22.037C99.3732 22.1288 99.9297 21.486 99.9297 20.1086C99.837 15.0581 100.393 15.7927 95.6637 15.7009Z" fill="#37A351"/>
<path d="M98.3338 33.2401C96.6645 33.2401 94.9025 33.3319 93.2332 33.2401C91.7494 33.1483 91.2858 33.8829 91.3785 35.1685C91.4713 40.1272 90.9148 39.4844 95.6443 39.5762C100.467 39.4844 100.003 40.4027 100.003 34.8012C99.9102 33.6993 99.3539 33.2401 98.3338 33.2401Z" fill="#37A351"/>
<path d="M95.4661 13.2177C96.4863 13.2177 97.4136 13.2177 98.4337 13.2177C99.3611 13.2177 100.01 12.7586 99.8248 11.7485C99.5466 10.1874 100.845 8.16719 98.8974 6.97343C98.6192 6.78977 98.1555 6.8816 97.7846 6.8816C96.3008 6.8816 94.817 6.97343 93.4259 6.8816C91.8494 6.78977 91.293 7.43257 91.293 8.99364C91.3857 13.7687 90.8293 13.2177 95.4661 13.2177Z" fill="#37A351"/>
<path d="M82.3913 13.2249C84.0606 13.2249 85.7299 13.1331 87.3065 13.2249C88.7903 13.3168 89.254 12.674 89.254 11.2965C89.1613 6.33784 89.7177 6.98063 84.988 6.8888C80.3511 6.98063 80.6292 5.87869 80.722 11.572C80.722 12.674 81.1857 13.2249 82.3913 13.2249Z" fill="#37A351"/>
<path d="M85.0685 15.7043C80.5244 15.7961 80.6171 14.6942 80.7098 20.2957C80.7098 20.3875 80.7098 20.3875 80.7098 20.4794C80.7098 21.5813 81.2664 22.0404 82.2865 21.9486C83.863 21.9486 85.4395 21.8568 87.0161 21.9486C88.5926 22.0404 89.2418 21.4895 89.149 19.8366C89.149 15.1533 89.6127 15.7961 85.0685 15.7043Z" fill="#37A351"/>
<path d="M92.3194 48.2094C92.4121 48.3012 92.5977 48.2094 92.6904 48.2094C94.5452 48.2094 96.3999 48.2094 98.162 48.3012C99.3676 48.3012 99.9241 47.7503 99.9241 46.5565C99.9241 41.2305 100.295 42.1487 95.658 42.0569C94.6379 42.0569 93.7105 42.0569 92.6904 42.0569C91.4848 42.0569 91.2066 42.8834 91.3921 43.8017C91.6703 45.2709 90.3718 47.0156 92.3194 48.2094Z" fill="#37A351"/>
<path d="M103.719 39.4862C105.389 39.8536 107.151 39.4862 108.82 39.5781C110.118 39.5781 110.675 39.0271 110.675 37.7415C110.582 32.5991 111.138 33.3338 106.409 33.2419C105.574 33.2419 104.74 33.2419 103.812 33.2419C102.792 33.2419 101.865 33.6093 102.236 34.6194C102.885 36.2723 100.659 38.8434 103.719 39.4862Z" fill="#37A351"/>
<path d="M103.627 13.1288C105.296 13.4961 107.058 13.1288 108.728 13.2207C110.119 13.3125 110.675 12.6697 110.675 11.2923C110.582 6.33357 111.139 6.97636 106.502 6.88453C105.575 6.88453 104.647 6.97636 103.72 6.88453C102.329 6.79271 102.05 7.71098 102.329 8.62926C102.792 10.1903 100.752 12.5779 103.627 13.1288Z" fill="#37A351"/>
<path d="M104.165 22.0378C105.649 21.946 107.133 21.946 108.524 22.0378C110.1 22.1296 110.564 21.4868 110.564 20.0176C110.471 15.1507 111.028 15.7935 106.391 15.7017C101.383 15.7935 102.31 15.0589 102.125 19.9257C102.125 21.395 102.681 22.1296 104.165 22.0378Z" fill="#37A351"/>
<path d="M108.634 41.9689C107.242 41.9689 105.851 42.0608 104.46 41.9689C102.605 41.8771 102.234 42.6117 102.234 44.2646C102.234 48.3051 102.234 48.3051 106.315 48.3051C107.242 48.3051 108.263 48.3051 109.283 48.3051C110.21 48.3051 110.767 47.7541 110.674 46.8358C110.396 45.2747 111.601 43.4382 109.746 42.2444C109.375 41.8771 108.912 41.9689 108.634 41.9689Z" fill="#37A351"/>
<path d="M156.488 48.5764C154.077 48.6682 151.758 48.5764 149.347 48.5764C146.843 48.5764 144.339 48.6682 141.835 48.5764C140.166 48.5764 139.98 49.4947 139.98 50.7803C139.98 52.0659 140.166 52.9842 141.835 52.9842C146.75 52.8923 151.666 52.9842 156.488 52.9842C158.157 52.9842 158.343 52.0659 158.343 50.7803C158.343 49.4947 158.157 48.5764 156.488 48.5764Z" fill="#E0E0E0"/>
<path d="M180.039 48.5764C177.627 48.6682 175.124 48.5764 172.712 48.5764C170.301 48.5764 167.797 48.5764 165.386 48.5764C163.717 48.5764 163.531 49.4947 163.531 50.7803C163.531 52.0659 163.717 52.9842 165.386 52.9842C170.301 52.9842 175.216 52.8923 180.131 52.9842C181.801 52.9842 181.986 52.0659 181.986 50.7803C181.894 49.4947 181.708 48.5764 180.039 48.5764Z" fill="#E0E0E0"/>
<path d="M203.875 48.5764C201.463 48.6682 198.959 48.5764 196.548 48.5764C194.137 48.5764 191.633 48.6682 189.222 48.5764C187.738 48.5764 187.367 49.311 187.367 50.5966C187.367 51.8822 187.367 53.076 189.222 52.9842C194.137 52.9842 198.959 52.9842 203.875 52.9842C205.637 52.9842 205.544 51.8822 205.544 50.6885C205.636 49.4947 205.451 48.5764 203.875 48.5764Z" fill="#E0E0E0"/>
<path d="M149.167 41.4158C151.671 41.4158 154.175 41.4158 156.679 41.4158C158.163 41.4158 158.348 40.5893 158.348 39.3956C158.348 38.2936 158.441 37.0999 156.772 37.0999C151.671 37.0999 146.571 37.0999 141.563 37.0999C139.801 37.0999 139.986 38.2936 139.986 39.3956C139.986 40.5893 140.171 41.4158 141.655 41.4158C144.159 41.4158 146.663 41.4158 149.167 41.4158Z" fill="#E0E0E0"/>
<path d="M180.131 37.1875C175.124 37.2793 170.208 37.2793 165.293 37.1875C163.717 37.1875 163.531 38.014 163.531 39.2995C163.531 40.5851 163.717 41.5034 165.386 41.5034C167.797 41.4116 170.301 41.5034 172.712 41.5034C175.124 41.5034 177.628 41.4116 180.039 41.5034C181.708 41.5952 181.894 40.5851 181.894 39.2995C181.894 38.014 181.708 37.1875 180.131 37.1875Z" fill="#E0E0E0"/>
<path d="M203.874 37.1875C198.959 37.2793 194.044 37.2793 189.222 37.1875C187.553 37.1875 187.367 38.1058 187.367 39.3914C187.367 40.677 187.646 41.5034 189.222 41.4116C191.633 41.3198 194.137 41.4116 196.548 41.4116C198.959 41.4116 201.463 41.3198 203.874 41.4116C205.544 41.5034 205.544 40.4933 205.544 39.2995C205.636 38.1058 205.544 37.1875 203.874 37.1875Z" fill="#E0E0E0"/>
<path d="M205.262 72.4504C205.262 74.1033 204.242 74.1951 202.943 74.1951C201.645 74.1951 143.59 74.2869 142.478 74.1951C141.365 74.1033 139.974 74.5624 140.066 72.634C140.159 70.1547 140.159 67.6753 140.066 65.1041C139.974 63.6349 140.716 63.2676 142.107 63.2676C145.723 63.2676 149.34 63.2676 152.957 63.2676C159.541 63.2676 166.219 63.2676 172.803 63.2676C182.819 63.2676 192.835 63.2676 202.758 63.2676C205.262 63.2676 205.354 63.3594 205.354 65.8388C205.354 68.0426 205.262 70.2465 205.262 72.4504Z" fill="#E0E0E0"/>
<path d="M125.986 50.5041C125.986 43.4333 125.986 36.3626 125.986 29.2918L125.615 28.3735L124.873 29.2918C123.111 34.2505 121.256 39.3011 119.401 44.2598C116.063 53.5344 112.631 62.809 109.2 71.9918C108.551 73.8283 108.736 74.1038 110.684 74.1038C114.95 74.1038 119.309 74.012 123.575 74.1038C125.429 74.1957 126.079 73.6447 125.986 71.7163C125.893 64.7374 125.986 57.5748 125.986 50.5041Z" fill="#37A351"/>
</svg>
