<svg width="102" height="148" viewBox="0 0 102 148" fill="none" xmlns="http://www.w3.org/2000/svg">
<path d="M39.7969 143.883C39.7969 125.868 39.7969 107.853 39.7969 89.9168C39.7969 88.4286 40.11 87.6454 41.5982 87.1754C42.7731 86.8621 43.8697 86.1572 45.0446 85.6873C45.9062 85.374 46.1412 84.7474 46.1412 83.8858C46.0629 77.9331 46.1412 72.0588 46.1412 66.1061C46.1412 65.5578 46.1413 65.0095 46.2196 64.4613C46.2196 63.3647 46.7675 62.5815 47.7858 62.1899C48.2557 62.0332 48.6477 61.7199 49.1177 61.4849C49.8226 61.1716 50.0575 60.6233 49.9791 59.7618C49.7442 56.4721 49.5874 53.1825 49.3524 49.8929C49.2741 48.953 49.509 48.1697 50.2923 47.6214C51.1538 46.9948 51.4672 46.2116 51.3105 45.1934C51.2322 44.8018 51.3105 44.4885 51.3105 44.0968C51.3105 41.9037 51.3107 41.9037 53.4255 41.6688C53.7388 41.6688 54.1302 41.1988 54.2086 40.8855C54.3652 40.3372 54.4438 39.6323 54.4438 39.084C54.4438 38.4575 54.6004 37.9875 55.462 37.9875C56.5586 37.9875 56.3237 37.1259 56.4803 36.4993C56.637 36.0294 56.7932 35.1678 57.0282 35.0895C57.9681 34.9328 58.9083 34.9328 59.8483 35.1678C60.0832 35.2461 60.2399 36.186 60.3182 36.7343C60.4748 37.4392 60.5529 37.9875 61.4928 38.0658C61.7278 38.0658 62.1196 38.6141 62.1979 38.9274C62.3546 39.8673 62.5111 40.8072 62.5111 41.7471C62.5111 42.6087 62.8246 43.0003 63.7645 42.922C64.6261 42.8436 65.0176 42.687 65.0176 41.6688C64.9392 38.6141 64.9392 35.6378 65.0176 32.5831C65.0176 29.1368 65.0177 25.6905 65.1744 22.3225C65.1744 21.5393 65.5659 20.7561 66.0358 20.0511C66.7408 19.0329 67.2107 18.0147 67.0541 16.6832C66.9758 16.2132 67.2891 15.5083 67.6024 15.195C68.229 14.5684 68.5422 13.9418 68.4639 13.0019C68.3856 11.7487 68.3855 10.5738 69.4038 9.47729C69.9521 8.92902 69.7955 7.75415 69.9521 6.89258C70.2654 4.62116 70.6569 2.27142 71.2835 0C71.3618 1.01822 71.5188 2.03644 71.5971 2.97634C71.7538 4.69949 71.7538 6.3443 72.0671 8.06745C72.3804 9.94724 73.0852 11.7487 72.9285 13.7068C72.9285 14.0201 73.1636 14.5684 73.4769 14.7251C74.7301 15.3517 74.4952 16.4482 74.5735 17.5447C74.6519 18.328 74.8083 19.1896 75.2782 19.8162C75.9831 20.8344 76.3749 21.8526 76.3749 23.1058C76.2966 28.7452 76.3748 34.4629 76.2965 40.1023C76.2965 41.1205 76.5315 41.9037 77.3148 42.452C78.7246 43.4702 79.3511 44.8801 79.1161 46.6032C78.9594 48.248 79.0379 49.7362 80.6827 50.7544C80.996 50.9111 81.1526 51.5377 81.0742 51.9293C80.9176 54.2791 81.7009 56.2372 83.1108 58.117C83.5024 58.5869 83.6592 59.2918 83.7375 59.9184C83.8159 63.3647 83.7375 66.811 83.7375 70.2573C83.7375 70.8839 83.5808 71.5888 84.599 71.5888C85.5389 71.6671 85.6173 70.9622 85.6957 70.2573C85.6957 69.5524 85.6957 68.8474 85.6957 68.1425C85.6173 67.3593 86.009 67.1243 86.7139 67.1243C89.5337 67.1243 92.3535 67.046 95.1733 67.2026C95.7999 67.2026 96.5046 67.7509 96.8962 68.2992C98.3061 70.2573 99.6377 72.2154 100.891 74.2519C101.361 75.0351 101.674 76.0533 101.674 76.9932C101.752 98.5325 101.674 120.072 101.674 141.689C101.674 142.394 101.674 143.099 101.752 143.804L39.7969 143.883ZM69.9521 141.689C70.1871 141.689 70.3439 141.611 70.5789 141.611C70.6572 141.22 70.7352 140.828 70.7352 140.436C70.7352 135.815 70.7352 131.272 70.7352 126.651C70.7352 114.511 70.7352 102.449 70.7352 90.3084C70.7352 89.1336 70.5003 88.272 69.4038 87.6454C68.6988 87.2538 68.229 86.6272 67.524 86.2355C66.7408 85.7656 66.5058 85.139 66.5058 84.1991C66.5058 77.4632 66.5058 70.8056 66.5842 64.0696C66.5842 62.7381 66.1925 61.7982 65.096 61.015C63.8427 60.0751 63.0596 58.9002 63.2162 57.1771C63.3729 54.4357 63.2163 51.6943 63.2946 48.953C63.2946 48.1697 63.0597 47.5431 62.3547 47.0732C61.4148 46.6032 61.1013 45.82 61.1797 44.7234C61.258 43.0003 61.1797 41.2771 61.1797 39.554C61.1797 38.7708 60.9446 38.3791 60.1614 38.3791C59.2998 38.3791 59.2999 38.9274 59.2999 39.554C59.2999 41.5121 59.3782 43.4702 59.2215 45.35C59.1432 46.5249 59.5347 47.4648 60.5529 48.0914C61.2579 48.5613 61.4928 49.1096 61.4928 49.9712C61.4145 52.086 61.3365 54.279 61.3365 56.3938C61.3365 58.2736 60.7881 60.3884 63.2162 61.4849C62.8246 61.6416 62.5113 61.6416 62.2763 61.6416C59.1433 61.6416 56.0886 61.6416 52.9556 61.7199C52.5639 61.7199 52.2505 62.0332 51.8589 62.1899C52.1722 62.5815 52.4072 63.1297 52.8771 63.2864C53.2688 63.5214 53.7386 63.3647 54.2086 63.3647C57.3416 63.3647 60.4747 63.3647 63.6077 63.3647C64.5477 63.3647 64.7828 63.678 64.7828 64.5396C64.7828 70.8056 64.7828 77.1499 64.7828 83.4159C64.7828 84.3558 64.4693 84.7474 63.5293 84.7474C60.2397 84.7474 56.9503 84.7474 53.5823 84.7474C52.8774 84.7474 52.4072 84.904 52.4072 85.6873C52.3289 86.5489 52.9557 86.5488 53.5823 86.5488C56.0104 86.5488 58.4384 86.7055 60.8665 86.5488C63.4513 86.3922 65.566 86.8621 67.6024 88.6636C68.5423 89.5252 69.0906 90.2301 69.0906 91.5616C69.0123 105.973 69.0123 120.385 69.0906 134.719C68.8557 137.068 69.5605 139.418 69.9521 141.689ZM81.8578 105.66C82.0144 105.66 82.2495 105.66 82.4061 105.582C82.4845 105.19 82.5625 104.72 82.5625 104.329C82.5625 90.3868 82.5625 76.445 82.5625 62.5031C82.5625 60.4667 82.3277 58.5869 81.3094 56.7854C80.6045 55.4539 80.2913 54.0441 80.3696 52.4776C80.3696 51.851 80.056 50.9894 79.586 50.5978C78.4895 49.8145 78.1764 48.8746 78.333 47.6214C78.568 45.7417 78.0199 44.0968 76.5317 42.922C75.5135 42.0604 75.3566 40.9638 75.3566 39.7106C75.4349 34.2279 75.4349 28.7452 75.3566 23.1841C75.3566 22.4792 75.1214 21.5393 74.6515 20.991C73.6332 19.7378 73.3201 18.4063 73.3985 16.8398C73.3985 16.2915 73.3202 15.5083 72.9285 15.1167C72.2236 14.4901 72.1455 13.8635 72.1455 13.0019C72.1455 12.297 72.2238 11.5921 72.1455 10.8871C72.0671 10.5738 71.7537 10.3389 71.5187 10.0256C71.2837 10.3389 70.8136 10.5738 70.8136 10.8871C70.8919 12.532 70.2657 14.2551 71.6755 15.6649C71.9888 15.8999 71.9103 16.6048 71.9103 17.0748C71.8319 18.563 72.067 19.8945 73.0069 21.1477C73.4769 21.8526 73.7116 22.7925 73.7116 23.6541C73.7899 29.0585 73.7899 34.4629 73.7116 39.9456C73.7116 41.1988 73.9468 42.217 74.8867 43.0786C76.2965 44.3318 77.0797 45.8983 76.7664 47.9347C76.5314 49.2663 76.7664 50.5195 78.2546 51.3027C78.6463 51.5377 78.7245 52.6342 78.6462 53.2608C78.6462 53.4175 77.7847 53.7308 77.3148 53.7308C74.965 53.8091 72.6934 53.7308 70.3436 53.7308C69.4821 53.7308 68.6987 53.6525 67.8372 53.8091C67.5239 53.8091 67.0541 54.2791 67.0541 54.514C67.1324 54.8273 67.4459 55.2973 67.7592 55.4539C68.0725 55.6106 68.5423 55.5322 69.0122 55.5322C71.9103 55.5322 74.8866 55.5322 77.7847 55.5322C78.2546 55.5322 78.9595 55.8455 79.1945 56.2372C79.8994 57.7253 80.5259 59.2135 80.5259 60.9367C80.4476 73.312 80.3693 85.6873 80.5259 98.0626C80.5259 100.569 81.3878 103.075 81.8578 105.66ZM99.2459 116.234C99.4025 116.234 99.5592 116.234 99.7158 116.234C99.7941 115.764 99.951 115.372 99.951 114.902C99.951 102.214 99.951 89.6035 99.951 76.9149C99.951 76.21 99.7159 75.4267 99.3243 74.8001C98.2277 72.9203 96.9745 71.1189 95.8779 69.1608C95.2513 67.9859 94.3115 67.8292 92.9799 68.1425C93.2149 68.5341 93.2933 68.8475 93.5283 69.1608C94.5465 70.8056 95.5645 72.4504 96.7394 74.0169C97.4443 75.0351 97.7577 76.0533 97.7577 77.2282C97.7577 88.5853 97.7576 99.9424 97.6793 111.299C97.6009 113.258 98.541 114.667 99.2459 116.234Z" fill="#E0E0E0"/>
<path d="M49.4218 98.6108H46.054L45.7409 99.0024V100.804L46.054 101.274H48.7951L49.657 102.292V104.563L48.8735 105.66H45.0358V104.72H48.4036C48.4819 104.563 48.6384 104.407 48.7167 104.25V102.527L48.3252 102.135H45.5841L44.7227 101.117V98.6891L45.5841 97.6709H49.4218V98.6108Z" fill="#37A351"/>
<path d="M54.7598 98.606H51.9401C51.6268 98.9193 51.3919 99.1543 51.0786 99.4676V101.191H54.7598V102.131H51.0786V103.932L51.9401 104.794H54.7598V105.734H51.5485L50.1387 104.402V99.2326L51.5485 97.8228H54.7598V98.606Z" fill="#37A351"/>
<path d="M59.8472 105.659H55.4609V97.6694H56.4008V104.719H59.8472V105.659Z" fill="#37A351"/>
<path d="M65.0845 105.66H60.6992V97.6709H61.6389V104.72H65.0845V105.66Z" fill="#37A351"/>
<path d="M12.0752 146.473C6.35753 146.473 1.73633 141.773 1.73633 136.134V105.039C1.73633 99.3214 6.43585 94.7002 12.0752 94.7002C17.7929 94.7002 22.4141 99.3997 22.4141 105.039V136.134C22.4141 141.852 17.7146 146.473 12.0752 146.473Z" fill="#E0E0E0"/>
<path d="M12.3029 147.489H11.833C5.72372 147.489 0.789062 142.554 0.789062 136.445V104.88C0.789062 98.7709 5.72372 93.8364 11.833 93.8364H12.3029C18.4121 93.8364 23.3463 98.7709 23.3463 104.88V136.445C23.3463 142.476 18.4121 147.489 12.3029 147.489ZM11.833 95.6379C6.82025 95.6379 2.66923 99.7108 2.66923 104.802V136.367C2.66923 141.38 6.74193 145.531 11.833 145.531H12.3029C17.3156 145.531 21.4666 141.458 21.4666 136.367V104.802C21.4666 99.7891 17.3939 95.6379 12.3029 95.6379H11.833Z" fill="#37A351"/>
<path d="M22.5573 115.222H1.80078V117.102H22.5573V115.222Z" fill="#37A351"/>
<path d="M7.68695 103.786H7.06068V109.269H7.68695V110.131H5.65039V109.269H6.27713V103.786H5.65039V102.925H7.68695V103.786Z" fill="#37A351"/>
<path d="M12.3022 103.786H9.24736L8.93423 104.178V105.745L9.24736 106.136H11.6755L12.459 107.076V109.191L11.7539 110.209H8.30748V109.347H11.3623C11.4407 109.191 11.5972 109.112 11.6755 108.956V107.389L11.3623 106.998H8.85582L8.07227 106.058V103.865L8.85582 102.925H12.3022V103.786Z" fill="#37A351"/>
<path d="M14.4294 110.127L13.1758 108.873V104.331L14.4294 102.999H17.3277L18.5808 104.331V108.873L17.3277 110.127H14.4294ZM16.9357 109.343L17.7193 108.56V104.644L16.9357 103.782H14.7426C14.5076 104.017 14.2723 104.331 13.9589 104.644V108.56L14.7426 109.343H16.9357Z" fill="#37A351"/>
<path d="M12.3143 138.399C8.16308 138.399 4.79492 135.031 4.79492 130.88C4.79492 126.729 8.16308 123.361 12.3143 123.361C16.4656 123.361 19.8333 126.729 19.8333 130.88C19.8333 135.031 16.4656 138.399 12.3143 138.399ZM12.3143 124.144C8.55471 124.144 5.57846 127.199 5.57846 130.88C5.57846 134.561 8.63303 137.616 12.3143 137.616C16.0739 137.616 19.0502 134.561 19.0502 130.88C19.0502 127.199 15.9956 124.144 12.3143 124.144Z" fill="#37A351"/>
<path d="M5.67535 132.601L5.3457 133.312L15.0815 137.65L15.6232 137.214L5.67535 132.601Z" fill="#37A351"/>
<path d="M10.1522 123.764L9.77718 124.452L19.2394 129.764L19.6144 129.077L10.1522 123.764Z" fill="#37A351"/>
<path d="M5.67099 127.75L5.3457 128.462L18.3122 134.384L18.6375 133.672L5.67099 127.75Z" fill="#37A351"/>
<path d="M9.26526 137.695L8.79535 137.46C7.5422 134.405 7.46413 131.585 8.56063 129.236C10.4404 125.398 14.826 123.988 15.061 123.988L15.5309 124.223C16.784 127.747 16.784 130.724 15.4525 133.152C13.4945 136.755 9.4219 137.695 9.26526 137.695ZM14.9826 124.849C13.9644 125.241 10.7534 126.651 9.34366 129.627C8.32548 131.664 8.40387 134.092 9.42205 136.911C10.3619 136.598 13.3382 135.58 14.8263 132.838C16.0011 130.724 16.0791 127.982 14.9826 124.849Z" fill="#37A351"/>
<path d="M101.595 143.884H39.7969V147.095H101.595V143.884Z" fill="#24A848"/>
</svg>
