<svg width="252" height="77" viewBox="0 0 252 77" fill="none" xmlns="http://www.w3.org/2000/svg">
<path d="M3.12971 76.9999C3.0403 76.9999 0 77.0892 0 71.644C0 71.0192 0.715703 69.8588 0.983936 69.948C2.59334 70.2158 2.86131 68.252 2.95072 66.6452C3.12954 62.9854 3.04022 59.2363 3.04022 55.5765C3.04022 55.1301 2.59327 54.6838 2.59327 54.1482C2.41445 52.1844 2.23519 50.2206 2.14578 48.3461C2.14578 48.1675 2.77207 47.6319 3.12971 47.6319C5.99087 47.4534 8.94117 47.4534 11.8023 47.2749C12.5176 47.2749 13.3223 47.0071 14.0376 46.7393C14.3058 46.65 14.6638 46.3822 14.932 46.4715C18.0614 46.7393 21.1908 47.0963 24.4096 47.2749C26.6449 47.3641 27.5389 49.7743 26.5554 53.2556C26.1977 54.416 26.0189 55.6657 26.0189 56.9154C25.9295 59.5041 26.0189 62.0928 26.0189 64.7707C26.0189 65.6633 26.108 66.6452 26.2869 67.5379C26.4657 68.7876 26.6448 70.0373 27.7178 69.7695C28.8801 69.5017 28.6116 68.0735 28.6116 66.913C28.6116 62.8069 28.6116 58.6114 28.6116 54.5053C28.6116 53.0771 28.8799 52.1844 29.774 51.7381C30.847 51.2025 31.9198 50.5777 32.9927 50.2206C33.7974 49.9528 33.9761 49.328 33.9761 48.1675C33.9761 45.6681 33.9761 43.258 33.9761 40.7586C33.9761 39.3304 34.3338 38.527 35.1385 37.9914C38.089 36.3846 41.0401 34.4208 43.9906 32.9926C44.7953 32.5462 45.8682 32.9926 46.7623 33.4389C49.9811 34.9564 50.0704 34.9564 49.981 40.4015C49.981 42.8117 50.249 44.3292 51.9478 44.7755C53.3784 45.1325 54.7198 45.9359 56.1504 46.65C57.1339 47.1856 57.4917 46.4715 57.4023 44.954C57.4023 40.4015 57.4023 35.849 57.4023 31.2073C57.4023 25.8514 57.4023 20.4956 57.4023 15.1397C57.4023 13.2651 57.8493 12.551 59.0116 12.551C64.2869 12.6403 69.6513 12.6403 74.9265 12.551C76.1783 12.551 76.6252 13.1759 76.5358 15.229C76.4464 21.1204 76.5358 27.0119 76.5358 32.9033C76.5358 34.5993 76.8938 35.3134 77.9667 35.3134C78.9502 35.3134 79.3076 34.5993 79.3076 33.0818C79.2181 30.4932 79.3076 27.8152 79.3076 25.2266C79.3076 22.2809 79.4867 21.9238 81.2749 21.9238C84.3149 21.9238 87.355 21.9238 90.395 21.9238C92.0938 21.9238 92.1828 22.0131 92.1828 24.691C92.1828 38.7948 92.1828 52.8093 92.1828 66.913C92.1828 68.252 92.004 69.7695 93.3452 69.7695C94.3287 69.7695 94.8655 69.2339 94.8655 67.5379C94.8655 63.7888 94.8655 59.9504 94.8655 56.2013C94.8655 45.0433 94.8655 33.8852 94.8655 22.6379C94.8655 19.1566 94.8654 19.1566 97.0113 18.3532C99.0678 17.6391 101.213 16.8357 103.27 16.1216C105.147 15.4075 105.237 15.229 105.237 12.194C105.237 7.82002 105.237 7.90928 108.009 7.01664C114.178 4.87429 120.437 2.64269 126.606 0.321812C128.037 -0.213774 129.288 -0.303038 130.272 1.83931C130.898 3.08901 131.613 4.24945 132.418 5.1421C133.759 6.74885 134.027 8.80192 134.027 11.3906C133.938 29.5113 133.938 47.6319 134.027 65.8419C134.027 67.3594 133.491 69.591 135.368 69.6802C137.246 69.7695 137.336 69.6802 137.336 66.6452C137.336 53.0771 137.336 39.5089 137.336 25.9407C137.336 24.3339 137.246 23.0842 135.905 23.1735C135.637 23.1735 135.189 22.4594 135.189 22.2809C135.279 21.5667 135.547 20.7634 135.815 20.4063C137.514 18.9781 139.303 17.7284 141.091 16.3894C142.969 15.0504 144.757 13.5329 146.634 12.3725C147.35 11.9262 148.333 11.8369 149.049 12.2832C152.625 14.6934 156.112 17.282 159.599 19.8707C160.046 20.2278 160.314 21.2097 160.582 21.9238C160.225 22.3701 159.867 22.7272 159.51 23.2628C159.241 23.7091 158.884 24.3339 158.794 24.8695C158.705 28.2616 158.794 31.6536 158.794 35.1349C158.794 36.6524 159.331 37.0095 160.225 37.0095C165.232 37.0095 170.239 37.0095 175.246 37.0095C175.782 37.0095 176.587 37.2773 176.766 37.8129C176.945 38.6162 176.676 39.6874 176.497 40.6693C176.408 41.562 176.14 42.4546 176.05 43.3472C176.05 51.2025 176.05 59.0578 176.05 66.8238C176.05 67.0916 176.05 67.3594 176.05 67.7164C176.05 68.8769 176.229 70.0373 177.034 69.6802C177.481 69.5017 177.928 68.3413 178.018 67.6272C178.107 64.6814 178.107 61.6464 178.107 58.7007C178.107 47.3641 178.107 35.9383 178.196 24.6017C178.196 23.6198 178.912 22.2809 179.448 21.656C183.024 18.264 186.78 15.4075 190.177 11.7477C192.681 9.15899 194.827 9.33752 197.241 11.1228C197.598 11.3906 198.046 11.5691 198.403 11.7477C199.208 12.0155 199.566 12.8188 199.566 14.2471C199.566 16.8357 199.566 19.5137 199.566 22.1023C199.566 23.7091 200.013 24.2447 200.907 23.5306C201.98 22.6379 202.963 22.995 204.036 23.7984C206.718 25.9407 209.401 27.9938 212.173 29.9576C213.067 30.5824 213.335 31.4751 213.335 32.9926C213.246 44.5077 213.335 56.0228 213.246 67.6272C213.246 69.1447 213.603 69.7695 214.497 69.6802C215.391 69.6802 216.375 69.6802 216.911 69.6802C217.18 68.0735 217.448 67.0916 217.448 66.0204C217.448 65.0385 217.09 64.1458 216.911 63.0747C218.61 59.7719 218.61 59.7719 220.577 62.0928C220.577 59.5934 220.667 57.3618 220.488 55.1301C220.488 54.6838 219.594 54.3268 219.057 53.9697C218.521 53.6126 217.716 53.6126 217.537 52.9878C217.09 51.7381 217.269 50.3099 218.163 49.328C219.683 47.5427 221.203 45.6681 222.723 43.8828C224.69 41.562 226.657 39.2411 228.535 36.8309C229.25 35.9383 229.697 35.9383 230.412 36.7417C233.81 40.8478 237.297 44.7755 240.605 49.0602C241.142 49.685 241.231 51.4703 241.231 52.72C241.231 53.1663 240.337 53.7912 239.8 53.9697C239.085 54.2375 238.638 54.5946 238.638 55.9335C238.638 57.8973 238.638 59.8612 238.638 62.2713C239.175 61.6464 239.532 61.4679 239.711 61.1109C240.337 59.9504 240.963 59.7719 241.499 61.2894C241.946 62.4498 242.394 62.2713 242.841 61.1109C243.288 60.0397 243.735 60.0397 244.45 60.7538C244.718 61.1109 245.434 61.2894 245.612 61.0216C246.417 59.6826 247.043 60.1289 247.669 61.2894C248.026 61.9142 248.384 62.3606 248.831 62.9854C247.937 64.5922 247.579 66.1097 248.831 67.5379C248.473 68.0735 248.205 68.5198 247.848 68.9661C247.937 69.1447 248.026 69.591 248.116 69.591C248.92 69.7695 249.725 69.8588 250.53 69.8588C251.513 69.7695 251.871 70.7514 251.96 72.0904C252.05 72.8938 251.96 73.6971 251.96 74.5005C252.05 76.1073 251.603 76.7321 250.619 76.7321C248.921 76.7321 247.132 76.7321 245.433 76.7321L3.12971 76.9999ZM73.8536 43.5258C73.8536 35.5812 73.8536 27.5474 73.8536 19.6029C73.8536 17.9069 73.4961 17.1035 72.3338 17.1035C68.8467 17.1928 65.3599 17.1928 61.8728 17.1035C60.7105 17.1035 60.1735 17.6391 60.263 19.6029C60.3524 21.2097 60.263 22.8164 60.263 24.4232C60.263 38.527 60.263 52.72 60.263 66.8238C60.263 69.8588 60.2632 69.948 62.2303 69.8588C65.6279 69.8588 68.9362 69.7695 72.3338 69.8588C73.4067 69.8588 73.8536 69.2339 73.8536 67.4486C73.7642 59.5041 73.8536 51.5596 73.8536 43.5258ZM108.366 13.1759C108.456 13.4437 108.456 13.7115 108.545 13.9793C108.992 13.9793 109.528 14.1578 109.975 13.9793C111.585 13.0866 112.479 15.0504 113.731 15.8538C115.251 16.8357 115.788 18.621 115.519 21.2097C115.43 22.3701 115.519 23.7091 115.519 24.8695C115.43 26.6548 115.966 26.9226 116.95 26.6548C117.486 26.4763 118.112 26.4763 118.649 26.8333C119.9 27.8153 121.152 28.8864 122.314 30.2254C122.851 30.8502 123.298 32.1892 123.298 33.2604C123.388 37.3665 123.298 41.562 123.298 45.6681C123.298 53.0771 123.298 60.486 123.298 67.8949C123.298 69.1446 123.388 70.1266 124.371 70.0373C125.533 69.948 125.533 68.7876 125.533 67.4486C125.533 48.3461 125.533 29.3327 125.533 10.2302C125.533 9.60531 125.533 8.8912 125.533 8.26635C125.533 6.92739 125.086 6.48106 124.282 6.74886C119.453 8.53414 114.536 10.3194 109.708 12.1047C109.171 12.194 108.813 12.7296 108.366 13.1759ZM114.715 51.4703C114.715 46.0252 114.715 40.58 114.715 35.1349C114.715 32.9033 114.446 32.5462 113.105 32.9926C110.959 33.6174 108.813 34.3315 106.667 34.7779C105.416 35.0457 104.968 35.7598 104.968 37.8129C105.058 47.7212 104.968 57.6296 104.968 67.6272C104.968 69.2339 105.326 70.0373 106.399 69.948C108.724 69.8588 111.048 69.8588 113.373 69.948C114.446 69.948 114.804 69.2339 114.715 67.6272C114.715 62.182 114.715 56.8262 114.715 51.4703ZM89.3215 47.8997C89.2321 41.2049 89.322 34.5993 89.2326 27.9045C89.2326 27.4582 88.6958 26.6548 88.3382 26.5655C87.444 26.387 86.4605 26.4763 85.4769 26.4763C81.7217 26.2977 82.1688 25.6729 82.1688 31.9214C82.1688 35.2242 82.1691 35.2242 84.2256 35.2242C86.4609 35.2242 86.5499 35.4027 86.6393 38.9733C86.6393 39.2411 86.6393 39.5089 86.6393 39.8659C86.6393 49.0602 86.6393 58.2544 86.6393 67.4486C86.6393 69.3232 87.1757 69.8588 88.2487 69.8588C89.411 69.8588 89.411 68.6983 89.411 67.3594C89.3216 60.9323 89.3215 54.416 89.3215 47.8997ZM14.932 67.4486C14.932 67.5379 14.932 67.5379 14.932 67.4486C16.0944 67.4486 17.1668 67.4486 18.3292 67.5379C19.2233 67.5379 19.6705 67.0023 19.6705 65.4848C19.6705 62.182 19.6705 58.79 19.6705 55.4872C19.6705 54.6838 19.3127 53.6126 18.9551 53.0771C17.9716 51.6488 16.8093 50.3991 15.6469 49.2387C15.2893 48.8816 14.4847 48.8816 14.0376 49.2387C12.9647 50.2206 12.0705 51.4703 11.1764 52.8093C10.8187 53.3449 10.372 54.3268 10.372 55.1301C10.2826 58.7007 10.372 62.182 10.372 65.7526C10.372 66.913 10.7296 67.4486 11.4449 67.4486C12.5178 67.4486 13.6803 67.4486 14.932 67.4486ZM50.249 58.7007C50.249 55.755 50.249 52.72 50.249 49.7743C50.249 49.1494 50.0703 48.1675 49.802 47.8997C49.0867 47.2749 46.4939 49.8635 46.4939 51.2025C46.4939 56.8262 46.4044 62.5391 46.4939 68.1627C46.4939 68.7876 47.1197 69.5017 47.5667 69.8588C47.9244 70.1266 48.4611 69.8588 48.9081 69.948C49.9811 70.0373 50.3385 69.3232 50.3385 67.6272C50.1596 64.5922 50.249 61.6464 50.249 58.7007ZM193.218 20.4063C193.218 16.925 193.039 16.8357 191.25 18.3532C189.552 19.7814 187.853 21.0312 186.154 22.4594C184.366 23.8876 182.578 25.2266 180.789 26.7441C179.538 27.726 180.164 29.5113 180.253 31.0288C180.253 31.2073 181.236 31.5644 181.594 31.2966C184.991 28.9757 188.3 26.387 191.787 24.1554C192.949 23.1735 193.397 22.0131 193.218 20.4063ZM195.453 66.4667C195.453 66.3774 195.453 66.2882 195.453 66.1989C197.331 66.0204 199.297 65.8419 201.175 65.6633C202.516 65.4848 202.337 63.8781 202.337 62.4498C202.337 60.9323 201.712 60.6645 200.996 60.8431C197.509 61.4679 193.932 62.0035 190.445 62.5391C189.551 62.7176 189.373 63.521 189.373 64.7707C189.373 66.1989 189.909 66.4667 190.624 66.4667C192.144 66.3774 193.754 66.4667 195.453 66.4667ZM202.337 31.2966C202.337 29.065 202.069 28.6186 200.996 29.3327C197.42 31.4751 193.933 33.796 190.356 35.849C189.194 36.5632 189.283 37.9021 189.462 39.1518C189.551 39.5089 190.535 39.6874 191.071 39.5089C194.469 37.8129 197.777 35.849 201.085 34.153C201.979 33.6174 202.337 32.6355 202.337 31.2966ZM202.337 53.4341C202.337 50.2206 202.069 49.8635 200.638 50.3991C199.834 50.6669 199.029 50.9347 198.225 51.2025C195.542 52.0059 192.86 52.8093 190.267 53.6127C189.283 53.8804 189.194 55.1301 189.373 56.2906C189.462 56.8262 190.088 57.7188 190.445 57.6295C194.022 56.8262 197.598 56.0228 201.175 54.9516C201.711 54.7731 202.069 53.7912 202.337 53.4341ZM202.337 42.0083C202.337 39.6874 201.891 39.2411 200.46 39.9552C198.135 41.0264 195.9 42.0975 193.575 43.1687C192.413 43.7043 191.25 44.2399 190.088 44.954C189.194 45.4896 189.194 46.8285 189.462 47.8105C189.551 48.2568 190.356 48.7031 190.714 48.6138C194.201 47.3641 197.599 45.8467 200.996 44.597C201.98 44.1506 202.427 43.4365 202.337 42.0083ZM9.2991 60.8431C9.2991 60.5753 9.2991 60.3075 9.2991 59.9504C9.47792 54.059 9.47779 54.059 5.81194 54.059C5.5437 54.059 5.36473 54.059 5.0965 54.059C4.20238 53.8804 3.84461 54.5053 3.84461 55.8443C3.93402 59.147 3.93428 62.4498 4.1131 65.7526C4.1131 66.3774 4.73894 67.2701 5.18599 67.3594C6.0801 67.6272 7.06369 67.4486 8.04721 67.4486C8.94132 67.5379 9.2991 66.913 9.2991 65.5741C9.2991 64.0566 9.2991 62.4498 9.2991 60.8431ZM24.8565 60.6645C24.8565 59.8612 24.8565 59.0578 24.8565 58.2544C24.8565 53.3448 24.8563 53.3449 21.8163 53.6127C20.9222 53.7019 20.5644 54.3268 20.5644 55.755C20.5644 58.0759 20.5644 60.3967 20.5644 62.7176C20.5644 67.6272 20.5647 67.5379 23.6046 67.5379C24.6776 67.5379 25.0354 66.8238 24.946 65.217C24.8566 63.6995 24.8565 62.182 24.8565 60.6645ZM187.137 49.7743C187.137 47.0071 187.048 46.4715 186.333 46.7393C184.455 47.3641 182.578 48.0783 180.789 49.0602C179.538 49.685 179.895 51.6488 180.163 52.9878C180.253 53.4341 181.147 53.7912 181.683 53.7019C183.024 53.4341 184.276 52.8985 185.528 52.6307C186.69 52.3629 187.316 51.6488 187.137 49.7743ZM183.382 65.0385C184.276 64.9492 185.17 65.0385 186.064 64.7707C187.674 64.3244 186.959 62.182 187.048 60.6645C187.138 59.147 186.422 59.0578 185.796 59.2363C184.366 59.5041 182.935 59.6826 181.504 60.129C179.984 60.5753 179.806 61.2001 179.984 63.9673C180.163 66.1097 181.236 65.0385 181.862 65.217C182.399 65.217 182.935 65.0385 183.382 65.0385ZM186.78 34.2423C184.634 35.492 182.578 36.4739 180.7 37.9021C179.627 38.7055 179.985 40.6693 180.163 42.1868C180.163 42.3653 181.326 42.3653 181.862 42.1868C182.846 41.8298 183.74 41.2049 184.724 40.8478C187.316 39.7767 187.585 38.9733 186.78 34.2423ZM44.8845 41.4727C44.8845 41.4727 44.7951 41.4727 44.8845 41.4727C44.8845 42.8117 44.8845 44.0614 44.8845 45.4003C44.8845 46.8286 45.2422 47.0964 46.0469 46.8286C47.8351 46.0252 48.1927 45.4896 48.1927 42.5439C48.1927 41.562 48.1927 40.4908 48.1927 39.5089C48.1927 37.3665 47.3879 36.2061 45.8679 36.2061C44.5267 36.2061 45.1528 38.0806 44.974 39.1518C44.7952 39.7767 44.8845 40.6693 44.8845 41.4727ZM156.022 32.7248C156.022 32.3677 156.022 32.0107 156.022 31.6536V32.7248ZM156.022 42.4546C156.022 42.0976 156.022 41.7405 156.022 41.3834V42.4546ZM42.5597 38.2592C42.2021 38.1699 41.8445 37.8129 41.4869 37.9021L42.5597 38.2592Z" fill="#E0E0E0"/>
<path fill-rule="evenodd" clip-rule="evenodd" d="M33.9844 30.4911V29.5091C34.1633 29.5091 34.3425 29.4199 34.4319 29.3306C34.5213 29.2413 34.6104 28.9736 34.6104 28.7058V28.0809C34.4316 28.2594 34.3423 28.438 34.2529 28.438C34.1635 28.5272 34.1633 28.5272 34.0739 28.5272V27.5453C34.2528 27.5453 34.432 27.4561 34.5214 27.2775C34.6108 27.099 34.6999 26.9205 34.6999 26.6527C34.6999 26.2956 34.6108 26.1171 34.5214 25.9386C34.3426 25.76 34.2528 25.76 34.0739 25.6708V24.5996C34.1633 24.6889 34.2529 24.6889 34.2529 24.6889C34.4318 24.7781 34.6105 24.9567 34.6999 25.2245V24.6889H35.9518V28.5272V28.7058C35.9518 28.9736 35.8622 29.1521 35.7728 29.4199C35.6834 29.6877 35.5942 29.8662 35.4153 29.9555C35.2365 30.134 35.0576 30.2233 34.7894 30.2233C34.5211 30.4911 34.3421 30.4911 33.9844 30.4911ZM33.9844 24.6889C33.8056 24.5996 33.7163 24.5996 33.5375 24.5996C33.0904 24.5996 32.7329 24.7781 32.5541 25.0459C32.2858 25.403 32.1966 25.8493 32.1966 26.4742C32.1966 27.0097 32.2858 27.4561 32.4646 27.8131C32.7328 28.2594 33.1798 28.5272 33.5375 28.5272C33.7163 28.5272 33.895 28.5272 33.9844 28.438V27.4561C33.8056 27.4561 33.7164 27.3668 33.627 27.2775C33.4482 27.099 33.448 26.9205 33.448 26.5634C33.448 26.2064 33.5376 26.0278 33.627 25.8493C33.8058 25.6708 33.8951 25.5815 34.0739 25.5815V24.6889H33.9844ZM33.9844 29.5091C33.8056 29.5091 33.7164 29.4199 33.627 29.3306C33.5376 29.2413 33.448 29.1521 33.448 29.0628L32.1071 28.8843C32.1071 28.9736 32.1071 29.0628 32.1071 29.0628C32.1071 29.5092 32.2858 29.7769 32.4646 30.0447C32.7328 30.3125 33.1802 30.4018 33.8955 30.4018V29.5091H33.9844ZM10.38 28.795V27.9917C10.4694 27.9917 10.5586 27.9024 10.648 27.9024C10.8268 27.8131 10.9165 27.7239 10.9165 27.5453C11.0059 27.4561 11.006 27.2775 11.006 27.099V26.8312C10.8272 26.9205 10.6484 27.0097 10.4695 27.099H10.38V26.2956C10.4694 26.2064 10.4691 26.2064 10.5585 26.2064C10.7373 26.1171 10.8272 26.1171 11.006 26.0278C11.006 25.8493 10.9165 25.6708 10.9165 25.6708C10.8271 25.5815 10.7373 25.4922 10.5585 25.4922C10.4691 25.4922 10.4694 25.4922 10.38 25.4922V24.5996C10.7377 24.5996 11.0951 24.5996 11.2739 24.6889C11.5422 24.7781 11.7211 24.8674 11.8999 25.0459C11.9893 25.2245 12.079 25.3137 12.1684 25.4922C12.2578 25.76 12.2573 25.9386 12.2573 26.1171V27.9024C12.2573 28.0809 12.3468 28.2595 12.3468 28.3487C12.4363 28.438 12.4364 28.6165 12.5258 28.795H11.2739C11.1845 28.7058 11.1844 28.6165 11.1844 28.5272C11.1844 28.438 11.1844 28.3487 11.0949 28.2595C10.9161 28.438 10.7373 28.6165 10.5585 28.7058C10.4691 28.795 10.38 28.795 10.38 28.795ZM13.7777 24.7781H15.0291V25.4922C15.2079 25.2245 15.3868 25.0459 15.655 24.8674C15.8339 24.7781 16.0128 24.6889 16.3705 24.6889C16.7281 24.6889 16.9962 24.8674 17.2644 25.0459C17.4432 25.3137 17.5329 25.6708 17.5329 26.2064V28.795H16.1915V26.5634C16.1915 26.2956 16.1025 26.1171 16.013 26.0278C15.9236 25.8493 15.8339 25.8493 15.655 25.8493C15.4762 25.8493 15.387 25.9386 15.2976 26.1171C15.2082 26.2956 15.1186 26.4742 15.1186 26.9205V28.8843H13.7777V24.7781ZM18.6953 24.7781H20.3047L20.8411 25.8493L21.4671 24.7781H22.8974L21.735 26.742L22.9869 28.8843H21.4671L20.8411 27.5453L20.0362 28.8843H18.6058L19.8577 26.742L18.6953 24.7781ZM24.1493 23.1714H25.4907V24.2425H24.1493V23.1714ZM24.1493 24.7781H25.4907V28.8843H24.1493V24.7781ZM27.1001 24.7781H28.352V25.4922C28.5308 25.2245 28.7091 25.0459 28.9774 24.8674C29.1562 24.7781 29.3352 24.6889 29.6928 24.6889C30.0505 24.6889 30.4084 24.8674 30.5873 25.0459C30.7661 25.3137 30.8552 25.6708 30.8552 26.2064V28.795H29.5138V26.5634C29.5138 26.2956 29.4248 26.1171 29.3354 26.0278C29.246 25.8493 29.1562 25.8493 28.9774 25.8493C28.7985 25.8493 28.7093 25.9386 28.6199 26.1171C28.5305 26.2956 28.4409 26.4742 28.4409 26.9205V28.8843H27.1001V24.7781ZM2.51172 23.1714H3.85257L5.64093 26.2956V23.1714H7.07183V28.8843H5.64093L3.85257 25.76V28.8843H2.51172V23.1714ZM10.38 24.6889C10.1118 24.6889 9.93282 24.6889 9.66458 24.7781C9.48576 24.8674 9.30704 24.8674 9.21763 24.9567C9.03881 25.0459 8.94905 25.2245 8.85963 25.3137C8.77022 25.4923 8.68118 25.6708 8.68118 25.9386L9.93308 26.1171C10.0225 25.9386 10.0221 25.8493 10.1115 25.76C10.2009 25.6708 10.2907 25.6708 10.4695 25.5815V24.6889H10.38ZM10.38 26.2956C10.2012 26.3849 9.93273 26.3849 9.57508 26.4742C9.12802 26.5634 8.86 26.742 8.68118 26.9205C8.50236 27.099 8.50218 27.3668 8.50218 27.7239C8.50218 28.0809 8.59186 28.3487 8.77068 28.6165C9.03892 28.795 9.30702 28.9736 9.75408 28.9736C10.0223 28.9736 10.2012 28.8843 10.38 28.795V27.9917C10.2906 27.9917 10.2904 28.0809 10.201 28.0809C10.0222 28.0809 9.93299 27.9916 9.84358 27.9024C9.75417 27.8131 9.75408 27.7239 9.75408 27.6346C9.75408 27.5453 9.84358 27.4561 9.84358 27.3668C9.93299 27.2775 10.1117 27.1883 10.2905 27.099V26.2956H10.38Z" fill="#37A351"/>
</svg>
