<svg width="201" height="103" viewBox="0 0 201 103" fill="none" xmlns="http://www.w3.org/2000/svg">
<path d="M84.507 87.9419H0.625V101.988H84.507V87.9419Z" fill="#E0E0E0"/>
<path d="M53.8158 10.2276C53.8158 13.9032 47.2311 22.4357 47.2311 22.4357C47.2311 22.4357 40.6465 13.9032 40.6465 10.2276C40.6465 6.55201 43.6754 3.66406 47.2311 3.66406C50.9186 3.66406 53.8158 6.55201 53.8158 10.2276Z" fill="#37A351"/>
<path d="M44.3457 15.0832V7.07568H45.6624L49.2186 13.9018V7.07568H50.1398V15.0832H48.8231L45.2669 8.25713V15.0832H44.3457Z" fill="black"/>
<path d="M30.9219 92.0078H32.2383L33.2919 94.7645C33.4235 95.1583 33.5548 95.5521 33.6865 95.9459C33.8181 95.5521 33.9502 95.1583 34.0819 94.7645L35.1355 92.0078H36.4519V98.0462H35.3983V95.552C35.3983 95.027 35.5301 94.1081 35.5301 93.583L35.0037 95.027L34.0819 97.5211H33.4237L32.5019 95.027L31.9755 93.583C31.9755 94.1081 32.1065 95.027 32.1065 95.552V98.0462H31.0537V92.0078H30.9219Z" fill="#37A351"/>
<path d="M37.5078 95.0299C37.5078 93.0608 38.8247 91.8794 40.4054 91.8794C41.3274 91.8794 41.8545 92.2732 42.2497 92.667L41.5912 93.4546C41.3278 93.1921 40.9323 92.9296 40.4054 92.9296C39.3516 92.9296 38.6929 93.7172 38.6929 95.0299C38.6929 96.3426 39.3516 97.1302 40.4054 97.1302C40.6688 97.1302 40.9322 96.999 41.1957 96.8677V95.6862H40.1425V94.7674H42.2497V97.524C41.8545 97.9178 41.1956 98.1804 40.2735 98.1804C38.6928 98.0491 37.5078 96.999 37.5078 95.0299Z" fill="#37A351"/>
<path d="M43.5568 92.0068H44.7422V94.6322L46.7176 92.0068H48.034L46.1904 94.3697L48.2976 98.0453H46.9804L45.4004 95.4199L44.6104 96.4701V98.1765H43.4258V92.0068H43.5568Z" fill="#37A351"/>
<path d="M48.7148 94.8996C48.7148 92.7993 49.5053 91.8804 50.6905 91.8804C51.8757 91.8804 52.6653 92.9305 52.6653 94.8996C52.6653 96.9999 51.8757 98.0501 50.6905 98.0501C49.637 98.0501 48.7148 96.9999 48.7148 94.8996ZM51.7442 94.8996C51.7442 93.1931 51.349 92.7993 50.8223 92.7993C50.2955 92.7993 49.9004 93.3243 49.9004 94.8996C49.9004 96.6061 50.2955 97.1312 50.8223 97.1312C51.349 97.1312 51.7442 96.6061 51.7442 94.8996Z" fill="#37A351"/>
<path d="M53.8145 96.9999H55.1311V93.1931H54.0781V92.4055C54.7366 92.2742 55.1315 92.1429 55.5265 91.8804H56.4485V96.8687H57.6333V97.7875H54.0781V96.9999H53.8145Z" fill="#37A351"/>
<path d="M71.85 80.8506H16.9377C14.304 80.8506 12.1973 78.7503 12.1973 76.1249V64.9669C12.1973 62.3415 14.304 60.2412 16.9377 60.2412H71.85C74.4837 60.2412 76.5904 62.3415 76.5904 64.9669V76.1249C76.7221 78.7503 74.4837 80.8506 71.85 80.8506Z" fill="#E0E0E0"/>
<path d="M15.2273 80.8585H10.2235C9.17011 80.8585 8.24805 79.9396 8.24805 78.8895C8.24805 77.8393 9.17011 76.9204 10.2235 76.9204H15.2273C16.2807 76.9204 17.202 77.8393 17.202 78.8895C17.202 79.9396 16.4124 80.8585 15.2273 80.8585Z" fill="#E0E0E0"/>
<path d="M17.3209 82.1716H15.214C14.6872 82.1716 14.1602 81.6465 14.1602 81.1214C14.1602 80.5963 14.6872 80.0713 15.214 80.0713H17.3209C17.8477 80.0713 18.3747 80.5963 18.3747 81.1214C18.3747 81.6465 17.8477 82.1716 17.3209 82.1716Z" fill="#E0E0E0"/>
<path d="M78.0301 80.8561H73.0263C71.9728 80.8561 71.0508 79.9372 71.0508 78.887C71.0508 77.8369 71.9728 76.918 73.0263 76.918H78.0301C79.0835 76.918 80.0047 77.8369 80.0047 78.887C79.8731 79.9372 79.0835 80.8561 78.0301 80.8561Z" fill="#E0E0E0"/>
<path d="M73.03 81.9006H70.9228C70.3961 81.9006 69.8691 81.3755 69.8691 80.8504C69.8691 80.3253 70.3961 79.8003 70.9228 79.8003H73.03C73.5567 79.8003 74.0829 80.3253 74.0829 80.8504C74.0829 81.3755 73.6884 81.9006 73.03 81.9006Z" fill="#E0E0E0"/>
<path d="M38.5536 48.4336H30.2578V76.0005H38.5536V48.4336Z" fill="#37A351"/>
<path d="M53.948 41.7266H38.541V54.9849H53.948V41.7266Z" fill="#E0E0E0"/>
<path d="M54.0556 27.2939H40.4922V31.6258H54.0556V27.2939Z" fill="#E0E0E0"/>
<path d="M51.5564 31.6289H48V34.2544H51.5564V31.6289Z" fill="#E0E0E0"/>
<path d="M41.4385 27.2944H38.541V42.7843H41.4385V27.2944Z" fill="#E0E0E0"/>
<path d="M72.8896 70.2251H15.8712C13.7643 70.2251 12.0527 68.5185 12.0527 66.4182C12.0527 64.3179 13.7643 62.6113 15.8712 62.6113H72.8896C74.9965 62.6113 76.7081 64.3179 76.7081 66.4182C76.7081 68.5185 74.9965 70.2251 72.8896 70.2251Z" fill="#37A351"/>
<path d="M192.325 87.9551H108.443V102.001H192.325V87.9551Z" fill="#E0E0E0"/>
<path d="M159.296 7.35116C159.296 11.4205 151.921 20.872 151.921 20.872C151.921 20.872 144.547 11.4205 144.547 7.35116C144.547 3.28178 147.839 0 151.921 0C156.004 0 159.296 3.28178 159.296 7.35116Z" fill="#37A351"/>
<path d="M148.617 12.7267V3.93164H150.065L154.015 11.414V3.93164H155.069V12.7267H153.62L149.671 5.24432V12.7267H148.617Z" fill="black"/>
<path d="M132.307 91.7627H133.623L135.599 95.307L136.258 96.7509C136.126 96.0946 136.126 95.1757 136.126 94.3881V91.7627H137.443V98.4575H136.126L134.15 94.9132L133.492 93.4692C133.492 94.1255 133.623 95.0444 133.623 95.832V98.4575H132.307V91.7627Z" fill="#37A351"/>
<path d="M139.037 91.7642H141.276C142.725 91.7642 143.91 92.2892 143.91 93.8645C143.91 95.4397 142.725 96.0961 141.276 96.0961H140.354V98.4589H139.037V91.7642ZM141.144 94.9146C142.066 94.9146 142.461 94.5208 142.461 93.7332C142.461 92.9456 141.934 92.683 141.013 92.683H140.223V94.9146H141.144Z" fill="#37A351"/>
<path d="M144.965 91.7642H146.282V97.2775H149.046V98.3277H144.965V91.7642Z" fill="#37A351"/>
<path d="M149.547 97.54L150.205 96.7524C150.6 97.1462 151.127 97.4088 151.654 97.4088C152.312 97.4088 152.839 97.015 152.839 96.4899C152.839 95.8335 152.444 95.4397 150.995 95.4397V94.5208C152.18 94.5208 152.575 94.127 152.575 93.4706C152.575 92.9456 152.312 92.683 151.654 92.683C151.127 92.683 150.732 92.9456 150.337 93.3394L149.679 92.5517C150.205 92.0267 150.863 91.7642 151.654 91.7642C152.97 91.7642 153.761 92.4205 153.761 93.4706C153.761 94.127 153.366 94.6521 152.707 95.0459C153.497 95.3084 154.024 95.8335 154.024 96.6211C154.024 97.8026 152.97 98.5902 151.654 98.5902C150.732 98.4589 150.074 98.0651 149.547 97.54Z" fill="#37A351"/>
<path d="M154.943 97.5366L155.602 96.749C155.997 97.1428 156.524 97.4053 157.051 97.4053C157.71 97.4053 158.236 97.0115 158.236 96.4865C158.236 95.8301 157.841 95.4363 156.392 95.4363V94.5174C157.577 94.5174 157.973 94.1236 157.973 93.4672C157.973 92.9421 157.71 92.6796 157.051 92.6796C156.524 92.6796 156.129 92.9422 155.734 93.336L155.075 92.5483C155.602 92.0232 156.261 91.7607 157.051 91.7607C158.368 91.7607 159.158 92.4171 159.158 93.4672C159.158 94.1236 158.763 94.6487 158.104 95.0425C158.895 95.305 159.422 95.8301 159.422 96.6177C159.422 97.7991 158.368 98.5868 157.051 98.5868C156.129 98.4555 155.339 98.0617 154.943 97.5366Z" fill="#37A351"/>
<path d="M160.348 95.0483C160.348 92.6855 161.269 91.6353 162.586 91.6353C163.903 91.6353 164.825 92.8167 164.825 95.0483C164.825 97.28 163.903 98.4614 162.586 98.4614C161.269 98.4614 160.348 97.28 160.348 95.0483ZM163.64 95.0483C163.64 93.2105 163.245 92.6855 162.586 92.6855C162.059 92.6855 161.532 93.2105 161.532 95.0483C161.532 96.8862 161.928 97.5425 162.586 97.5425C163.245 97.4112 163.64 96.8862 163.64 95.0483Z" fill="#37A351"/>
<path d="M166.154 91.7627H167.471V94.3881H169.972V91.7627H171.289V98.4575H169.972V95.5695H167.471V98.4575H166.154V91.7627Z" fill="#37A351"/>
<path d="M188.135 77.4488H115.314C108.598 77.4488 103.199 72.0666 103.199 65.3718V40.5617C103.199 33.8669 108.598 28.4849 115.314 28.4849H188.135C194.851 28.4849 200.381 33.8669 200.381 40.5617V65.3718C200.381 71.9354 194.851 77.4488 188.135 77.4488Z" fill="#E0E0E0"/>
<path d="M184.196 49.2216H182.747V29.0059H126.913V49.2216H125.465V27.562H184.196V49.2216Z" fill="#37A351"/>
<path d="M142.166 50.9302H125.574V77.4468H142.166V50.9302Z" fill="#37A351"/>
<path d="M183.383 35.4341H125.574V41.9976H183.383V35.4341Z" fill="#37A351"/>
<path d="M141.396 50.1348H126.517C126.122 50.1348 125.727 49.741 125.727 49.3472C125.727 48.9534 126.122 48.5596 126.517 48.5596H141.396C141.791 48.5596 142.186 48.9534 142.186 49.3472C142.186 49.741 141.791 50.1348 141.396 50.1348Z" fill="#37A351"/>
<path d="M162.309 50.1348H147.298C146.903 50.1348 146.508 49.741 146.508 49.3472C146.508 48.9534 146.903 48.5596 147.298 48.5596H162.309C162.704 48.5596 163.099 48.9534 163.099 49.3472C163.099 49.741 162.704 50.1348 162.309 50.1348Z" fill="#37A351"/>
<path d="M183.11 50.1348H168.23C167.834 50.1348 167.439 49.741 167.439 49.3472C167.439 48.9534 167.834 48.5596 168.23 48.5596H183.11C183.505 48.5596 183.9 48.9534 183.9 49.3472C184.031 49.741 183.636 50.1348 183.11 50.1348Z" fill="#37A351"/>
<path d="M163.099 50.9316H146.508V77.4483H163.099V50.9316Z" fill="#37A351"/>
<path d="M183.927 50.9302H167.334V77.4468H183.927V50.9302Z" fill="#37A351"/>
</svg>
