<svg width="164" height="106" viewBox="0 0 164 106" fill="none" xmlns="http://www.w3.org/2000/svg">
<path d="M83.9121 65.1513L83.9378 65.1125C83.919 65.0994 83.9003 65.087 83.8809 65.0752C83.8961 65.098 83.9072 65.1229 83.9121 65.1513Z" fill="#E0E0E0"/>
<path d="M99.2645 50.4847C98.1767 50.9475 96.938 50.5808 95.782 50.3337C94.626 50.0859 93.2427 50.0323 92.449 50.9056C92.2162 51.1623 92.0522 51.4843 91.7753 51.693C90.9906 52.2841 89.6754 51.255 90.0661 50.355C88.9562 50.2438 87.8684 49.9122 86.886 49.3849C86.9232 48.7911 87.0417 48.2027 87.2374 47.6411C85.5233 47.9267 83.8086 48.2123 82.0946 48.4979C81.4249 48.6091 80.7553 48.721 80.085 48.8254C79.5249 48.9126 78.9517 48.9991 78.4523 49.2661C78.041 49.4865 77.7027 49.8181 77.3706 50.1456C75.0972 52.3844 72.6412 55.1181 73.0525 58.2762C73.1173 58.7746 73.2551 59.2744 73.1827 59.7715C73.1304 60.1292 72.9719 60.4621 72.8941 60.815C72.6254 62.0336 73.3591 63.2645 74.2767 64.1131C75.5678 65.307 77.3018 65.9489 79.0489 66.034C79.9321 66.0773 80.869 65.9997 81.715 65.7285C82.2358 65.5617 82.7063 65.2438 83.2637 65.1752C84.233 65.0564 84.1083 65.8239 84.7655 66.1576C85.2932 66.4254 85.9498 65.85 86.5002 66.069C87.03 66.2798 87.0417 67.0302 86.8584 67.5691C86.6752 68.108 86.3914 68.6991 86.6359 69.2127C86.7854 69.5264 87.0989 69.7221 87.3655 69.9466C88.7206 71.089 88.9169 73.0627 89.0148 74.8292C89.0313 75.1278 89.0458 75.4388 88.9286 75.7141C88.7785 76.0677 88.4361 76.3046 88.2425 76.6368C87.6424 77.6646 88.6613 78.8379 89.0582 79.959C89.4998 81.205 89.1629 82.6818 89.8428 83.8159C90.1033 84.2505 90.5001 84.6054 90.6833 85.0778C91.1105 86.1803 90.3568 87.7717 91.3447 88.426C91.8242 88.7439 92.4614 88.6086 93.0188 88.4617C95.173 87.8932 97.4864 87.2232 98.8505 85.4664C99.2128 84.9995 99.4905 84.4743 99.7667 83.9525C99.9334 83.6374 100.1 83.3223 100.267 83.0072C100.612 82.3543 100.968 81.6362 100.831 80.9112C100.723 80.3393 100.323 79.7235 100.635 79.2319C100.784 78.9978 101.056 78.8777 101.306 78.7575C102.717 78.0786 104.012 76.7693 103.956 75.2089C103.917 74.1015 103.204 73.082 103.259 71.976C103.32 70.7224 104.325 69.7441 105.273 68.9168C107.386 67.0714 109.714 65.0056 110.012 62.221C108.833 61.4054 107.217 63.2879 105.908 62.7023C105.423 62.4853 105.144 61.9862 104.863 61.5365C104.208 60.4855 103.377 59.5429 102.414 58.7616C102.196 58.5851 101.959 58.3977 101.884 58.1279C101.826 57.9144 101.882 57.6892 101.889 57.4682C101.922 56.5489 101.157 55.8301 100.564 55.1257C100.04 54.503 99.6262 53.5741 99.9624 52.8938C99.7288 52.0857 99.4863 51.2859 99.3017 50.4689C99.2886 50.4737 99.2769 50.4799 99.2645 50.4847Z" fill="#E0E0E0"/>
<path d="M101.391 39.4141C101.112 38.3032 99.9976 38.3959 98.976 38.2106C98.697 38.1179 98.7899 37.6552 98.4186 37.5625C97.7683 37.2844 96.9319 37.5625 96.5606 37.2844C96.1893 36.9144 97.211 36.451 96.9319 35.8956C96.5606 35.0621 95.9103 34.414 94.8879 34.5067C94.9809 34.1367 94.2376 34.044 94.4236 33.5813C94.5166 33.4886 94.8879 33.3959 94.7949 33.3032C94.7164 32.7574 94.5076 32.2769 94.4987 31.6961C94.2569 31.6638 93.9971 31.5986 93.7698 31.5814C92.9769 31.5217 92.3024 32.4341 92.5435 33.1735C92.3017 32.7375 91.4316 33.3238 91.4316 33.9273C91.4316 34.5733 91.6362 35.4123 91.0637 35.7157C90.5402 34.9516 89.4069 35.702 88.5189 35.9711C87.5606 36.2608 86.22 35.8894 86.233 34.6996C86.2358 34.4587 86.2778 34.1614 86.0753 34.0303C85.9616 33.9568 85.8142 33.9726 85.6798 33.9918C85.3981 34.0323 85.0674 34.1133 84.9661 34.379C84.8897 34.5802 84.9813 34.8012 85.0447 35.0065C85.1356 35.3017 85.1659 35.6258 85.0646 35.9182C84.9634 36.21 84.7119 36.462 84.4047 36.5045C84.2979 36.5196 84.1883 36.5093 84.0816 36.5238C83.766 36.567 83.5008 36.8512 83.4794 37.1684C83.4664 37.3634 83.5304 37.5831 83.4126 37.7396C83.29 37.9037 83.0427 37.8975 82.8622 37.9957C82.5494 38.1666 82.5122 38.5538 82.3186 38.8188C82.2056 38.974 82.0982 38.985 81.9569 39.0825C81.8502 39.1559 81.6449 39.4374 81.5332 39.4573C81.2467 39.5095 80.949 39.2411 80.9732 38.952C80.1788 39.0385 79.5561 39.8836 79.7118 40.6649C80.3311 40.426 81.113 40.7803 81.3404 41.4016C81.5677 42.0236 81.1971 42.7952 80.5688 43.0094C79.8792 43.2442 79.1282 42.8543 78.4035 42.9284C76.6874 43.1035 76.3209 45.4137 76.4242 47.13C77.397 47.7019 78.5812 48.2882 79.5995 47.8008C80.1168 47.5529 80.4744 47.071 80.8099 46.6069C81.4478 45.7254 82.0865 44.8439 82.7244 43.9623C82.9421 43.661 83.1763 43.3472 83.516 43.1955C84.2111 42.8859 85.221 43.2992 85.6702 42.6868C87.522 43.6658 89.0438 45.2523 89.9415 47.1396C90.1502 46.3762 90.3824 45.5716 90.9604 45.0285C89.3511 44.9077 87.9602 43.4371 87.9333 41.8293C89.6997 42.5069 91.1581 43.9431 91.8594 45.6952C92.1102 46.3226 92.3134 47.0449 92.8963 47.3895C93.4791 47.7342 94.4753 47.1863 94.179 46.5794C93.9076 46.0233 92.8074 45.6574 93.2449 45.2187C94.2169 45.172 95.1883 45.1253 96.1604 45.078C95.4735 43.8079 95.7057 42.1073 96.708 41.0665C96.5544 41.9419 97.9715 42.1561 98.7211 41.6748C99.4217 41.2244 100.124 40.4981 100.914 40.6052C101.287 40.275 101.522 39.8672 101.391 39.4141Z" fill="#E0E0E0"/>
<path d="M149.328 38.6732C149.142 38.4879 149.514 37.5624 149.421 37.007C149.328 36.8217 149.142 36.4516 148.956 36.4516C148.12 36.4516 147.749 37.4697 146.912 36.8216C146.726 36.5436 146.819 36.0809 146.541 35.8962C145.984 35.2481 145.147 35.3408 144.405 34.7854C144.312 34.6927 143.94 34.6927 143.847 34.5073C143.104 33.7666 143.197 32.6558 141.989 32.4704C141.525 32.4704 140.317 32.3777 140.689 32.9331C140.968 33.4885 140.875 33.9513 140.596 34.5067C140.41 34.9694 141.246 35.5248 140.875 35.8028C140.689 35.9882 140.41 36.3582 140.131 36.2656C138.644 35.8955 137.809 36.4509 136.601 37.099C136.23 37.3771 135.672 37.1917 135.3 37.0063C134.557 36.4509 133.814 35.8955 132.885 36.5436C132.049 37.1917 131.491 35.8955 130.748 35.4328C130.469 35.2474 129.912 35.2474 129.819 35.4328C129.448 36.1736 129.726 37.7471 128.426 37.3771C127.311 37.099 126.196 37.099 125.174 37.8398C124.71 38.2098 124.059 37.4697 123.409 37.099C122.759 36.821 122.294 37.7471 121.644 37.2844C120.436 36.4509 120.25 34.7847 118.95 34.322C118.392 34.1366 118.392 34.8774 118.021 35.0628C117.835 35.1554 117.65 34.8774 117.557 34.8774C116.442 34.9701 116.07 34.4147 115.327 33.7666C115.141 33.4885 114.584 33.6739 114.399 33.9519C113.655 35.0628 112.448 34.7854 111.519 35.2481C111.333 35.3408 111.24 35.8962 111.333 36.1736C111.426 36.6363 112.076 37.099 111.704 37.5624C111.333 37.9325 110.776 37.4697 110.311 37.3771C109.567 37.1917 109.01 38.0251 108.36 37.7471C107.616 37.4691 106.781 36.6363 106.037 37.4691C105.944 37.7471 105.851 38.1171 105.666 38.2098C105.387 38.3952 104.923 38.1171 104.83 38.2098C104.272 39.3206 105.294 39.9687 106.13 40.7095C106.223 40.8022 106.037 41.0795 106.13 41.1722C106.409 41.3576 106.688 41.5423 106.781 41.7276C107.06 42.0977 106.781 42.7457 106.874 43.3012C107.153 44.412 108.267 45.6155 107.524 46.3562C107.153 46.7263 106.781 45.4308 105.759 45.8935C105.202 46.1715 104.272 45.3381 103.715 44.7827C103.505 44.5046 103.087 44.3831 102.656 44.2616C102.544 44.4909 102.358 44.6921 102.127 44.793C101.537 45.0504 100.859 44.8809 100.232 44.7339C99.2363 44.4992 98.1712 44.333 97.204 44.666C96.236 44.9989 95.4245 45.9841 95.6215 46.9858C95.8192 47.9867 97.328 48.5318 97.9452 47.7176C98.4833 48.076 99.2383 48.0746 99.7757 47.7149C100.823 48.2339 100.364 49.9811 99.3024 50.4672C99.487 51.2848 99.7295 52.084 99.9631 52.892C100.007 52.8028 100.064 52.717 100.135 52.6373C100.399 53.7653 101.839 54.2768 102.199 55.378C102.3 55.6842 102.307 56.0144 102.401 56.3219C102.801 57.625 104.607 58.1852 104.821 59.5308C104.914 60.1109 104.708 60.8119 105.133 61.2183C105.538 61.6041 106.198 61.4126 106.714 61.1991C107.546 60.8558 108.378 60.5119 109.209 60.1686C110.223 59.7498 111.239 59.3296 112.196 58.7921C112.776 58.4653 113.355 58.074 113.681 57.4939C114.006 56.9137 113.999 56.1002 113.502 55.6574C113.16 55.3526 112.661 55.2743 112.315 54.975C112.025 54.7258 111.803 54.3111 111.42 54.3145C111.011 54.3186 110.802 54.7951 110.48 55.0484C109.892 55.5105 108.855 54.9461 108.927 54.2033C108.174 53.6754 107.595 52.9023 107.302 52.0318C107.261 51.9089 107.225 51.7764 107.259 51.6508C107.356 51.2999 107.908 51.3219 108.154 51.5904C108.4 51.8595 108.462 52.2439 108.627 52.5687C109.026 53.3541 110.118 53.6939 110.895 53.2758C111.253 53.0829 111.667 52.7513 112.007 52.9744C112.268 53.1454 112.263 53.5291 112.441 53.7838C112.67 54.1113 113.132 54.1539 113.532 54.1614C115.141 54.1923 116.953 54.252 118.044 55.4308C118.379 55.7926 118.624 56.2437 119.025 56.5293C119.427 56.8149 120.084 56.8471 120.338 56.4256C120.035 57.4554 120.674 58.2587 121.174 59.2095C121.876 60.5462 122.579 61.8835 123.282 63.2202C123.416 63.4756 123.563 63.7447 123.812 63.891C124.301 64.1766 124.962 63.834 125.222 63.3328C125.483 62.8316 125.457 62.2371 125.435 61.6735C125.414 61.1091 125.414 60.5084 125.713 60.0299C126.002 59.5692 126.515 59.3077 126.951 58.9816C127.63 58.4735 128.158 57.7671 128.452 56.9728C128.556 56.6906 128.656 56.3679 128.924 56.2293C129.141 56.1167 129.403 56.1633 129.642 56.2121C130.292 56.3453 130.955 56.4826 131.529 56.8156C132.103 57.1485 132.581 57.7163 132.627 58.376C132.643 58.6163 132.607 58.8765 132.734 59.0818C132.858 59.285 133.104 59.3722 133.321 59.4704C134.697 60.091 135.488 61.7785 135.081 63.2285C135.021 63.444 134.937 63.661 134.955 63.8841C134.984 64.2322 135.248 64.5061 135.457 64.7862C135.901 65.3835 136.13 66.1133 136.551 66.7264C136.972 67.3394 137.709 67.8502 138.427 67.6504C138.362 66.8355 138.279 65.9712 137.781 65.3217C137.597 65.0821 137.366 64.8844 137.147 64.6757C136.723 64.2713 136.329 63.7887 136.24 63.2113C136.151 62.6339 136.476 61.9611 137.051 61.8451C137.581 61.738 138.109 62.141 138.327 62.6346C138.545 63.1282 138.529 63.6891 138.509 64.2281C139.508 63.8072 140.406 63.1523 141.112 62.3319C141.262 62.1568 141.409 61.9618 141.435 61.7339C141.473 61.4078 141.258 61.1105 141.04 60.8647C140.364 60.1027 139.516 59.4264 139.201 58.4591C138.886 57.4918 139.515 56.1496 140.529 56.2615C140.458 56.7085 140.659 57.3936 141.08 57.2234C141.319 57.1266 141.353 56.8094 141.488 56.5904C141.772 56.1304 142.48 56.1462 142.852 55.7535C143.081 55.5125 143.144 55.1583 143.337 54.8885C143.891 54.1154 145.228 54.3255 145.811 53.5744C146.085 53.2216 146.118 52.7417 146.103 52.2954C146.058 50.8942 145.659 49.506 144.954 48.2929C144.626 47.73 144.256 46.9514 144.737 46.5128C145.01 46.2642 145.536 46.1345 145.465 45.7727C145.045 45.1452 143.961 45.8544 143.319 45.4534C142.889 45.1843 142.896 44.5136 143.202 44.1092C143.506 43.7048 144.004 43.5009 144.475 43.3156C144.554 43.641 144.633 43.9657 144.712 44.2911C144.966 43.9362 145.515 43.8366 145.879 44.079C146.243 44.3213 146.359 44.8658 146.127 45.2351C146.437 45.2763 146.748 45.3182 147.058 45.3594C147.231 45.5729 147.235 45.9065 147.067 46.1242C147.511 46.4125 147.72 47.0167 147.548 47.5165C148.017 47.7499 148.631 47.6483 148.998 47.2762C149.365 46.9041 149.457 46.2903 149.215 45.8276C148.994 45.4074 148.56 45.1507 148.227 44.8122C147.895 44.4731 147.664 43.9197 147.946 43.538C148.053 43.3918 148.219 43.2984 148.336 43.1597C148.619 42.8254 148.559 42.3352 148.567 41.8979C148.575 41.4606 148.764 40.9278 149.201 40.8804C149.394 40.8598 149.591 40.9463 149.782 40.9106C150.032 40.864 150.195 40.6264 150.315 40.4026C150.339 40.3566 150.362 40.3106 150.386 40.2646C150.207 39.6907 149.864 39.1449 149.328 38.6732Z" fill="#E0E0E0"/>
<path d="M163.532 17.1898C163.506 16.9728 163.35 16.7916 163.174 16.6618C162.235 15.9725 160.762 16.4414 159.864 15.6993C159.612 15.4906 159.464 15.0361 159.75 14.8768C159.931 14.7766 160.152 14.8775 160.357 14.8974C160.956 14.9551 161.39 14.0955 160.987 13.6514C160.853 13.5038 160.657 13.4042 160.578 13.2209C160.427 12.868 160.844 12.5 161.229 12.4932C161.614 12.4863 161.969 12.6861 162.345 12.7692C162.722 12.8522 163.207 12.752 163.323 12.3861C163.436 12.0277 163.128 11.6865 163.024 11.3254C162.852 10.7336 163.196 9.95781 162.726 9.55825C162.044 8.97882 160.847 10.1947 160.179 9.59944C160.031 9.46763 159.956 9.27265 159.821 9.12642C159.536 8.81474 159.06 8.78865 158.637 8.78865C156.93 8.7859 155.222 8.83533 153.518 8.93625C153.069 8.96303 152.517 9.07219 152.397 9.50333C152.843 9.7038 153.135 10.2015 153.092 10.6876C152.812 10.9588 152.345 10.7425 152.047 10.4913C151.749 10.24 151.377 9.93859 151.015 10.0834C150.775 10.1796 150.649 10.4411 150.444 10.599C150.094 10.8695 149.596 10.7892 149.162 10.8791C148.728 10.9691 148.301 11.4929 148.607 11.8128C148.455 12.0922 148.017 12.062 147.773 11.8561C147.53 11.6501 147.411 11.3384 147.235 11.0734C146.836 10.4707 146.099 10.1061 145.376 10.1542C145.3 9.99626 145.224 9.83767 145.148 9.67977C142.117 8.81611 140.286 9.43056 137.22 10.1562C137.54 10.9018 137.531 11.7812 137.194 12.52C136.08 11.9433 134.532 13.1042 134.778 14.331C134.247 13.4907 133.56 12.7486 132.761 12.154C131.709 11.3707 129.751 11.162 129.48 12.4431C127.897 11.4119 125.525 11.8746 124.448 13.4241C123.96 12.3806 123.965 11.1201 124.463 10.0814C123.475 8.59848 121.354 7.99502 119.73 8.73372C119.705 8.38634 119.68 8.03895 119.655 7.69157C118.842 7.33732 117.818 8.28061 118.109 9.11681C118.41 9.32483 118.711 9.53285 119.012 9.74087C117.06 10.5997 115.374 12.049 114.236 13.8484C114.807 14.0489 115.379 14.2486 115.951 14.4491C115.152 15.2043 114.185 15.781 113.14 16.1243C114.775 16.3975 115.62 18.1777 116.198 19.7265C114.769 18.9061 113.341 18.085 111.912 17.2646C111.767 17.8138 111.621 18.363 111.476 18.9123C111.884 19.2027 112.163 19.6352 112.432 20.0574C113.008 20.9623 113.608 21.9721 113.449 23.0315C113.29 24.0908 111.916 24.9538 111.107 24.2466C111.977 24.1361 112.26 22.9608 111.981 22.1328C111.702 21.3048 111.093 20.5943 110.951 19.7334C110.862 19.1965 110.959 18.6219 110.745 18.1214C110.531 17.6209 109.769 17.3092 109.45 17.752C109.511 18.5978 109.254 19.4622 108.741 20.1384C109.539 20.7693 110.189 21.587 110.622 22.5063C109.41 22.117 108.197 21.7277 106.984 21.3385C107.225 21.703 107.122 22.2495 106.766 22.5028C105.889 22.4829 105.013 22.4637 104.137 22.4438C103.322 23.1001 102.507 23.7564 101.692 24.4128C101.82 23.6061 101.155 22.7637 100.338 22.6971C100.354 23.5979 100.37 24.4986 100.385 25.3993C99.5202 25.319 98.8906 26.5527 99.4644 27.2022C98.8919 27.1761 98.3277 26.988 97.8544 26.666C98.0673 27.0168 98.0452 27.4946 97.8 27.8242C97.0325 27.1287 96.7563 25.9458 97.1366 24.984C97.4349 25.2524 97.7339 25.5208 98.0322 25.7886C98.5426 25.5256 98.9484 25.0677 99.1475 24.5309C97.9708 23.1955 96.2058 22.395 94.4222 22.3868C94.5531 21.8644 94.2114 21.2698 93.6934 21.1167C93.1753 20.9643 92.5642 21.2787 92.3892 21.7882C92.0882 21.5472 91.7864 21.3055 91.4854 21.0645C87.4607 23.8443 84.5473 28.1777 83.498 32.945C83.7743 33.4798 84.6107 33.0363 84.8938 32.5049C85.1776 31.9736 85.5372 31.2616 86.1304 31.3735C87.3519 31.6042 86.1483 34.375 87.3897 34.4499C87.6178 34.4636 87.8327 34.3435 88.0167 34.2089C89.1389 33.3871 89.6377 31.8115 89.192 30.4968C89.0879 30.1913 88.9371 29.8844 88.9722 29.5631C89.0514 28.834 89.9629 28.5512 90.4237 27.9793C90.7882 27.5276 90.864 26.8877 91.2539 26.4573C91.6438 26.0268 92.6152 26.1449 92.5339 26.7195C91.3745 27.5482 90.7386 29.0482 90.9508 30.4549C92.0096 30.4913 93.0685 30.5277 94.1274 30.5641C94.6957 30.5833 95.49 30.9376 95.2434 31.4484C95.1111 31.723 94.8204 31.7401 94.4966 31.6969C94.5056 32.2777 94.7143 32.7583 94.7929 33.3041C94.8859 33.3967 94.5138 33.4894 94.4215 33.5821C94.2355 34.0448 94.9789 34.1375 94.8859 34.5076C95.9075 34.4149 96.5579 35.063 96.9299 35.8964C97.2089 36.4518 96.1865 36.9145 96.5586 37.2853C96.9299 37.5633 97.7662 37.2853 98.4166 37.5633C98.7879 37.656 98.6956 38.1187 98.9739 38.2114C99.9956 38.3968 101.111 38.3041 101.389 39.4149C101.519 39.868 101.285 40.2758 100.91 40.6067C100.965 40.6143 101.02 40.6252 101.076 40.641C100.543 40.825 100.326 41.5294 100.542 42.0484C100.758 42.5675 101.292 42.8977 101.84 43.0295C102.067 43.0844 102.31 43.1146 102.5 43.2519C102.817 43.4812 102.826 43.9069 102.652 44.2639C103.083 44.3854 103.502 44.5069 103.711 44.785C104.268 45.3404 105.198 46.1738 105.755 45.8958C106.777 45.433 107.149 46.7292 107.52 46.3585C108.263 45.6177 107.149 44.4142 106.87 43.3034C106.777 42.748 107.056 42.0999 106.777 41.7299C106.684 41.5445 106.405 41.3598 106.126 41.1745C106.033 41.0818 106.219 40.8044 106.126 40.7118C105.29 39.971 104.268 39.3229 104.826 38.2121C104.919 38.1194 105.383 38.3974 105.662 38.2121C105.848 38.1194 105.941 37.7494 106.033 37.4713C106.777 36.6379 107.612 37.4713 108.356 37.7494C109.006 38.0274 109.563 37.194 110.307 37.3793C110.771 37.472 111.328 37.9347 111.7 37.5647C112.072 37.102 111.421 36.6392 111.329 36.1758C111.236 35.8978 111.329 35.3424 111.515 35.2504C112.444 34.7877 113.652 35.065 114.395 33.9542C114.581 33.6762 115.138 33.4915 115.323 33.7688C116.067 34.4169 116.438 34.9723 117.553 34.8797C117.646 34.8797 117.832 35.1577 118.017 35.065C118.388 34.8797 118.388 34.1396 118.946 34.3242C120.246 34.787 120.432 36.4539 121.64 37.2866C122.29 37.7494 122.755 36.8239 123.405 37.1013C124.055 37.4713 124.706 38.2121 125.17 37.842C126.192 37.1013 127.307 37.1013 128.422 37.3793C129.722 37.7494 129.443 36.1758 129.815 35.4351C129.908 35.2497 130.466 35.2497 130.744 35.4351C131.487 35.8978 132.045 37.194 132.881 36.5459C133.81 35.8978 134.553 36.4532 135.296 37.0086C135.668 37.194 136.225 37.3786 136.597 37.1013C137.805 36.4532 138.641 35.8978 140.127 36.2678C140.406 36.3605 140.684 35.9898 140.87 35.8051C141.242 35.5271 140.406 34.9716 140.591 34.5089C140.87 33.9535 140.963 33.4908 140.684 32.9354C140.313 32.38 141.521 32.4727 141.985 32.4727C143.193 32.658 143.1 33.7688 143.843 34.5096C143.936 34.695 144.307 34.695 144.4 34.7877C145.144 35.3431 145.979 35.2504 146.537 35.8985C146.816 36.0838 146.723 36.5466 146.908 36.8239C147.745 37.472 148.116 36.4539 148.952 36.4539C149.138 36.4539 149.324 36.8239 149.417 37.0093C149.51 37.5647 149.137 38.4908 149.324 38.6755C149.859 39.1471 150.203 39.6929 150.379 40.2669C151.312 38.4036 151.213 36.1999 151.142 34.1107C151.111 33.2272 151.064 32.2701 150.499 31.5884C149.933 30.9074 148.642 30.7996 148.267 31.6015C147.795 31.2259 147.324 30.8511 146.852 30.4755C147.428 29.0153 147.946 27.3717 148.522 25.9122C148.608 25.6938 148.71 25.457 148.92 25.3485C149.166 25.2208 149.468 25.3183 149.742 25.2737C150.307 25.1824 150.654 24.5185 151.223 24.454C151.538 24.4183 151.84 24.5796 152.114 24.7389C152.389 24.8988 152.683 25.0677 153 25.0492C153.318 25.0306 153.636 24.7279 153.541 24.4258C153.495 24.2782 153.367 24.1718 153.297 24.0338C152.985 23.4111 153.989 22.7788 153.834 22.1005C153.795 21.9289 153.682 21.7785 153.654 21.6048C153.604 21.2918 153.851 20.9918 154.146 20.8723C154.441 20.7529 154.771 20.7707 155.089 20.7906C155.134 21.2142 155.307 21.7593 155.734 21.7531C155.904 21.243 155.744 20.4673 156.267 20.3341C156.561 20.2592 156.854 20.5181 156.931 20.8098C157.007 21.1016 156.926 21.4085 156.847 21.6996C156.532 22.842 156.218 23.9844 155.903 25.1268C155.735 25.7371 155.566 26.3591 155.589 26.9914C155.62 27.8633 156.012 28.6796 156.437 29.443C156.877 30.2359 157.363 31.0049 157.887 31.7456C158.221 32.2159 158.808 32.7274 159.296 32.4198C159.856 32.0676 159.486 31.1621 159.78 30.5723C159.894 30.3424 160.115 30.157 160.146 29.9023C160.194 29.5247 159.805 29.2089 159.807 28.8279C159.809 28.4139 160.257 27.9711 159.989 27.656C159.899 27.5509 159.75 27.507 159.668 27.3958C159.455 27.1102 159.834 26.7422 159.843 26.3866C159.855 25.8916 159.222 25.7048 158.782 25.4755C158.186 25.1652 157.79 24.5082 157.794 23.8381C157.798 23.1688 158.202 22.5166 158.802 22.2131C159.008 22.1088 159.235 22.0422 159.418 21.9014C159.613 21.7518 159.776 21.5122 160.022 21.5101C160.392 21.506 160.713 22.049 161.019 21.841C161.014 21.1833 161.01 20.5167 161.178 19.8803C161.347 19.2439 161.713 18.6328 162.288 18.3095C162.549 18.1633 162.843 18.0802 163.096 17.9202C163.351 17.7596 163.568 17.4863 163.532 17.1898Z" fill="#E0E0E0"/>
<path d="M83.3622 65.041C83.3462 65.0527 83.331 65.0658 83.3164 65.0803C83.4114 65.034 83.4045 65.0306 83.3622 65.041Z" fill="#E0E0E0"/>
<path d="M108.973 9.30898C109.342 8.48583 110.151 7.96201 110.919 7.48418C111.455 7.15052 112.009 6.81 112.633 6.71045C112.932 6.6624 113.239 6.67201 113.537 6.61365C114.043 6.51479 114.507 6.21272 114.801 5.7905C114.901 5.6477 114.983 5.48293 114.979 5.30924C114.967 4.90899 114.489 4.66459 114.09 4.71539C113.691 4.76619 113.349 5.00923 112.99 5.19047C112.43 5.47264 111.797 5.61132 111.17 5.58866C110.833 5.5763 110.461 5.52893 110.191 5.73077C110.038 5.84542 109.947 6.02255 109.828 6.17084C109.578 6.48184 109.183 6.6727 108.783 6.67544C108.676 6.67613 108.561 6.66583 108.468 6.71801C108.182 6.87728 108.405 7.33451 108.275 7.63453C108.111 8.01144 107.438 8.02654 107.394 8.43503C107.364 8.71788 107.694 8.99112 107.567 9.24651C107.451 9.47787 107.073 9.43462 106.918 9.64264C106.758 9.85821 106.938 10.196 106.792 10.4212C106.656 10.6326 106.258 10.7898 106.412 10.9889C106.472 11.0658 106.584 11.0693 106.681 11.0816C107.049 11.1276 107.349 11.3885 107.627 11.6336C107.904 11.8787 108.214 12.132 108.584 12.1574C109.471 12.2178 109.144 11.5464 108.955 11.1283C108.703 10.5688 108.724 9.86439 108.973 9.30898Z" fill="#E0E0E0"/>
<path d="M79.3102 28.2771C79.0718 28.6197 79.0353 29.1408 79.3446 29.4216C79.4025 29.4744 79.4721 29.519 79.5065 29.5884C79.6347 29.8438 79.211 30.141 79.3495 30.3909C79.5775 30.5035 79.8145 30.634 79.9371 30.8557C80.0597 31.0775 80.0032 31.4146 79.7642 31.5024C79.5534 31.58 79.3315 31.4365 79.1531 31.3006C78.9485 31.418 79.2806 31.7613 79.1483 31.9562C79.0498 32.1011 78.7811 32.0256 78.6853 32.1718C78.5854 32.3249 78.7825 32.4931 78.9402 32.5858C79.098 32.6778 79.2509 32.9119 79.098 33.0121C78.7983 32.9689 78.4835 32.9277 78.2003 33.0355C77.9179 33.1433 77.6885 33.4549 77.7836 33.7419C78.8713 33.584 79.9881 33.6321 81.058 33.882C81.2536 33.928 81.4658 33.9788 81.6484 33.8964C81.8316 33.814 81.9232 33.5291 81.7586 33.4137C81.7124 33.3815 81.6525 33.3671 81.6153 33.3245C81.5395 33.2394 81.6008 33.1014 81.6883 33.0286C81.7758 32.9558 81.8888 32.9091 81.9501 32.813C82.0665 32.6318 81.9329 32.3915 81.7689 32.2521C81.605 32.1121 81.399 32.0009 81.3163 31.8025C81.2074 31.5402 81.359 31.2271 81.2605 30.9614C81.1131 30.5633 80.4758 30.4308 80.4772 30.0065C80.4779 29.7456 80.7321 29.5692 80.9505 29.4264C81.1689 29.2836 81.4052 29.0639 81.3466 28.8099C81.2688 28.4762 80.8017 28.4604 80.4641 28.5222C80.3043 28.2922 80.7045 28.0711 80.7845 27.8027C80.9195 27.3462 80.429 27.3997 80.203 27.4993C79.9316 27.618 79.4824 28.0293 79.3102 28.2771Z" fill="#E0E0E0"/>
<path d="M76.8585 31.1346C76.7875 31.2307 76.7145 31.3303 76.6869 31.4463C76.6421 31.6324 76.7193 31.8342 76.6601 32.0161C76.6215 32.1342 76.5285 32.2331 76.5154 32.3567C76.4906 32.5805 76.74 32.7432 76.9646 32.7631C77.2656 32.7892 77.5625 32.6635 77.8078 32.4878C78.0689 32.301 78.2983 32.0347 78.3369 31.7168C78.3658 31.4799 78.2873 31.2294 78.3713 31.0055C78.5504 30.5284 78.4602 30.1254 77.7844 30.225C77.3338 30.2915 77.1113 30.7927 76.8585 31.1346Z" fill="#E0E0E0"/>
<path d="M84.7424 45.0636C84.8202 45.3348 85.0221 45.5497 85.1599 45.7955C85.2418 45.9403 85.3031 46.1003 85.4147 46.2239C85.5264 46.3475 85.7096 46.4292 85.8625 46.3619C86.1684 46.2273 86.0947 45.6609 86.4178 45.5751C86.5363 45.5435 86.6727 45.5957 86.7802 45.536C86.8952 45.4721 86.9125 45.3039 86.8518 45.1872C86.7912 45.0705 86.6762 44.9943 86.5659 44.9222C86.3407 44.776 86.1161 44.6297 85.8908 44.4828C85.7565 44.3956 85.6194 44.3071 85.463 44.2714C85.0193 44.1691 84.6225 44.6449 84.7424 45.0636Z" fill="#E0E0E0"/>
<path d="M87.0607 47.3279C87.14 47.4068 87.2502 47.4446 87.3528 47.4892C87.6133 47.6025 87.8475 47.7755 88.0321 47.9904C88.2154 48.2039 88.3821 48.4785 88.6604 48.5238C88.7086 48.5314 88.7617 48.5307 88.8016 48.5026C88.8375 48.4765 88.8561 48.4332 88.8726 48.392C89.0131 48.0426 89.153 47.6931 89.2935 47.3437C89.3059 47.3135 89.3183 47.2805 89.3121 47.2483C89.3038 47.2057 89.266 47.1755 89.2288 47.1521C89.0944 47.0677 88.9415 47.0183 88.7906 46.9695C88.2794 46.8041 87.7683 46.6386 87.2571 46.4732C86.7969 46.3235 86.8403 47.1096 87.0607 47.3279Z" fill="#E0E0E0"/>
<path d="M90.3871 47.9148C90.2066 47.9547 90.1191 48.1558 90.0619 48.3309C90.0261 48.4421 89.9903 48.5595 90.013 48.6741C90.0647 48.933 90.3802 49.0442 90.6454 49.0387C90.91 49.0325 91.1835 48.9591 91.4342 49.0449C91.5968 49.1005 91.7298 49.2179 91.8779 49.3051C92.4986 49.673 93.2867 49.4904 93.9825 49.2968C94.1486 49.2508 94.3201 49.2021 94.4538 49.0936C94.5874 48.9851 94.6742 48.7998 94.6157 48.6384C94.5385 48.4256 94.2691 48.3611 94.0425 48.3583C93.6588 48.3528 93.2668 48.4297 92.8961 48.3309C92.7459 48.2911 92.6033 48.2224 92.4504 48.1929C91.9874 48.1036 91.7518 48.5355 91.3612 48.5286C90.9423 48.5204 90.8087 47.8215 90.3871 47.9148Z" fill="#E0E0E0"/>
<path d="M96.1525 48.8514C96.0017 49.0072 96.0072 49.2653 96.1071 49.4576C96.207 49.6498 96.3806 49.7919 96.5493 49.9278C96.7739 50.1084 97.0254 50.2986 97.3141 50.2931C97.5628 50.2883 97.7887 50.1359 98.0374 50.1208C98.1421 50.1139 98.2482 50.1318 98.3509 50.1125C98.4535 50.0926 98.5583 50.0198 98.5651 49.9155C98.5693 49.8523 98.5369 49.7878 98.5541 49.7267C98.5886 49.6045 98.7608 49.6134 98.8883 49.6189C99.1631 49.6292 99.4387 49.4816 99.5799 49.2468C99.0329 48.9701 98.3144 49.2846 97.7805 48.9818C97.4077 48.7697 96.5163 48.4765 96.1525 48.8514Z" fill="#E0E0E0"/>
<path d="M110.869 66.6908C110.844 66.8494 110.958 67.0011 111.094 67.0869C111.23 67.1728 111.389 67.2139 111.534 67.286C111.843 67.4398 112.074 67.7419 112.14 68.0797C112.19 68.335 112.152 68.6083 112.247 68.8506C112.346 69.1026 112.594 69.29 112.864 69.3182C112.903 69.3223 112.944 69.323 112.979 69.3051C113.024 69.2818 113.048 69.233 113.064 69.1857C113.189 68.7998 112.894 68.3392 113.103 67.9911C113.135 67.9375 113.178 67.8902 113.201 67.8318C113.295 67.6018 113.049 67.3787 112.822 67.2764C112.518 67.1384 112.429 67.0416 112.275 66.7725C112.16 66.5714 112.302 66.3661 111.994 66.235C111.704 66.1114 111.802 66.2507 111.655 66.3256C111.688 66.3084 111.536 66.5768 111.465 66.6235C111.351 66.6977 111.005 66.675 110.869 66.6908Z" fill="#E0E0E0"/>
<path d="M122.366 67.3883C122.445 68.0089 122.919 67.4583 123.093 67.2153C123.417 66.7635 123.662 66.1855 123.727 65.6321C123.747 65.4584 123.734 65.2477 123.582 65.1591C123.495 65.1083 123.383 65.1158 123.289 65.1529C122.758 65.3644 122.944 66.02 122.768 66.4361C122.632 66.7567 122.318 67.0073 122.366 67.3883Z" fill="#E0E0E0"/>
<path d="M106.034 76.6724C105.358 77.0912 104.468 77.3974 104.262 78.1635C104.043 78.9771 104.762 79.8737 104.417 80.6426C104.289 80.9282 104.033 81.1369 103.88 81.4095C103.651 81.8186 103.678 82.3164 103.712 82.7839C103.745 83.2418 103.781 83.7107 103.968 84.1302C104.156 84.5496 104.528 84.9176 104.985 84.9698C105.478 85.0261 105.943 84.7096 106.259 84.3279C107.17 83.2281 107.174 81.6648 107.634 80.3144C107.766 79.9259 107.939 79.5469 107.998 79.1411C108.04 78.8514 108.022 78.5562 108.05 78.2651C108.109 77.6479 108.369 77.0603 108.399 76.441C108.416 76.0627 108.129 74.8654 107.527 75.0295C107.369 75.0728 107.054 75.76 106.923 75.9117C106.667 76.2076 106.367 76.4657 106.034 76.6724Z" fill="#E0E0E0"/>
<path d="M109.037 77.3516C109.051 77.4299 109.063 77.5109 109.046 77.5885C108.998 77.7999 108.744 77.9207 108.704 78.1342C108.642 78.4755 109.154 78.6821 109.172 79.0288C109.182 79.2368 109.005 79.4236 109.028 79.6309C109.055 79.8863 109.362 80.0133 109.619 80.0105C110.02 80.0064 110.412 79.8142 110.67 79.5087C110.852 79.2931 110.969 78.9835 110.847 78.7295C110.818 78.6697 110.777 78.6141 110.763 78.5496C110.713 78.3182 111.01 78.1665 111.096 77.9461C111.182 77.7237 111.038 77.4793 110.879 77.3015C110.323 76.6802 108.766 75.8227 109.037 77.3516Z" fill="#E0E0E0"/>
<path d="M135.138 68.5844C135.169 68.6819 135.232 68.7643 135.295 68.8446C136.343 70.1662 137.623 71.2845 138.894 72.394C139.551 72.9672 140.208 73.5405 140.865 74.1137C141.016 74.2455 141.191 74.3856 141.391 74.3671C141.711 74.3369 141.84 73.9497 141.896 73.6345C141.958 73.2865 142.018 72.9185 141.891 72.5889C141.707 72.1097 141.195 71.8578 140.81 71.5166C140.312 71.0744 139.998 70.4415 139.452 70.0584C138.701 69.5318 137.769 69.4988 137.084 68.8535C136.766 68.5535 136.476 68.1114 136.037 67.9789C135.664 67.8663 134.973 68.0544 135.138 68.5844Z" fill="#E0E0E0"/>
<path d="M142.504 69.4581C142.583 69.0949 142.507 68.6747 142.222 68.4365C142.008 68.258 141.669 68.1489 141.647 67.8715C141.634 67.6916 141.771 67.5413 141.873 67.3923C142.095 67.0655 142.167 66.6412 142.064 66.2595C142.035 66.1497 141.991 66.0323 142.03 65.9252C142.07 65.8147 142.184 65.7501 142.247 65.6506C142.43 65.365 142.116 64.9853 142.21 64.6592C142.312 64.3016 142.818 64.2542 143.164 64.3929C143.51 64.5322 143.83 64.7849 144.203 64.7794C144.423 64.7759 144.633 64.6812 144.852 64.6709C145.213 64.6537 145.571 64.8933 145.691 65.2325C145.766 65.4453 145.755 65.6849 145.855 65.8874C145.975 66.1325 146.231 66.2753 146.435 66.4566C146.64 66.6385 146.806 66.9351 146.675 67.1754C146.48 67.5344 145.828 67.4184 145.656 67.7891C145.546 68.0253 145.7 68.3514 145.523 68.5416C145.383 68.6905 145.122 68.6528 144.97 68.7901C144.783 68.9597 144.873 69.2686 144.794 69.5089C144.657 69.929 144.048 70.0341 143.886 70.4453C143.745 70.8002 143.988 71.2712 143.731 71.5534C143.572 71.7278 143.283 71.7257 143.075 71.6131C142.867 71.5012 142.72 71.3048 142.58 71.1147C142.396 70.8648 142.104 70.6025 142.13 70.2895C142.154 70.0101 142.504 69.7705 142.504 69.4581Z" fill="#E0E0E0"/>
<path d="M148.253 65.8725C148.272 65.994 148.356 66.0949 148.436 66.189C148.758 66.5659 149.081 66.9428 149.402 67.3197C149.622 67.5772 149.85 67.8408 150.151 67.9959C150.421 68.1353 150.731 68.1772 151.012 68.2918C151.294 68.4058 151.568 68.6324 151.588 68.9344C151.609 69.2454 151.359 69.5153 151.33 69.8256C151.298 70.1709 151.594 70.5121 151.942 70.5299C152.021 70.5341 152.103 70.5224 152.168 70.4785C152.327 70.3714 152.316 70.14 152.376 69.9574C152.5 69.5825 153.04 69.4246 153.347 69.6732C153.456 69.761 153.532 69.8839 153.645 69.9656C153.985 70.2114 154.512 69.9402 154.633 69.54C154.753 69.1397 154.568 68.7044 154.303 68.3818C154.036 68.0591 153.691 67.8092 153.408 67.5003C153.118 67.1824 152.897 66.8062 152.611 66.4842C152.324 66.1622 151.943 65.8869 151.512 65.8711C151.194 65.8594 150.89 65.9885 150.576 66.0386C150.261 66.0887 149.885 66.027 149.727 65.7517C149.464 65.2917 149.93 64.7356 149.65 64.2797C149.473 63.9907 149.061 63.898 148.745 63.9138C148.458 63.9275 148.072 64.025 147.971 64.3333C147.896 64.5612 148.053 64.7452 148.12 64.9505C148.232 65.2979 148.199 65.5313 148.253 65.8725Z" fill="#E0E0E0"/>
<path d="M146.83 68.6619C147.033 68.6599 147.083 68.953 147.011 69.1425C146.94 69.332 146.817 69.5428 146.916 69.7192C146.988 69.8469 147.155 69.9004 147.221 70.0309C147.263 70.1153 147.257 70.2169 147.288 70.3062C147.362 70.5204 147.618 70.5973 147.833 70.6687C148.638 70.9344 149.376 71.6236 149.388 72.4681C149.391 72.7338 149.325 72.9953 149.318 73.261C149.302 73.8707 149.632 74.4769 150.152 74.7975C150.619 75.0851 151.187 75.1387 151.724 75.2485C152.261 75.3591 152.831 75.5657 153.116 76.0325C153.219 76.2001 153.28 76.3944 153.409 76.5433C153.739 76.9237 154.418 76.9051 154.66 77.3466C154.716 77.4496 154.761 77.5862 154.877 77.6061C154.99 77.626 155.082 77.5161 155.12 77.409C155.248 77.0534 155.063 76.6635 154.842 76.3566C154.621 76.0497 154.35 75.7559 154.274 75.3858C154.18 74.9224 154.414 74.4336 154.297 73.9757C154.145 73.3832 153.499 73.0935 152.99 72.7537C151.905 72.0301 151.222 70.7991 150.091 70.151C149.713 69.9341 149.291 69.7879 148.946 69.5208C148.656 69.297 148.434 68.9977 148.156 68.7608C147.944 68.5802 146.933 68.0942 146.83 68.6619Z" fill="#E0E0E0"/>
<path d="M146.684 72.0945C146.904 72.0767 147.118 71.9957 147.295 71.8632C147.444 71.7512 147.57 71.5947 147.601 71.4107C147.631 71.2267 147.545 71.0173 147.373 70.9446C147.112 70.8334 146.844 71.0585 146.604 71.2109C146.37 71.3606 146.097 71.4499 145.819 71.4684C145.446 71.4931 145.029 71.4039 144.729 71.6256C144.419 71.8535 144.39 72.306 144.468 72.6808C144.546 73.0557 144.702 73.4271 144.658 73.8081C144.642 73.9406 144.603 74.0738 144.625 74.2056C144.697 74.6457 145.349 74.7507 145.511 75.1661C145.561 75.2931 145.557 75.4345 145.597 75.5649C145.636 75.6954 145.747 75.8251 145.883 75.8114C146.071 75.7915 146.121 75.543 146.121 75.3535C146.12 75.0638 146.12 74.774 146.12 74.4843C146.399 74.4321 146.627 74.6978 146.78 74.9368C146.932 75.1757 147.137 75.4503 147.421 75.4297C147.732 75.407 147.895 75.0068 147.792 74.7143C147.688 74.4212 147.416 74.2248 147.152 74.0601C147.02 73.9777 146.882 73.8939 146.791 73.7676C146.7 73.6413 146.669 73.458 146.761 73.3323C146.823 73.2472 146.928 73.2053 147.006 73.1353C147.085 73.0653 147.132 72.9314 147.055 72.86C146.629 72.4604 146 72.9334 145.682 72.665C145.059 72.1378 146.499 72.1089 146.684 72.0945Z" fill="#E0E0E0"/>
<path d="M143.443 75.7722C143.26 75.6184 143.022 75.5175 142.783 75.5381C142.545 75.5587 142.313 75.7172 142.245 75.9459C142.166 76.215 142.325 76.5061 142.548 76.6777C142.77 76.8493 143.046 76.9324 143.309 77.0347C144.437 77.4741 145.392 78.3117 146.556 78.6426C146.858 78.7284 147.281 78.716 147.37 78.416C147.405 78.2979 147.37 78.1702 147.314 78.0604C147.006 77.4528 146.195 77.3258 145.673 76.8878C145.189 76.4827 145.046 76.263 144.417 76.2733C143.868 76.2823 143.912 76.1676 143.443 75.7722Z" fill="#E0E0E0"/>
<path d="M148.756 78.0692C149.062 78.1591 149.397 78.1241 149.693 78.2415C150.052 78.3836 150.304 78.7578 150.3 79.1416C150.3 79.1821 150.298 79.2233 150.312 79.261C150.354 79.3681 150.514 79.377 150.608 79.3111C150.703 79.2452 150.754 79.1354 150.818 79.04C150.964 78.8244 151.197 78.6706 151.453 78.6212C151.574 78.5978 151.7 78.5965 151.815 78.5539C151.93 78.5113 152.038 78.4118 152.037 78.2889C152.036 78.1777 151.95 78.0877 151.868 78.0109C151.526 77.6848 151.15 77.3422 150.68 77.2831C150.342 77.2406 150.009 77.3635 149.673 77.3312C149.407 77.3058 149.157 77.1129 148.909 77.0978C148.201 77.0559 148.043 77.8598 148.756 78.0692Z" fill="#E0E0E0"/>
<path d="M152.787 46.2893C152.694 46.4527 152.696 46.6614 152.583 46.811C152.452 46.9847 152.208 47.0252 151.99 47.0252C151.771 47.0252 151.542 46.9998 151.344 47.0918C151.179 47.1687 151.059 47.3163 150.953 47.4646C150.856 47.5992 150.765 47.7378 150.681 47.8806C150.623 47.9795 150.566 48.0935 150.597 48.2033C150.641 48.3619 150.849 48.4216 151.007 48.3736C151.166 48.3255 151.289 48.2054 151.421 48.1051C151.605 47.9651 151.816 47.86 152.039 47.7976C152.145 47.7674 152.267 47.7488 152.362 47.8051C152.508 47.8916 152.517 48.1038 152.632 48.2294C152.812 48.4258 153.152 48.3145 153.338 48.123C153.523 47.9315 153.644 47.6733 153.87 47.5298C154.01 47.4406 154.178 47.4056 154.337 47.3568C154.586 47.2799 154.823 47.1646 155.036 47.0156C155.212 46.8934 155.376 46.7417 155.461 46.546C155.703 45.9886 155.23 45.2959 155.507 44.7555C155.56 44.6519 155.637 44.5633 155.697 44.4638C155.927 44.0793 155.86 43.5706 155.629 43.1861C155.523 43.009 155.38 42.8477 155.195 42.7557C155.01 42.6637 154.777 42.652 154.6 42.7584C154.37 42.8971 154.288 43.1903 154.27 43.4573C154.235 43.9976 154.381 44.5592 154.204 45.072C154.101 45.3734 153.861 45.6714 153.589 45.8416C153.324 46.0064 152.959 45.9838 152.787 46.2893Z" fill="#E0E0E0"/>
<path d="M156.051 41.5617C156.217 41.6627 156.416 41.7416 156.601 41.6853C156.733 41.6455 156.835 41.5439 156.953 41.4725C157.207 41.3194 157.521 41.3139 157.81 41.2452C157.932 41.2164 158.063 41.1663 158.122 41.0558C158.219 40.8766 158.067 40.6555 157.885 40.5635C157.703 40.4715 157.49 40.4509 157.313 40.35C156.899 40.1125 156.831 39.5385 156.499 39.1966C156.449 39.1451 156.39 39.0971 156.319 39.082C156.152 39.0456 156.004 39.2021 155.933 39.358C155.778 39.693 155.747 40.1413 155.415 40.3033C155.269 40.3747 155.098 40.3679 154.937 40.3939C154.352 40.4873 153.898 41.0901 153.973 41.6757C153.98 41.7354 153.995 41.7979 154.037 41.8405C154.14 41.9435 154.315 41.8597 154.433 41.7739C154.654 41.6125 154.872 41.4086 155.134 41.318C155.506 41.1903 155.746 41.3743 156.051 41.5617Z" fill="#E0E0E0"/>
<path d="M42.4015 66.767C42.6144 67.2483 42.8314 67.7439 42.8527 68.2691C42.8741 68.795 42.6557 69.3648 42.1893 69.6106C42.0687 69.6745 41.9275 69.7211 41.8545 69.8358C41.7794 69.9539 41.7994 70.1084 41.7532 70.2409C41.6816 70.4448 41.4714 70.5587 41.2923 70.6796C41.0333 70.8546 40.7997 71.0976 40.7281 71.4018C40.6564 71.7059 40.7929 72.0712 41.0856 72.1817C41.2606 72.2476 41.4969 72.24 41.5803 72.4075C41.7291 72.7062 41.1972 72.8504 40.9892 73.1119C40.7653 73.3934 40.9637 73.8019 41.1628 74.1012C41.9916 75.3459 42.8203 76.5913 43.6498 77.836C43.8923 78.1998 44.1369 78.5671 44.4558 78.8658C45.483 79.829 47.2101 80.0391 47.8364 81.2982C48.0575 81.743 48.0975 82.2518 48.134 82.7467C48.3179 85.2533 48.5019 87.7598 48.6858 90.2663C48.7547 91.2062 48.8208 92.1708 48.5453 93.0722C48.5108 93.1848 48.4708 93.307 48.5129 93.4175C48.5618 93.5473 48.7051 93.6132 48.8002 93.7148C49.0647 93.997 48.9056 94.448 48.9214 94.8338C48.9359 95.1936 49.1157 95.5224 49.2645 95.8506C49.8342 97.1063 49.9913 98.5439 49.7054 99.8915C50.0244 100.749 50.3034 101.611 50.623 102.469C50.8745 103.146 51.1328 103.834 51.5786 104.401C52.0243 104.969 52.696 105.409 53.4194 105.395C53.2761 104.835 53.4255 104.208 53.8072 103.771C53.9064 103.658 54.0242 103.549 54.0594 103.403C54.1131 103.179 53.9546 102.966 53.8465 102.762C53.5654 102.233 53.6102 101.549 53.9567 101.061C54.1586 100.777 54.4493 100.561 54.6312 100.264C54.813 99.9677 54.8433 99.5229 54.5616 99.3183C54.2137 99.0656 53.595 99.3087 53.3718 98.9421C53.2216 98.6956 53.4056 98.375 53.6336 98.1979C53.8616 98.0207 54.1462 97.8992 54.3012 97.6555C54.8096 96.8564 53.511 95.6213 54.2006 94.9705C54.4493 94.7364 54.844 94.7405 55.1299 94.5524C55.6473 94.2125 55.6184 93.4065 56.0744 92.9884C56.4237 92.6678 56.9755 92.6534 57.3317 92.3404C57.7506 91.971 57.752 91.2906 57.4874 90.7991C57.2229 90.3082 56.7572 89.9622 56.3059 89.6334C57.2291 89.8778 58.3775 90.0597 58.9982 89.3354C59.3999 88.8672 59.4116 88.1834 59.6926 87.6349C60.0275 86.9813 60.737 86.5337 60.9162 85.8224C61.0657 85.2279 60.8004 84.5935 60.9189 83.9921C61.0815 83.1669 61.8896 82.6547 62.6233 82.2401C63.1269 81.9559 63.6305 81.6709 64.1341 81.3867C64.38 81.248 64.6301 81.1059 64.8278 80.9048C65.4313 80.2924 65.4079 79.3155 65.2873 78.4648C65.1227 77.3032 64.8898 75.9851 65.6228 75.0665C65.9914 74.6051 66.566 74.3127 66.8354 73.7875C67.1392 73.1943 66.9573 72.446 66.5598 71.9105C66.1623 71.375 65.5843 71.0063 65.0194 70.65C64.3539 70.2299 63.5933 69.7919 62.8252 69.9669C62.5393 70.0322 62.2747 70.1804 61.984 70.2155C61.6202 70.2594 61.262 70.1221 60.9217 69.9875C60.0529 69.6436 59.1594 69.2838 58.4953 68.6289C58.2177 68.3549 57.9876 68.0357 57.7237 67.7481C56.4816 66.3928 54.6105 65.8388 52.8358 65.3486C52.1173 65.1502 51.3981 64.9518 50.6788 64.7541C50.5376 64.715 50.3957 64.6765 50.2545 64.6374C49.4519 64.4163 48.6493 64.1952 47.846 63.9749C47.7006 63.935 47.556 63.8952 47.4127 63.8485C47.321 63.819 47.2294 63.7868 47.135 63.7682C46.6824 63.6797 46.236 63.9131 45.8337 64.1389C45.9963 64.0799 45.9522 63.8087 45.7958 63.7346C45.6394 63.6611 45.4548 63.7208 45.2949 63.7881C44.2877 64.2103 43.3963 64.9017 42.737 65.7701C42.5386 65.2408 41.9082 65.236 41.3578 65.372C40.8073 65.5072 40.1239 65.6521 39.7567 65.2223C39.1374 64.498 40.2865 63.2135 39.6596 62.4954C39.4074 62.2064 38.97 62.1693 38.5883 62.218C38.2067 62.2668 37.8222 62.3794 37.444 62.3093C37.0658 62.2393 36.6972 61.8947 36.7799 61.5205C36.8591 61.1635 37.2897 60.974 37.3868 60.6212C37.475 60.3005 37.2656 59.914 37.4626 59.6456C37.5474 59.5296 37.6913 59.4671 37.7719 59.3483C38.0186 58.9845 37.4413 58.5609 37.0128 58.6645C36.5843 58.7682 36.2405 59.1149 35.8072 59.1932C35.5833 59.2337 35.3256 59.209 35.1603 59.3648C35.0197 59.4973 35.0032 59.7101 34.9529 59.8962C34.7593 60.6122 33.9181 61.0379 33.1886 60.891C32.459 60.744 31.8838 60.1255 31.6523 59.4204C31.4208 58.7153 31.4918 57.9416 31.7012 57.2297C31.9216 56.4807 32.3095 55.7564 32.9282 55.2765C33.4159 54.8982 34.0146 54.6943 34.6009 54.498C35.9856 54.0325 37.4144 53.5615 38.8721 53.659C39.1939 53.6803 39.57 53.7716 39.6892 54.0709C39.816 54.3895 39.57 54.7252 39.5128 55.063C39.4226 55.5964 39.8077 56.0818 40.168 56.4862C40.2865 56.6194 40.4119 56.7573 40.5793 56.8191C40.9961 56.9729 41.4418 56.5479 41.4873 56.1065C41.5328 55.6658 41.313 55.2463 41.1084 54.8529C40.9038 54.4595 40.7019 54.0256 40.7832 53.5904C40.9837 52.5228 42.582 52.369 43.0993 51.4134C43.2509 51.1333 43.295 50.8058 43.4397 50.5222C43.6023 50.2051 43.8799 49.9634 44.09 49.6758C44.502 49.1107 44.6363 48.3988 44.885 47.7452C45.1337 47.0923 45.5822 46.4284 46.2684 46.2891C46.4351 46.2554 46.6108 46.2541 46.7685 46.1895C47.2976 45.9726 47.3121 45.2524 47.5077 44.7169C47.6655 44.2858 47.9955 43.9192 48.4088 43.7173C48.5694 43.6391 48.7505 43.5841 48.9255 43.6205C49.3513 43.7105 49.7605 44.2968 50.0795 44.0022C50.0037 43.4729 50.5941 43.0974 51.117 42.9779C51.6399 42.8578 52.2454 42.8084 52.572 42.3834C52.5196 42.0827 52.1662 41.933 51.8603 41.9275C51.5545 41.9214 51.2431 42.0044 50.9454 41.9337C50.6478 41.863 50.373 41.5396 50.5114 41.2671C50.612 41.0694 50.8876 40.9815 50.9317 40.7639C50.9813 40.5195 50.7002 40.3403 50.4556 40.2888C50.2111 40.2373 49.9231 40.2153 49.7826 40.0094C49.6117 39.7588 49.8046 39.3929 50.0836 39.2727C50.3626 39.1526 50.6823 39.2054 50.9813 39.2597C51.7081 39.3915 52.4356 39.524 53.1624 39.6558C53.7831 39.7684 53.9167 38.6281 54.4837 38.3528C54.78 38.2093 55.1602 38.2889 55.4303 38.1008C55.6942 37.9168 55.7465 37.5317 55.637 37.2296C55.5281 36.9275 55.2946 36.69 55.0679 36.462C54.6112 36.0028 54.1544 35.5442 53.697 35.0849C53.5048 34.8919 53.3098 34.6949 53.183 34.4539C53.0184 34.1409 52.9812 33.7798 52.9302 33.4296C52.82 32.6765 52.6319 31.9344 52.3688 31.2197C52.3219 31.0934 52.264 30.9567 52.1428 30.8963C51.8493 30.7501 51.6027 31.1476 51.4566 31.4407C51.2382 31.8794 50.8373 32.2618 50.3488 32.3133C49.8604 32.3655 49.3272 31.9776 49.3485 31.4888C49.5731 31.3467 49.8315 31.2588 50.096 31.2348C50.2696 31.1318 50.2861 30.8716 50.1842 30.6979C50.0822 30.5242 49.899 30.4164 49.724 30.3162C48.8897 29.8397 48.0554 29.3626 47.2211 28.8862C46.958 28.7358 46.6866 28.5827 46.3862 28.5422C46.0858 28.5017 45.7455 28.6026 45.5891 28.8614C45.3046 29.3324 45.7696 29.9414 45.6387 30.4755C45.4809 31.1215 44.5075 31.4854 44.6604 32.1321C44.7183 32.3772 44.9312 32.5488 45.0889 32.7458C45.6704 33.4736 45.3762 34.7148 44.5295 35.1068C44.3194 35.2043 44.0831 35.2572 43.9054 35.4055C43.6388 35.6286 43.5733 36.0082 43.5609 36.3549C43.5485 36.7016 43.5692 37.0655 43.4149 37.3765C43.2606 37.6875 42.8479 37.9051 42.5565 37.7163C42.2217 37.4994 42.3147 36.99 42.4779 36.6268C42.6412 36.2636 42.8286 35.8153 42.5861 35.4995C42.3464 35.1872 41.871 35.2448 41.4893 35.1439C40.8342 34.9709 40.4394 34.3008 39.8387 33.9878C39.0706 33.5875 38.0365 33.8024 37.38 33.2388C37.7189 33.1035 38.1192 32.8783 38.0971 32.5152C38.0764 32.1733 37.6955 31.9907 37.475 31.7277C37.081 31.2561 37.2463 30.5084 37.6528 30.0471C38.0592 29.5857 38.642 29.329 39.1828 29.0344C41.0037 28.0424 42.5048 26.4757 43.4149 24.6173C43.7952 24.3749 44.1431 25.1061 44.595 25.1054C44.7686 25.1054 44.9195 24.9928 45.0559 24.8857C45.514 24.526 46.0231 23.95 45.7372 23.4433C45.6304 23.2545 45.4258 23.0177 45.5829 22.868C45.6794 22.776 45.8344 22.8179 45.9673 22.8158C46.4454 22.8076 46.6611 22.1348 46.4241 21.7208C46.1878 21.3068 45.7055 21.1091 45.2584 20.9395C45.0283 20.8523 44.7603 20.7672 44.5468 20.8894C44.4414 20.9498 44.367 21.0521 44.3056 21.1565C44.0852 21.5286 43.9791 21.9597 43.7586 22.3325C43.5389 22.7053 43.1421 23.0321 42.7129 22.9703C42.7742 22.5234 43.4349 22.279 43.3701 21.8327C43.3439 21.6535 43.2027 21.5176 43.0808 21.3844C42.6316 20.8915 42.3615 20.24 42.3298 19.5747C42.3099 19.1518 42.3822 18.7186 42.2706 18.3094C42.159 17.9009 41.7697 17.5158 41.3557 17.6105C41.098 17.6696 40.9148 17.8899 40.7522 18.0973C40.4319 18.5051 40.1115 18.9122 39.7912 19.32C39.6816 19.4594 39.5659 19.6386 39.6375 19.8006C39.6796 19.8946 39.7739 19.9523 39.8663 19.999C40.2183 20.1782 40.6268 20.299 40.8624 20.6155C41.0974 20.932 40.9644 21.5251 40.5696 21.5217C38.0317 22.9394 34.6801 21.0988 31.85 21.7702C31.562 21.8389 31.2575 21.9316 30.9771 21.8361C30.6968 21.7407 30.508 21.3494 30.7195 21.1434C30.9585 21.4798 31.5689 21.1915 31.5979 20.7803C31.6268 20.369 31.2837 20.0209 30.9172 19.8308C30.5507 19.6399 30.1346 19.5424 29.797 19.3042C29.5339 19.1188 29.3341 18.858 29.0964 18.6417C28.269 17.8893 27.0538 17.73 25.937 17.8151C24.8203 17.9002 23.7208 18.192 22.6006 18.1955C22.396 18.1961 22.1872 18.1865 21.9957 18.1144C21.798 18.0403 21.6306 17.9044 21.4659 17.7719C19.3089 16.0301 17.021 14.4477 14.6284 13.0437C14.2743 12.8357 13.9044 12.6277 13.4958 12.5844C11.9003 12.4169 10.9241 14.714 9.31961 14.6886C8.84977 14.6811 8.28279 14.4971 7.97484 14.8514C7.68757 15.1809 7.89355 15.6793 7.97622 16.1084C8.18841 17.2075 7.29075 18.3891 6.17126 18.4824C5.41207 18.1975 4.46067 18.7735 4.36491 19.5768C4.26915 20.3793 5.05865 21.162 5.86331 21.0624C6.09341 21.0343 6.33315 20.9471 6.54947 21.0302C6.85949 21.1489 6.94836 21.5739 6.81608 21.878C6.6845 22.1822 6.40273 22.3902 6.13337 22.5838C5.94322 22.27 5.46787 22.2755 5.14408 22.4499C4.82029 22.6243 4.57365 22.9161 4.25124 23.0939C3.98601 23.2401 3.68013 23.3033 3.42247 23.4619C2.79142 23.8511 2.62539 24.6832 2.57441 25.4212C2.54134 25.9025 2.53721 26.4112 2.77007 26.8334C3.16413 27.5481 4.13757 27.844 4.41796 28.6102C4.75691 29.5384 3.8682 30.4487 3.00223 30.9286C2.13419 31.4098 1.09186 31.8657 0.818359 32.8152C2.88443 32.0476 4.81615 30.921 6.49918 29.5013C7.41338 28.7303 8.26901 27.8639 9.33201 27.3154C10.3957 26.7668 11.7522 26.5911 12.7594 27.2371C13.9788 28.0191 14.3845 29.7752 15.7142 30.3512C16.1199 30.527 16.5994 30.5853 16.906 30.9025C17.3345 31.346 17.2229 32.0538 17.2015 32.6696C17.1678 33.6528 17.4544 34.6448 18.0069 35.4604C18.2342 35.7954 18.5063 36.1044 18.6758 36.4723C18.9707 37.1101 18.9238 37.8468 19.0719 38.5333C19.2228 39.2329 19.5824 39.5274 20.1253 39.9043C20.6317 40.2565 20.5111 40.5291 20.2927 41.0913C20.1907 41.3536 19.4054 43.4976 18.9955 43.3143C19.1023 43.3617 19.2435 43.2992 19.2793 43.188C18.4795 44.0537 18.1509 45.179 18.1281 46.3557C18.1054 47.5324 18.3768 48.6933 18.6737 49.8316C18.8501 50.5065 19.0795 51.241 19.672 51.6131C20.0309 51.8383 20.5145 51.9276 20.7185 52.2976C20.9251 52.6732 20.7433 53.1881 20.9906 53.5382C21.1084 53.7043 21.302 53.7991 21.4425 53.9467C22.0536 54.5865 21.4218 55.8264 22.0501 56.4491C22.2258 56.6235 22.4704 56.71 22.6653 56.8624C23.0484 57.1617 23.1882 57.6643 23.3963 58.1029C23.6043 58.541 23.995 58.9851 24.4786 58.933C24.5082 58.9295 24.5385 58.924 24.5626 58.9069C24.626 58.8609 24.6122 58.7641 24.5909 58.6886C24.2168 57.3642 23.6505 56.0942 22.9147 54.9305C22.7893 54.7321 22.6543 54.5213 22.6557 54.2872C22.6571 54.0524 22.8658 53.8052 23.0945 53.8595C23.2468 53.8959 23.3419 54.0421 23.4211 54.1767C23.7407 54.7183 24.0604 55.2593 24.3801 55.801C24.564 56.1127 24.7493 56.4278 24.8678 56.7697C24.9973 57.1432 25.049 57.5523 25.2743 57.8778C25.6876 58.475 26.597 58.6611 26.8485 59.3421C27.0427 59.8666 26.7644 60.523 27.091 60.9781C27.3603 61.3523 27.8908 61.3859 28.3393 61.4965C29.1102 61.6853 29.7619 62.1803 30.4549 62.5654C31.148 62.9512 31.9816 63.2362 32.727 62.9636C32.924 62.8915 33.1121 62.7817 33.3208 62.7666C33.9099 62.7247 34.2722 63.405 34.8117 63.6446C35.5123 63.9563 36.3893 63.473 37.0775 63.8115C37.9952 64.2625 37.9042 65.8065 38.8377 66.2239C39.1436 66.3606 39.5018 66.34 39.8084 66.4759C40.0791 66.5954 40.2851 66.8267 40.5462 66.9647C41.098 67.2551 42.0949 67.3073 42.4015 66.767Z" fill="#E0E0E0"/>
<path d="M50.1309 46.4087C50.5876 46.5453 51.096 46.3558 51.5514 46.4965C52.0392 46.6469 52.3361 47.1275 52.7474 47.4295C53.0161 47.6273 53.3392 47.7495 53.6712 47.7783C53.7745 47.7872 53.8841 47.7865 53.9764 47.7398C54.1803 47.6369 54.2217 47.3698 54.2375 47.1426C54.2651 46.7519 54.2912 46.353 54.1886 45.9748C54.0859 45.5972 53.8269 45.2381 53.4521 45.1221C53.2806 45.0685 53.067 45.05 52.983 44.8921C52.9375 44.8063 52.9458 44.7033 52.9561 44.6065C52.9926 44.2488 53.0291 43.8911 53.0657 43.5328C53.0822 43.3701 52.1714 43.6577 52.1012 43.7037C51.8352 43.8754 51.6065 44.1692 51.3874 44.3957C50.8356 44.9649 50.2983 45.6157 50.1309 46.4087Z" fill="#E0E0E0"/>
<path d="M42.2611 55.7391C42.7351 55.803 43.209 55.8662 43.6837 55.93C43.7374 55.9376 43.7939 55.9444 43.8449 55.9266C43.911 55.9039 43.9558 55.8449 44.0027 55.7934C44.148 55.6327 44.3437 55.5188 44.5552 55.4721C44.7963 55.4185 45.1063 55.4151 45.2062 55.1899C45.2958 54.9881 45.1283 54.7588 44.9361 54.6496C44.5386 54.4244 44.0392 54.4814 43.6072 54.6297C43.1828 54.7753 42.6021 54.8988 42.2156 55.0814C41.856 55.2503 41.7217 55.6671 42.2611 55.7391Z" fill="#E0E0E0"/>
<path d="M41.1359 58.6282C41.1786 58.6969 41.222 58.7662 41.2826 58.8191C41.4018 58.9227 41.5685 58.9488 41.7256 58.9674C42.1872 59.0209 42.6529 59.047 43.1179 59.0443C43.233 58.7264 42.9409 58.4003 42.6308 58.2623C42.3208 58.125 41.9626 58.0783 41.7008 57.8641C41.4714 57.676 41.1931 57.2105 40.8376 57.4693C40.4422 57.7563 40.9671 58.357 41.1359 58.6282Z" fill="#E0E0E0"/>
<path d="M42.3834 57.4736C42.4138 57.7043 42.6735 57.8759 42.8988 57.8134C43.0483 57.7723 43.1599 57.6514 43.2777 57.5498C43.638 57.2388 44.123 57.0761 44.5983 57.1077C44.5873 57.1908 44.5763 57.2738 44.5659 57.3569C44.9965 57.3665 45.4347 57.3768 45.8432 57.5141C46.251 57.6514 46.632 57.9363 46.7739 58.3414C46.8049 58.4293 46.8256 58.5233 46.8849 58.5954C46.9269 58.6462 46.9847 58.6805 47.0419 58.7142C47.3237 58.881 47.6055 59.0478 47.8872 59.2146C47.6234 59.2641 47.2961 59.3842 47.2899 59.6513C47.8383 59.6877 48.386 59.724 48.9344 59.7604C49.1569 59.7755 49.387 59.7886 49.5951 59.7103C49.8038 59.6321 49.9843 59.4343 49.9685 59.2133C49.9492 58.9496 49.6784 58.7808 49.4256 58.7011C49.1728 58.6215 48.8903 58.5769 48.7057 58.3874C48.6058 58.2851 48.5472 58.1512 48.4666 58.0331C48.0209 57.3775 47.0777 57.3542 46.3654 57.004C45.7619 56.7075 45.2232 56.1328 44.5542 56.207C44.072 56.2605 43.7213 56.6285 43.2887 56.8056C42.9773 56.9333 42.318 56.9745 42.3834 57.4736Z" fill="#E0E0E0"/>
<path d="M49.802 60.0356C49.6938 60.2512 49.8316 60.5107 50.0059 60.6782C50.1072 60.7757 50.2284 60.8615 50.3683 60.8821C50.7155 60.9336 50.9965 60.5801 51.3451 60.5361C51.5594 60.5087 51.7695 60.6034 51.959 60.7071C52.1484 60.8107 52.3379 60.9295 52.5521 60.9577C52.7664 60.9858 53.0158 60.8911 53.0847 60.6872C53.1584 60.4695 53.0254 60.1723 53.208 60.0315C53.3203 59.945 53.4801 59.9855 53.6206 60.0041C53.9782 60.0507 54.3543 59.9107 54.5941 59.6429C54.6271 59.6059 54.6595 59.5612 54.6582 59.5118C54.6568 59.4576 54.6154 59.4129 54.5713 59.3814C54.2503 59.1521 53.7288 59.3711 53.4463 59.0958C53.3595 59.0113 53.3141 58.8939 53.2472 58.7923C52.9875 58.3962 52.3613 58.3076 52.001 58.6159C51.8729 58.7257 51.7743 58.8768 51.6186 58.9427C51.3844 59.0422 51.1226 58.9145 50.8918 58.8067C50.661 58.6989 50.3648 58.6179 50.1719 58.7834C50.1478 58.804 50.1258 58.8294 50.1154 58.8596C50.0782 58.9736 50.2153 59.0628 50.3276 59.1054C50.6176 59.2152 50.9077 59.3251 51.1977 59.4342C51.2473 59.4528 51.2997 59.474 51.3307 59.5173C51.5491 59.8235 49.9342 59.772 49.802 60.0356Z" fill="#E0E0E0"/>
<path d="M55.8065 60.0484C55.9181 60.0175 56.0352 59.9722 56.1455 60.0065C56.213 60.0278 56.2674 60.0758 56.3253 60.117C56.5705 60.2928 56.9012 60.3429 57.1878 60.2468C57.3697 60.1857 57.5447 60.0498 57.5743 59.861C57.6804 59.184 56.1165 59.1415 55.6722 59.2012C54.9274 59.3014 54.9316 60.2887 55.8065 60.0484Z" fill="#E0E0E0"/>
<path d="M58.36 60.214C58.3703 60.4597 58.555 60.6705 58.772 60.7865C58.9897 60.9025 59.2384 60.9424 59.4809 60.9863C59.9893 61.079 60.5232 61.2156 60.878 61.5898C61.1784 61.9069 61.3051 62.3546 61.323 62.7905C61.341 63.2258 61.261 63.659 61.1997 64.0908C61.1584 64.3826 61.1522 64.7375 61.3961 64.9037C61.5814 65.03 61.8459 64.9799 62.0209 64.8405C62.1959 64.7011 62.2979 64.4904 62.3764 64.281C62.5245 63.8849 62.6079 63.4654 62.6272 63.0425C62.6485 62.588 62.5934 62.1232 62.4033 61.7099C62.2331 61.3406 61.9624 61.0261 61.6744 60.7385C61.29 60.354 60.8594 60.0025 60.3579 59.791C59.9149 59.6057 58.3228 59.3558 58.36 60.214Z" fill="#E0E0E0"/>
<path d="M69.9218 48.6033C69.9204 48.4632 69.9266 48.2847 69.7978 48.2271C69.7324 48.1982 69.6566 48.2161 69.5891 48.2394C69.1489 48.3891 68.7803 48.7365 68.606 49.1669C68.5529 49.2974 68.5199 49.4525 68.5936 49.572C68.6363 49.6413 68.7079 49.6867 68.7796 49.7251C69.2543 49.9805 69.8398 50.0533 70.2201 50.435C70.6204 50.8373 70.7017 51.5019 71.1619 51.8341C71.3561 51.9742 71.5966 52.0367 71.8343 52.0669C72.4894 52.15 73.1721 52.0023 73.7336 51.6556C73.8018 51.6138 73.8748 51.5568 73.879 51.4771C73.8845 51.3673 73.7584 51.3014 73.6509 51.276C73.2541 51.1819 72.8366 51.2485 72.4302 51.2108C72.0237 51.173 71.5794 50.9794 71.4581 50.5908C71.3975 50.3958 71.4278 50.1782 71.3451 49.9922C71.0117 49.2438 69.9315 49.6894 69.9218 48.6033Z" fill="#E0E0E0"/>
<path d="M37.4767 18.7907C37.361 18.7248 37.2425 18.6465 37.1088 18.6472C37.0117 18.6472 36.9201 18.6905 36.8319 18.731C36.2077 19.0166 35.5526 19.2328 34.8809 19.3756C34.5819 19.4395 34.2312 19.4752 34.0059 19.2692C33.915 19.1861 33.8564 19.0729 33.7676 18.9877C33.5106 18.744 33.1035 18.8085 32.75 18.7845C32.3966 18.7605 31.9736 18.4708 32.108 18.144C32.274 17.7417 33.0401 17.9051 33.1744 17.4911C33.0855 17.2398 32.7183 17.3339 32.451 17.3373C31.902 17.3442 31.5437 16.7833 31.2971 16.2945C31.2496 16.2011 31.2013 16.1029 31.2 15.9979C31.1938 15.5914 31.8586 15.3409 31.7263 14.9564C31.3233 14.8095 30.9044 15.1644 30.7095 15.5455C30.5145 15.9265 30.4215 16.3741 30.1184 16.6775C29.7043 17.0929 28.9376 17.073 28.5463 16.637C28.4491 16.5293 28.374 16.4016 28.2624 16.3089C28.0544 16.1366 27.7623 16.1166 27.4915 16.105C27.229 15.7892 27.506 15.3162 27.8126 15.0422C28.1191 14.7683 28.5008 14.4539 28.4443 14.0474C28.4222 13.8888 28.3313 13.7309 28.3782 13.5779C28.4588 13.3108 28.8377 13.3183 29.1098 13.3815C29.8042 13.5428 30.498 13.7042 31.1924 13.8655C31.4604 13.928 31.7339 13.9925 31.9667 14.1374C32.4269 14.4243 32.6997 15.0045 33.2261 15.1377C33.6456 15.2441 34.1423 15.0333 34.4978 15.2798C34.6597 15.3917 34.8588 15.5928 35.0056 15.4624C35.0531 15.4198 35.071 15.3539 35.102 15.2983C35.2233 15.082 35.545 15.056 35.7613 15.1782C35.9776 15.3004 36.1127 15.5235 36.238 15.737C36.1085 15.3264 36.0073 14.8067 36.3338 14.5253C36.5405 14.3475 36.8505 14.3399 37.0709 14.1793C37.3072 14.0069 37.4395 13.665 37.7302 13.628C38.0533 13.5868 38.2731 13.9863 38.2269 14.3076C38.1808 14.6289 37.9789 14.9063 37.8825 15.2166C37.6104 16.094 38.2704 17.0414 39.1101 17.4197C39.4567 17.5755 39.8666 17.6895 40.0526 18.0204C40.096 18.098 39.1198 18.238 39.0537 18.2415C39.3588 19.4038 38.1498 19.1745 37.4767 18.7907Z" fill="#E0E0E0"/>
<path d="M41.9141 15.5798C41.5882 15.6052 41.2238 15.873 41.312 16.1867C41.3774 16.4195 41.6551 16.5238 41.8976 16.5217C42.1401 16.519 42.3805 16.4455 42.6216 16.473C43.3229 16.5526 43.6612 17.3964 44.2936 17.7088C44.419 17.7706 44.5568 17.8117 44.6677 17.8969C44.7697 17.9745 44.842 18.0843 44.9157 18.1887C45.2967 18.7241 45.7851 19.1828 46.3431 19.5308C46.3473 19.18 46.3514 18.8292 46.3562 18.4784C46.6793 18.6219 47.1161 18.742 47.34 18.4688C47.577 18.179 47.331 17.7575 47.0899 17.4705C46.9191 17.2673 46.7482 17.0641 46.5774 16.8602C46.4417 16.6989 46.3018 16.5279 46.2612 16.322C46.2205 16.116 46.3197 15.8654 46.5243 15.8132C46.8247 15.7364 47.0417 16.0961 47.1196 16.3947C47.1974 16.6941 47.3214 17.0669 47.6307 17.0943C47.8119 17.1108 47.9745 16.9893 48.1116 16.8691C48.4326 16.5877 48.7275 16.2767 48.9913 15.9409C49.094 15.8105 49.1966 15.654 49.1608 15.4919C49.1346 15.3752 49.0409 15.286 48.9472 15.2112C48.5435 14.8864 48.0599 14.6722 47.6521 14.3537C47.2436 14.0344 46.8998 13.5566 46.9535 13.0424C46.9866 12.7266 47.1664 12.4211 47.1051 12.1094C47.0004 11.5787 46.3218 11.4249 45.9284 11.0521C45.6832 10.8201 45.535 10.4823 45.2409 10.3169C44.8881 10.1178 44.368 10.1905 44.1448 9.85276C44.0022 9.63719 44.0573 9.34816 43.9767 9.10238C43.8176 8.61357 43.1941 8.45155 42.6809 8.50441C42.1683 8.55727 41.6544 8.7447 41.1494 8.6424C40.9896 8.15084 41.3588 7.49383 40.9689 7.15262C40.8235 7.02562 40.6162 6.99884 40.4226 7.00502C39.7867 7.02562 39.1681 7.35927 38.8029 7.87898C38.7382 7.97097 38.6789 8.07052 38.5859 8.13368C38.3662 8.28197 38.0314 8.13505 37.9411 7.88584C37.8515 7.63663 37.97 7.34691 38.1753 7.17871C38.3159 7.06338 38.4909 6.99404 38.6238 6.86977C38.7568 6.74551 38.8353 6.52857 38.7258 6.38439C38.6652 6.30476 38.5632 6.26837 38.4647 6.24983C37.8261 6.129 37.2239 6.58623 36.8044 7.08191C36.5061 7.4341 36.2381 7.85495 36.2546 8.31561C36.2712 8.77559 36.6928 9.239 37.1447 9.14083C36.9663 9.20399 36.9181 9.45114 37.0007 9.62071C37.0834 9.79029 37.2536 9.89739 37.4168 9.99281C38.2711 10.4926 39.1729 10.9121 40.1057 11.2437C40.2634 11.3 40.4253 11.3535 40.5934 11.3556C41.1218 11.3604 41.7047 10.8654 42.1097 11.2032C42.552 11.5725 42.1077 12.4691 42.5872 12.7898C42.727 12.8831 42.9048 12.89 43.0694 12.9243C43.407 12.9943 43.7211 13.2024 43.8844 13.5051C44.0477 13.8079 44.0415 14.2033 43.8396 14.4821C43.6205 14.7834 43.2485 14.988 42.9874 15.2523C42.8689 15.3725 42.8999 15.5194 42.736 15.5997C42.5334 15.6986 42.1387 15.562 41.9141 15.5798Z" fill="#E0E0E0"/>
<path d="M30.4399 11.7738C30.6362 11.8521 30.8566 11.7979 31.0675 11.7835C31.2783 11.769 31.5297 11.8226 31.6131 12.0169C31.6448 12.091 31.6461 12.1755 31.6806 12.2489C31.7419 12.3807 31.8921 12.4446 32.034 12.4775C32.931 12.6849 33.8948 12.0986 34.7676 12.391C34.966 12.4576 35.1541 12.5688 35.3635 12.5826C35.7046 12.6052 36.0359 12.3196 36.0628 11.9805C36.0897 11.6413 35.8065 11.3077 35.4662 11.2768C35.2671 11.2589 35.0466 11.3276 34.8779 11.2205C34.6471 11.0743 34.6925 10.7351 34.6498 10.466C34.6085 10.2044 34.4101 9.94011 34.1449 9.93805C33.9044 9.93599 33.7074 10.1543 33.6516 10.3877C33.5958 10.6212 33.6461 10.8649 33.6971 11.0997C33.5145 11.272 33.199 11.1738 33.0302 10.9884C32.8614 10.8024 32.7815 10.5546 32.6396 10.3479C31.3299 8.43729 29.4127 11.3647 30.4399 11.7738Z" fill="#E0E0E0"/>
<path d="M35.7742 3.29856C36.2268 3.74137 36.0505 4.53226 36.3956 5.06295C36.6657 5.4783 37.2643 5.64169 37.7094 5.42132C37.8045 5.37395 37.8975 5.31078 38.0036 5.30872C38.204 5.30461 38.3335 5.50713 38.483 5.64032C38.9673 6.07352 39.7272 5.79342 40.3741 5.86344C40.8743 5.91768 41.4481 6.17513 41.8284 5.84697C42.1254 5.59089 42.084 5.08697 41.8264 4.79177C41.5687 4.49656 41.1636 4.37435 40.7744 4.32973C40.485 4.29609 40.1916 4.29746 39.9022 4.33316C39.4069 4.39426 38.9233 4.55697 38.4245 4.55628C37.9257 4.5556 37.3759 4.33728 37.1934 3.87456C37.1438 3.74823 37.1231 3.61024 37.0535 3.49353C36.944 3.31023 36.7353 3.2148 36.5396 3.12967C36.2627 3.01021 34.5769 2.06829 34.2441 2.36899C33.8728 2.70264 35.5779 3.10701 35.7742 3.29856Z" fill="#E0E0E0"/>
<path d="M47.2455 6.59854C47.0547 6.72487 46.8632 6.85531 46.7158 7.02969C46.341 7.47319 46.3183 8.10548 46.3148 8.68561C46.3107 9.25749 46.3348 9.89802 46.7488 10.2942C47.2269 10.7514 47.9841 10.6683 48.6468 10.6395C49.3089 10.6113 50.1273 10.7837 50.3119 11.4187C50.4166 11.7778 50.2727 12.1849 50.4256 12.5261C50.5434 12.7883 50.8114 12.951 50.9719 13.1899C51.211 13.5469 51.1779 14.0145 51.1152 14.4388C50.9981 15.231 50.8114 16.013 50.5579 16.7723C50.283 17.5954 49.9275 18.492 50.2472 19.2987C50.3312 19.5109 50.46 19.7065 50.5165 19.9283C50.5827 20.1885 50.5434 20.4624 50.5041 20.7281C50.3236 21.9426 50.1431 23.157 49.9626 24.3715C49.9034 24.7697 49.8476 25.1947 50.0191 25.5592C50.1238 25.7817 50.3043 25.9588 50.4538 26.1544C50.8761 26.7064 51.0608 27.4135 51.5017 27.9511C51.9426 28.4887 52.8506 28.7763 53.3094 28.2545C53.6084 27.9147 53.5829 27.3772 53.8798 27.0353C54.0348 26.8568 54.276 26.7318 54.3318 26.5025C54.3876 26.2739 54.2339 26.0123 54.3497 25.8071C54.484 25.5675 54.8643 25.6066 55.0517 25.4054C55.31 25.1274 55.0179 24.6592 55.1488 24.3029C55.3362 23.7955 56.0713 23.9431 56.6128 23.9651C57.2418 23.9912 57.8749 23.6864 58.2448 23.179C58.4329 22.9216 58.5562 22.6181 58.7739 22.3854C59.1638 21.9686 59.7715 21.8574 60.3343 21.7551C61.1851 21.6007 62.0442 21.4119 62.8048 21.0013C63.5653 20.5908 64.226 19.9269 64.4506 19.0948C64.6759 18.2627 64.3769 17.2673 63.6301 16.8327C63.3173 16.6508 62.895 16.508 62.8399 16.1517C62.7917 15.8393 63.0693 15.5832 63.3125 15.38C64.1468 14.6832 64.8867 13.8737 65.5053 12.9806C65.732 12.6538 65.9483 12.2975 65.98 11.9013C66.0117 11.5052 65.8002 11.0631 65.4158 10.9567C65.8332 10.8592 66.0034 10.3491 65.9855 9.92274C65.9669 9.49571 65.8367 9.06045 65.9552 8.64991C66.1136 8.09999 66.6586 7.77252 67.0767 7.38051C67.5666 6.92053 67.9158 6.31432 68.0667 5.66005C68.3388 5.7548 68.6599 5.84336 68.8976 5.68065C69.1793 5.48705 69.1525 5.04011 68.9465 4.76825C68.7405 4.49638 68.416 4.34672 68.1218 4.17302C66.3024 3.09791 65.2525 0.787728 63.1919 0.310587C60.8785 -0.225595 58.6382 1.87726 56.2807 1.59234C55.9445 1.55184 55.5994 1.46259 55.2728 1.55253C55.0703 1.60814 54.8898 1.73034 54.6872 1.78526C54.3759 1.8697 54.0472 1.79007 53.7248 1.7784C53.4024 1.76741 53.0304 1.86078 52.8926 2.15118C52.7679 2.41412 52.8857 2.73268 52.8072 3.01347C52.6949 3.41097 52.2354 3.59771 51.8234 3.64165C51.4114 3.68558 50.9754 3.64645 50.604 3.8277C50.232 4.00963 49.993 4.54375 50.283 4.83827C50.3719 4.9289 50.4945 4.9797 50.5882 5.06552C51.2523 5.67172 50.2417 6.50724 49.6037 6.34727C49.2779 6.26558 49.0705 6.05 48.7061 6.04314C48.188 6.03284 47.6623 6.32256 47.2455 6.59854Z" fill="#E0E0E0"/>
<path d="M58.8519 25.3441C58.8312 25.5535 58.9945 25.7313 59.1454 25.8782C59.6572 26.3766 60.1973 26.8929 60.8835 27.0961C61.6895 27.3343 62.5913 27.0851 63.2534 26.5682C63.4063 26.4487 63.5531 26.3093 63.6226 26.1288C63.779 25.7203 63.4945 25.2864 63.2251 24.9411C62.8559 24.4674 62.3798 23.9449 61.7805 23.9998C61.5035 24.0252 61.2562 24.1749 61.0013 24.2868C60.6389 24.4461 60.1808 24.5752 59.7805 24.5395C59.536 24.5175 59.1963 24.2278 59.0028 24.2394C58.6369 24.2614 58.896 24.4186 58.9194 24.6184C58.9277 24.6925 59.0207 24.7523 59.0145 24.9308C59.0103 25.064 58.8663 25.1999 58.8519 25.3441Z" fill="#E0E0E0"/>
<path d="M72.9737 31.2237L68.125 28.756C66.6519 28.0061 64.831 28.5953 64.0795 30.0652L55.3265 47.1863C54.575 48.6562 55.1655 50.4732 56.6386 51.223L61.4872 53.6907C62.9603 54.4405 64.7813 53.8514 65.5327 52.3815L65.7951 51.8677L65.7176 51.834L73.9736 35.8674L74.2838 35.2604C75.0372 33.7885 74.4468 31.9735 72.9737 31.2237Z" fill="#37A351"/>
<path d="M109.823 34.4373C107.694 36.5638 104.147 37.2065 100.278 37.3949L101.455 39.5769C101.529 39.7118 101.583 39.8527 101.612 39.9995C101.634 40.1006 101.644 40.2038 101.642 40.305C101.634 40.8663 101.38 41.759 99.9445 42.0427C99.7775 42.0764 99.6065 42.0922 99.4336 42.1002C97.8551 42.1716 96.0858 41.2571 95.3503 40.8286C95.1257 40.6977 94.9388 40.5113 94.8056 40.2911L94.0303 39.0116L93.6824 38.4383C93.4021 37.9702 92.8952 37.6865 92.3485 37.6865H89.4421C88.7701 37.9206 88.0207 38.3014 87.0326 38.9005C86.9929 38.9243 86.9551 38.9481 86.9134 38.9719C84.8777 40.2216 83.496 41.2948 82.6591 42.0089C82.3927 42.1518 82.1502 42.3442 81.9474 42.5901L72.1149 54.4704L72.0016 54.6072C71.7233 54.9445 71.5543 55.3352 71.4887 55.7399C71.3555 56.5532 71.6438 57.4161 72.3237 57.9755L72.6358 58.2314C73.0234 58.5508 73.4827 58.7253 73.9498 58.767C73.7172 58.6757 73.5999 58.5984 73.6616 58.6103C74.0552 58.7967 74.7569 58.5428 75.4607 57.9775C75.5859 57.8763 75.7132 57.7672 75.8384 57.6462C75.9597 57.5292 76.1883 57.2673 76.4904 56.9063C77.7329 55.4205 80.2557 52.209 82.0528 50.0368C82.7744 49.164 83.3807 48.4578 83.7386 48.1028C84.0944 47.7477 84.3708 47.589 84.5855 47.5533C85.2534 47.4422 85.319 48.5134 85.319 48.5134C85.319 48.5134 84.8379 49.1382 84.1064 50.0765C83.7088 50.5863 83.2376 51.1874 82.7287 51.8321C81.0946 53.8991 79.0788 56.4025 77.894 57.6899C77.7329 57.8664 77.5838 58.0211 77.4566 58.1481C77.3075 58.396 77.2081 58.6619 77.1564 58.9356C77.0014 59.7648 77.2856 60.6535 77.9814 61.2248L78.2935 61.4807C78.5361 61.679 78.8064 61.8218 79.0887 61.9111C79.037 61.8774 79.0092 61.8556 79.0092 61.8556C79.0092 61.8556 80.5459 62.1015 81.4047 61.3279C81.4246 61.3101 81.4465 61.2942 81.4643 61.2763C81.6194 61.1216 81.9454 60.7288 82.3788 60.1873C83.2038 59.1578 84.4224 57.5808 85.647 56.0117C86.319 55.1488 86.9929 54.2898 87.6012 53.5301C87.7245 53.5261 87.8457 53.5341 87.965 53.5579C88.1737 53.5975 88.3725 53.6828 88.5515 53.8316C88.794 54.0339 88.9113 54.2879 88.9769 54.5636C88.5733 55.0912 88.1399 55.6566 87.6926 56.2338C87.4422 56.5572 87.1877 56.8845 86.9352 57.2098C85.812 58.648 84.6868 60.0544 83.8559 61.0125C83.4623 61.4688 83.1322 61.8238 82.9056 62.0301C82.8897 62.044 82.8738 62.0559 82.8579 62.0698C82.846 62.0896 82.836 62.1095 82.8261 62.1313C82.2854 63.1172 82.4981 64.3847 83.3966 65.1266L83.834 65.4877C84.3012 65.8725 84.8717 66.0471 85.4363 66.0292C85.1759 65.93 85.0427 65.8447 85.1083 65.8566C85.5735 66.0768 86.4641 65.686 87.2851 64.8926C87.4859 64.6982 87.9789 64.109 88.627 63.3136C89.3586 62.415 90.2889 61.2505 91.2292 60.0802C91.4777 59.7727 91.7242 59.4633 91.9708 59.1598C92.1278 58.9654 92.2849 58.771 92.4379 58.5825C92.8077 58.7035 93.0602 58.9991 93.1616 59.4236C93.2192 59.6616 93.2112 59.8778 93.1775 60.0901C93.1596 60.2051 93.1317 60.3182 93.1019 60.4333C92.9926 60.5701 92.8812 60.709 92.7699 60.8479C92.5075 61.1752 92.2431 61.5005 91.9827 61.8218C91.1318 62.8672 90.3148 63.8492 89.6707 64.5752C89.3665 65.4777 89.625 66.5192 90.4042 67.1599C90.6865 67.392 91.0106 67.5467 91.3465 67.628C91.8336 67.5844 92.5015 67.2154 93.1278 66.6104C93.3842 66.3644 94.1058 65.4837 95.0223 64.349C95.0183 64.3391 95.0143 64.3312 95.0104 64.3213C94.8414 63.992 94.746 63.6429 94.7619 63.2441C94.7619 63.2322 94.7619 63.2203 94.7619 63.2064C94.7619 63.2025 94.7619 63.1985 94.7619 63.1926C94.7619 63.1866 94.7639 63.1807 94.7639 63.1747C94.7798 62.7105 94.9249 62.2543 95.1972 61.8655C95.3523 61.6334 95.4895 61.5183 95.4895 61.5183C95.5431 61.4648 95.6008 61.4132 95.6604 61.3656C96.2767 60.8697 97.0679 60.7288 97.7836 60.9113C97.9247 60.7348 98.0659 60.5602 98.205 60.3896C98.2686 60.3936 98.3362 60.3995 98.4058 60.4134C98.4217 60.4154 98.4336 60.4214 98.4495 60.4253L98.4774 60.4095C98.4157 60.0326 98.4436 59.6458 98.5589 59.2788C98.5668 59.249 98.5788 59.2193 98.5887 59.1915C98.6046 59.1479 98.6205 59.1042 98.6404 59.0606C98.6444 59.0526 98.6464 59.0447 98.6483 59.0387C98.6503 59.0368 98.6523 59.0348 98.6543 59.0308C98.7716 58.767 98.9346 58.521 99.1493 58.3048C100.052 57.4042 101.503 57.3685 102.453 58.1917L102.783 58.0072C102.7 57.3983 102.891 56.7575 103.358 56.2894L103.903 55.7459C104.696 54.9544 105.996 54.9544 106.789 55.7459L106.807 55.7637L107.214 55.5356C107.044 54.8611 107.218 54.1173 107.745 53.5936L108.29 53.05C109.083 52.2586 110.381 52.2586 111.177 53.05L111.355 53.2286L116.357 50.4415C115.071 47.3033 109.988 34.7606 109.823 34.4373Z" fill="#F9B466"/>
<path d="M84.1075 50.0787C84.8391 49.1424 85.3202 48.5156 85.3202 48.5156C85.3202 48.5156 85.2526 47.4424 84.5866 47.5555C84.3719 47.5912 84.0956 47.7479 83.7397 48.1049C83.3819 48.462 82.7756 49.1682 82.054 50.039C80.2568 52.2111 77.7341 55.4227 76.4916 56.9085C76.1895 57.2715 75.9608 57.5314 75.8396 57.6484C75.7143 57.7694 75.5891 57.8785 75.4619 57.9797C74.7581 58.543 74.0564 58.7989 73.6627 58.6125C73.6011 58.6005 73.7184 58.6779 73.951 58.7692C74.4957 58.9834 75.6825 59.277 76.7401 58.7017C76.9091 58.6105 77.0761 58.4974 77.2351 58.3566C77.3007 58.299 77.3743 58.2276 77.4558 58.1483C77.583 58.0213 77.7301 57.8666 77.8931 57.69C79.078 56.4026 81.0938 53.9012 82.7279 51.8323C83.2388 51.1896 83.7099 50.5865 84.1075 50.0787Z" fill="#F49F4C"/>
<path d="M87.6893 56.2341C88.1346 55.6569 88.57 55.0915 88.9735 54.5639C88.9079 54.2882 88.7926 54.0342 88.5481 53.8319C88.3712 53.6831 88.1704 53.5998 87.9616 53.5582C87.8424 53.5363 87.7211 53.5264 87.5979 53.5304C86.9895 54.2921 86.3176 55.1511 85.6437 56.012C84.4211 57.581 83.2005 59.1581 82.3755 60.1876C81.9421 60.7291 81.6161 61.1219 81.461 61.2766C81.4411 61.2965 81.4212 61.3103 81.4014 61.3282C80.5426 62.1018 79.0059 61.8559 79.0059 61.8559C79.0059 61.8559 79.0357 61.8777 79.0854 61.9114C79.4889 62.1772 81.3556 63.2821 82.7929 62.1137C82.8128 62.0979 82.8307 62.084 82.8506 62.0681C82.8665 62.0542 82.8824 62.0423 82.8983 62.0284C83.1269 61.8221 83.4549 61.4671 83.8485 61.0108C84.6795 60.0527 85.8047 58.6463 86.9279 57.2081C87.1844 56.8848 87.4388 56.5575 87.6893 56.2341Z" fill="#F49F4C"/>
<path d="M92.7601 60.8459C92.8714 60.7071 92.9828 60.5702 93.0921 60.4313C93.1219 60.3163 93.1497 60.2012 93.1676 60.0882C93.2034 59.8759 93.2094 59.6597 93.1517 59.4216C93.0503 58.9991 92.7979 58.7036 92.4281 58.5806C92.275 58.771 92.118 58.9634 91.9609 59.1578C91.7164 59.4613 91.4679 59.7688 91.2194 60.0782C90.2791 61.2486 89.3487 62.413 88.6172 63.3116C87.9711 64.1071 87.4781 64.6962 87.2753 64.8906C86.4543 65.6821 85.5636 66.0749 85.0985 65.8547C85.0329 65.8428 85.168 65.9281 85.4265 66.0273C86.0805 66.2752 87.5397 66.5966 88.6708 65.5988C88.9034 65.3945 89.2434 65.0354 89.6549 64.5732C90.299 63.8472 91.118 62.8653 91.9669 61.8199C92.2353 61.5005 92.4977 61.1732 92.7601 60.8459Z" fill="#F49F4C"/>
<path d="M118.017 50.4614L117.925 50.2808L117.639 49.7214L114.041 42.6834L109.824 34.4373C109.989 34.7606 115.072 47.3033 116.343 50.4435L111.341 53.2306L112.383 54.27L118.265 50.9513L118.017 50.4614Z" fill="#F49F4C"/>
<path d="M99.0593 61.7307L99.1627 61.8576C99.1706 61.8477 99.1766 61.8398 99.1846 61.8298C99.0553 61.7049 98.9579 61.6097 98.9062 61.5601C98.9599 61.6156 99.0096 61.6711 99.0593 61.7307Z" fill="#F49F4C"/>
<path d="M95.0093 64.3472C94.0928 65.4838 93.3712 66.3626 93.1147 66.6086C92.4885 67.2136 91.8206 67.5845 91.3335 67.6262C91.1824 67.6401 91.0492 67.6222 90.9399 67.5706C90.7133 67.527 92.9318 68.7073 94.5143 67.3147C94.8403 67.0271 95.377 66.438 96.0211 65.6881C95.7011 65.3092 95.3989 64.9641 95.1683 64.607C95.1087 64.5257 95.055 64.4384 95.0093 64.3472Z" fill="#F49F4C"/>
<path d="M98.6501 61.0165C98.5627 60.8221 98.501 60.6178 98.4672 60.4095L98.4394 60.4254C98.4235 60.4214 98.4116 60.4174 98.3957 60.4135C98.3261 60.3996 98.2585 60.3916 98.1949 60.3896C98.0557 60.5622 97.9146 60.7368 97.7734 60.9114C98.177 61.0145 98.5567 61.2188 98.8668 61.5223C98.8648 61.5203 98.8628 61.5184 98.8628 61.5184C98.8628 61.5184 98.7555 61.322 98.6501 61.0165Z" fill="#F49F4C"/>
<path d="M102.938 58.5826C102.938 58.5826 102.926 58.5568 102.909 58.5131C102.903 58.4973 102.897 58.4834 102.891 58.4675C102.889 58.4635 102.889 58.4616 102.887 58.4576C102.831 58.3128 102.793 58.162 102.773 58.0093L102.443 58.1938C102.485 58.2314 102.529 58.2672 102.569 58.3068L103.044 58.7809C103.006 58.7174 102.972 58.654 102.94 58.5865C102.942 58.5845 102.938 58.5826 102.938 58.5826Z" fill="#F49F4C"/>
<path d="M107.204 55.5396L106.797 55.7677L107.856 56.825L108.002 56.7436L107.735 56.4778C107.467 56.2081 107.292 55.8827 107.204 55.5396Z" fill="#F49F4C"/>
<path d="M128.471 45.7561L119.718 28.635C118.967 27.1651 117.146 26.576 115.673 27.3258L110.826 29.7935C109.353 30.5433 108.763 32.3603 109.514 33.8302L109.824 34.4373L114.041 42.6834L117.639 49.7214L118.017 50.4613L118.267 50.9513C119.018 52.4212 120.839 53.0104 122.313 52.2605L127.161 49.7929C128.632 49.043 129.223 47.228 128.471 45.7561Z" fill="#C4C4C4"/>
<path d="M118.014 50.4613L117.637 49.7214L117.921 50.2808L118.014 50.4613Z" fill="#3E385A"/>
<path d="M99.3403 42.0326C99.5351 42.0505 99.7359 42.0564 99.9446 42.0426C101.38 41.7569 101.632 40.8662 101.642 40.3049C101.644 40.2017 101.634 40.0986 101.613 39.9994C101.563 40.045 101.507 40.0867 101.448 40.1263L100.581 40.6778C100.074 40.9991 99.3979 40.8484 99.0739 40.3425L98.2906 39.1127C98.1714 38.9242 98.227 38.6743 98.4159 38.5533L100.235 37.3988L100.271 37.377L97.0243 31.3625C96.752 30.8566 96.2251 30.5432 95.6526 30.5432H86.9135C86.6352 30.5432 86.3589 30.6186 86.1183 30.7594L76.6854 36.3316C76.4449 36.4724 76.1705 36.5478 75.8902 36.5478H75.262C75.1189 36.5478 74.9817 36.5696 74.8505 36.6033C74.5384 36.3792 74.2462 36.1352 73.9758 35.8654L74.5165 36.7382L73.8426 38.7913L69.2266 52.8575L72.1171 54.4683L81.9496 42.5881C82.1523 42.3421 82.3949 42.1497 82.6612 42.0068C83.4982 41.2907 84.8798 40.2176 86.9155 38.9698C86.9572 38.9441 86.995 38.9222 87.0348 38.8984C86.8141 38.8984 86.5934 38.8965 86.3748 38.8945H86.3728C86.329 38.8845 84.7089 38.5196 87.3688 36.9346C88.4264 36.3395 93.7839 35.8892 94.6248 37.4444C94.6487 37.488 94.6706 37.5317 94.6865 37.5773C95.1119 38.3212 95.5969 39.2039 96.1973 39.9895C96.9925 41.0348 97.9984 41.9017 99.3403 42.0326Z" fill="#E58F48"/>
<path d="M112.428 54.3157L112.382 54.2701L111.341 53.2306L111.162 53.0521C110.369 52.2606 109.068 52.2606 108.275 53.0521L107.731 53.5956C107.206 54.1193 107.029 54.8652 107.2 55.5376C107.287 55.8808 107.462 56.2061 107.731 56.4739L107.997 56.7398L108.997 57.7375C109.79 58.529 111.088 58.529 111.883 57.7375L112.428 57.194C113.221 56.4045 113.221 55.1072 112.428 54.3157ZM107.939 55.127C107.8 54.6946 107.927 54.2007 108.303 53.8991L109.102 53.2564C109.569 52.8795 110.261 52.9549 110.637 53.4211L110.75 53.5599L110.852 53.6849C110.993 53.8595 110.965 54.1154 110.79 54.2562L108.893 55.7816C108.719 55.9225 108.462 55.8947 108.321 55.7201L108.132 55.4881C108.043 55.379 107.981 55.256 107.939 55.127Z" fill="#E58F48"/>
<path d="M103.563 59.2432C103.207 58.8723 102.962 58.6105 102.941 58.5866C102.97 58.6521 103.006 58.7176 103.044 58.781L102.569 58.307C102.529 58.2673 102.485 58.2296 102.444 58.1939C101.493 57.3707 100.042 57.4064 99.1395 58.307C98.9248 58.5212 98.7598 58.7691 98.6445 59.033C99.1415 58.3089 99.2986 58.3089 99.2986 58.3089C99.3304 58.4418 99.0799 58.9873 99.3324 59.7154C99.388 59.4773 99.5153 59.2551 99.718 59.0905L100.517 58.4478C100.937 58.1106 101.535 58.1383 101.925 58.4835C101.97 58.5232 102.014 58.5648 102.052 58.6124L102.265 58.8763C102.406 59.0508 102.378 59.3067 102.203 59.4476L100.306 60.973C100.287 60.9889 100.265 61.0028 100.241 61.0147C100.263 61.0365 100.283 61.0603 100.304 61.0821C101.668 62.5064 104.426 64.9721 104.43 64.9761C104.738 64.859 105.026 64.6785 105.274 64.4305C106.087 63.6192 106.199 62.3636 105.608 61.4293C105.863 61.6792 106.169 61.8478 106.493 61.9371C105.922 61.6534 104.422 60.1379 103.563 59.2432Z" fill="#E58F48"/>
<path d="M107.854 56.8231L106.795 55.7658L106.777 55.7479C105.984 54.9564 104.685 54.9564 103.89 55.7479L103.346 56.2914C102.878 56.7576 102.688 57.3983 102.771 58.0093C102.787 58.1283 102.817 58.2454 102.853 58.3584C102.825 58.2632 102.799 58.1422 102.787 57.9994C102.743 57.5273 102.847 56.8191 103.556 56.0812C103.594 56.0435 103.073 56.7516 103.66 57.5035C103.699 57.2297 103.835 56.9679 104.065 56.7814L104.864 56.1387C105.254 55.8253 105.795 55.8292 106.184 56.105C106.262 56.1605 106.337 56.224 106.401 56.3014L106.614 56.5652C106.755 56.7397 106.727 56.9956 106.552 57.1365L104.807 58.5389L104.775 58.5647C106.131 59.7668 108.212 61.5164 108.212 61.5164C108.212 61.5164 107.87 61.8298 107.415 61.9727C107.807 61.8993 108.178 61.7148 108.48 61.4133L109.025 60.8697C109.818 60.0783 109.818 58.7829 109.025 57.9895L107.854 56.8231Z" fill="#E58F48"/>
<path d="M102.855 58.3584C102.866 58.3961 102.878 58.4298 102.888 58.4576C102.874 58.4239 102.866 58.3921 102.855 58.3584Z" fill="#E58F48"/>
<path d="M101.847 64.4305C102.002 64.5852 102.173 64.7102 102.356 64.8153C102.054 64.5654 101.404 63.9584 100.746 63.3315L101.847 64.4305Z" fill="#E58F48"/>
<path d="M104.424 64.978C104.378 64.9919 103.938 65.1268 103.438 65.1308C103.771 65.1486 104.107 65.097 104.424 64.978Z" fill="#E58F48"/>
<path d="M98.466 60.4095C98.4998 60.6178 98.5614 60.8221 98.6489 61.0165C98.5892 60.84 98.5296 60.6277 98.4918 60.3936C98.4362 60.0465 98.4322 59.6577 98.5475 59.2788C98.4302 59.6458 98.4044 60.0326 98.466 60.4095Z" fill="#E58F48"/>
<path d="M96.6199 66.3526C96.606 66.3407 96.592 66.3288 96.5781 66.3169C96.592 66.3288 96.606 66.3407 96.6199 66.3526Z" fill="#E58F48"/>
<path d="M98.3457 66.92C98.3735 66.92 98.3994 66.918 98.4133 66.918C98.3914 66.92 98.3696 66.918 98.3457 66.92Z" fill="#E58F48"/>
<path d="M96.6211 66.3525C97.1081 66.7651 97.7304 66.9595 98.3466 66.9199C98.0862 66.9238 97.2791 66.8901 96.6211 66.3525Z" fill="#E58F48"/>
<path d="M96.578 66.3169C96.5422 66.2871 96.5084 66.2554 96.4746 66.2217C96.5084 66.2534 96.5422 66.2852 96.578 66.3169Z" fill="#E58F48"/>
<path d="M96.4757 66.2219C96.4141 66.1624 96.3545 66.0989 96.3008 66.0315C96.3564 66.0989 96.4141 66.1624 96.4757 66.2219Z" fill="#E58F48"/>
<path d="M99.1611 61.8577L99.0577 61.7308C99.01 61.6713 98.9583 61.6137 98.9047 61.5602C98.8828 61.5384 98.8689 61.5265 98.8649 61.5225C98.5528 61.219 98.1731 61.0147 97.7715 60.9115C97.0558 60.729 96.2646 60.8699 95.6484 61.3658C95.5887 61.4134 95.5311 61.465 95.4774 61.5185C95.5688 61.6673 95.0063 62.6314 95.3561 63.1927C95.4058 63.2721 95.5032 63.405 95.6345 63.5736C95.8969 63.9108 96.2925 64.3889 96.706 64.8828C97.533 65.8667 98.4236 66.8982 98.4395 66.9161C98.8907 66.8705 99.3361 66.7019 99.7138 66.3964C100.751 65.5612 100.916 64.0298 100.08 62.9924L99.1611 61.8577ZM96.5032 63.7541C96.3283 63.895 96.0718 63.8672 95.9307 63.6926C95.8591 63.6034 95.8074 63.5042 95.7676 63.403C95.5867 62.9547 95.706 62.4211 96.1016 62.1037L96.4893 61.7923C96.7119 61.6137 96.9843 61.5403 97.2487 61.5582C97.5409 61.578 97.8272 61.7109 98.024 61.9569L98.0498 61.9887C98.191 62.1632 98.1631 62.4191 97.9882 62.5599L96.5032 63.7541Z" fill="#E58F48"/>
<path d="M94.9961 64.3196C95.0001 64.3295 95.004 64.3394 95.008 64.3474C95.0537 64.4366 95.1074 64.5239 95.1651 64.6092C95.1094 64.5219 95.0577 64.4346 95.01 64.3454C95.006 64.3374 95.0001 64.3295 94.9961 64.3196Z" fill="#E58F48"/>
<path d="M95.1834 61.8657C94.911 62.2545 94.7659 62.7108 94.75 63.1749C94.7898 62.5719 94.9985 62.1375 95.1834 61.8657Z" fill="#E58F48"/>
<path d="M82.8208 62.1311C82.8327 62.1112 82.8406 62.0894 82.8526 62.0696C82.8327 62.0854 82.8148 62.1013 82.7949 62.1152L82.8208 62.1311Z" fill="#D37D3D"/>
<path d="M76.7402 58.7014L77.1577 58.9374C77.2094 58.6637 77.3088 58.3959 77.4579 58.1499C77.3764 58.2292 77.3028 58.3007 77.2372 58.3582C77.0762 58.497 76.9092 58.6101 76.7402 58.7014Z" fill="#D37D3D"/>
<path d="M95.3514 40.8306C96.0869 41.257 97.8562 42.1715 99.4347 42.1021C99.6076 42.0941 99.7786 42.0783 99.9456 42.0446C99.7368 42.0584 99.5361 42.0525 99.3412 42.0346C97.9974 41.9037 96.9935 41.0369 96.1943 39.9915C95.5939 39.2059 95.1089 38.3232 94.6834 37.5793C94.6675 37.5337 94.6457 37.4881 94.6218 37.4464C93.7809 35.8912 88.4233 36.3435 87.3657 36.9366C84.7038 38.5216 86.324 38.8885 86.3698 38.8965H86.3717L87.9005 37.9284C88.149 37.7697 88.4392 37.6864 88.7354 37.6864H89.4412H92.3476C92.8943 37.6864 93.3992 37.9721 93.6815 38.4382L94.0294 39.0115L94.8047 40.291C94.9399 40.5132 95.1267 40.6996 95.3514 40.8306Z" fill="#D37D3D"/>
<path d="M96.702 64.8826C96.2885 64.3907 95.8929 63.9106 95.6305 63.5734C95.4993 63.4068 95.4019 63.2739 95.3522 63.1925C95.0023 62.6292 95.5669 61.6651 95.4735 61.5183C95.4735 61.5183 95.3363 61.6334 95.1812 61.8655C94.9983 62.1372 94.7876 62.5716 94.7478 63.1747C94.7478 63.1806 94.7459 63.1866 94.7459 63.1925C94.7459 63.1965 94.7459 63.2024 94.7459 63.2064C94.7459 63.2183 94.7459 63.2302 94.7459 63.2441C94.73 63.6448 94.8254 63.9939 94.9944 64.3212C94.9983 64.3292 95.0043 64.3391 95.0083 64.347C95.054 64.4363 95.1077 64.5236 95.1633 64.6109C95.3939 64.9679 95.6961 65.3131 96.0162 65.692C96.1096 65.8011 96.203 65.9141 96.2965 66.0312C97.0459 66.9595 98.2387 66.9278 98.4117 66.9179C98.4256 66.9179 98.4355 66.9159 98.4355 66.9159L98.4335 66.9139C98.4196 66.896 97.529 65.8665 96.702 64.8826Z" fill="#D37D3D"/>
<path d="M100.306 61.0818C100.284 61.0599 100.262 61.0361 100.242 61.0143C100.073 61.1036 99.8586 61.0639 99.7354 60.9112L99.5465 60.6791C99.3716 60.4648 99.296 60.203 99.302 59.9451C99.304 59.8678 99.3139 59.7904 99.3298 59.715C99.0774 58.987 99.3258 58.4415 99.296 58.3086C99.296 58.3086 99.139 58.3086 98.642 59.0326C98.64 59.0346 98.638 59.0366 98.636 59.0406C98.632 59.0485 98.6301 59.0545 98.6281 59.0624C98.6082 59.106 98.5923 59.1497 98.5764 59.1933C98.5664 59.2231 98.5545 59.2508 98.5466 59.2806C98.4313 59.6595 98.4352 60.0483 98.4909 60.3954C98.5287 60.6275 98.5863 60.8417 98.6479 61.0183C98.7533 61.3238 98.8607 61.5202 98.8607 61.5202C98.8607 61.5202 98.8626 61.5221 98.8646 61.5241C98.8786 61.538 98.8905 61.5499 98.9044 61.5618C98.9561 61.6114 99.0515 61.7066 99.1827 61.8316C99.5405 62.1787 100.145 62.7619 100.745 63.3332C101.403 63.9601 102.053 64.5671 102.356 64.817C102.358 64.817 102.358 64.819 102.359 64.821C102.658 65.0689 103.065 65.1364 103.439 65.1324C103.94 65.1285 104.377 64.9936 104.425 64.9797C104.427 64.9797 104.433 64.9777 104.433 64.9777C104.427 64.9717 101.67 62.506 100.306 61.0818Z" fill="#D37D3D"/>
<path d="M104.778 58.5667L104.657 58.6639C104.591 58.7155 104.513 58.7452 104.436 58.7512C104.305 58.7611 104.172 58.7095 104.084 58.6024L103.895 58.3703C103.694 58.1204 103.619 57.8109 103.657 57.5153C103.657 57.5114 103.659 57.5074 103.659 57.5054C103.072 56.7516 103.593 56.0435 103.555 56.0831C102.846 56.823 102.742 57.5292 102.786 58.0013C102.804 58.1997 102.848 58.3584 102.883 58.4596C102.885 58.4635 102.885 58.4655 102.887 58.4695C102.893 58.4873 102.899 58.5012 102.905 58.5151C102.923 58.5588 102.935 58.5845 102.935 58.5845C102.935 58.5845 102.937 58.5865 102.939 58.5885C102.961 58.6123 103.205 58.8742 103.561 59.2451C104.42 60.1397 105.919 61.6553 106.494 61.937H106.495C106.81 62.0917 107.136 62.0659 107.418 61.9746C107.873 61.8298 108.215 61.5184 108.215 61.5184C108.215 61.5184 106.134 59.7688 104.778 58.5667Z" fill="#D37D3D"/>
<path d="M73.9741 35.8674L65.7181 51.834L65.7956 51.8677L65.5332 52.3815L71.4892 55.7418C71.5548 55.3372 71.7237 54.9464 72.0021 54.6092L72.1154 54.4723L69.2249 52.8615L73.8409 38.7953L74.5148 36.7422L73.9741 35.8674Z" fill="#D37D3D"/>
<path d="M98.0243 61.9567C97.8255 61.7108 97.5413 61.5779 97.249 61.558C96.9826 61.5402 96.7103 61.6136 96.4896 61.7921L96.102 62.1035C95.7064 62.4209 95.5871 62.9545 95.768 63.4028C95.8077 63.504 95.8594 63.6032 95.931 63.6925C96.0721 63.867 96.3286 63.8948 96.5035 63.7539L97.9885 62.5598C98.1635 62.4189 98.1913 62.163 98.0502 61.9885L98.0243 61.9567Z" fill="#FFCD85"/>
<path d="M102.052 58.6105C102.013 58.5629 101.969 58.5212 101.925 58.4816C101.534 58.1364 100.937 58.1086 100.518 58.4459L99.7185 59.0886C99.5138 59.2532 99.3865 59.4754 99.3328 59.7134C99.315 59.7888 99.307 59.8662 99.305 59.9435C99.2991 60.2014 99.3746 60.4633 99.5495 60.6775L99.7384 60.9096C99.8616 61.0623 100.078 61.102 100.245 61.0127C100.267 61.0008 100.289 60.987 100.311 60.9711L102.207 59.4456C102.382 59.3048 102.41 59.0489 102.269 58.8743L102.052 58.6105Z" fill="#FFCD85"/>
<path d="M106.402 56.3035C106.338 56.2261 106.265 56.1626 106.185 56.1071C105.796 55.8294 105.255 55.8274 104.865 56.1408L104.066 56.7835C103.834 56.97 103.698 57.2318 103.661 57.5056C103.661 57.5095 103.659 57.5135 103.659 57.5155C103.619 57.811 103.694 58.1225 103.897 58.3704L104.086 58.6025C104.174 58.7116 104.307 58.7632 104.438 58.7513C104.515 58.7454 104.593 58.7156 104.659 58.664L104.78 58.5668L104.812 58.541L106.557 57.1386C106.732 56.9977 106.76 56.7418 106.619 56.5673L106.402 56.3035Z" fill="#FFCD85"/>
<path d="M110.852 53.6848L110.75 53.5598L110.637 53.421C110.261 52.9548 109.569 52.8794 109.102 53.2563L108.303 53.899C107.929 54.2005 107.8 54.6945 107.939 55.1269C107.981 55.2539 108.043 55.3769 108.13 55.4879L108.319 55.72C108.46 55.8946 108.717 55.9224 108.892 55.7815L110.788 54.2561C110.965 54.1172 110.993 53.8594 110.852 53.6848Z" fill="#FFCD85"/>
<path d="M100.581 40.6761L101.448 40.1246C101.508 40.087 101.564 40.0433 101.613 39.9977C101.583 39.8529 101.53 39.7101 101.456 39.5752L100.279 37.3931L100.269 37.3733L100.234 37.3951L98.4146 38.5496C98.2257 38.6686 98.17 38.9206 98.2893 39.109L99.0726 40.3389C99.3986 40.8487 100.075 40.9975 100.581 40.6761Z" fill="#FFCD85"/>
</svg>
