<svg width="167" height="74" viewBox="0 0 167 74" fill="none" xmlns="http://www.w3.org/2000/svg">
<path d="M166.195 72.5786H0.3125V73.7461H166.195V72.5786Z" fill="#37A351"/>
<path d="M143.141 69.0807V50.4979V47.7737H147.033L137.595 38.3364L128.158 47.7737H131.952V50.4979V69.0807H143.141Z" fill="#37A351"/>
<path d="M101.889 69.0783V30.0643H105.683L96.2456 20.627L86.8086 30.0643H90.6025V69.0783H101.889Z" fill="#37A351"/>
<path d="M20.9532 18.8781H18.9098V37.0717H20.9532V39.8932H14.1426V37.0717H16.1859V18.8781H14.1426V16.0566H20.9532V18.8781Z" fill="#37A351"/>
<path d="M36.2258 18.8781H26.2048L25.2322 20.0456V25.2994L26.3022 26.6614H34.4747L37.0042 29.6775V36.5852L34.6688 39.8932H23.1889V37.0717H33.2099C33.5017 36.5852 33.8907 36.1961 34.2799 35.6123V30.5531L33.2099 29.3856H25.0374L22.5078 26.2723V19.0727L25.0374 16.0566H36.3232V18.8781H36.2258Z" fill="#37A351"/>
<path d="M43.108 39.8932L38.9238 35.7096V20.5321L43.0106 16.0566H52.5452L56.6314 20.5321V35.7096L52.4478 39.8932H43.108ZM51.4751 37.169L54.0048 34.6394V21.6996L51.4751 18.9754H44.2755C43.3998 19.851 42.7187 20.7267 41.7457 21.6996V34.6394L44.2755 37.169H51.4751Z" fill="#37A351"/>
<path d="M22.019 18.8781H19.9764V37.0717H22.019V39.8932H15.209V37.0717H17.2522V18.8781H15.209V16.0566H22.019V18.8781Z" fill="#E0E0E0"/>
<path d="M37.2877 18.7741H27.2673L26.2941 19.9416V25.1954L27.3641 26.5575H35.5365L38.0661 29.5735V36.4812L35.7313 39.7892H24.2514V36.9677H34.2718C34.5636 36.4812 34.9526 36.0921 35.3418 35.5083V30.4491L34.2718 29.2816H26.0999L23.5703 26.1683V18.9687L26.0999 15.9526H37.385V18.7741H37.2877Z" fill="#E0E0E0"/>
<path d="M44.2856 39.7892L40.1016 35.6056V20.4281L44.1882 15.9526H53.7225L57.8085 20.4281V35.6056L53.6251 39.7892H44.2856ZM52.555 37.065L55.0847 34.5354V21.5956L52.555 18.8714H45.3556C44.48 19.747 43.7989 20.6227 42.826 21.5956V34.5354L45.3556 37.065H52.555Z" fill="#E0E0E0"/>
<path d="M14.1215 49.621H13.635V54.3883H14.1215V55.0693H12.6621V54.3883H13.1486V49.621H12.6621V48.9399H14.1215V49.621Z" fill="#E0E0E0"/>
<path d="M17.4298 49.6189H15.1919L14.9977 49.9108V51.2729L15.1919 51.6621H17.0403L17.6239 52.4404V54.2889L17.1376 55.1646H14.6082V54.4835H16.8461C16.9434 54.3862 16.943 54.289 17.0403 54.0944V52.7323L16.8461 52.4404H14.9977L14.4141 51.6621V49.8135L14.9977 49.0352H17.5272V49.6189H17.4298Z" fill="#E0E0E0"/>
<path d="M18.8341 55.1676L17.959 54.0974V50.1084L18.8341 48.9409H20.9745L21.8496 50.1084V54.0974L20.9745 55.1676H18.8341ZM20.6824 54.3893L21.266 53.7082V50.303L20.6824 49.622H19.1262C18.9317 49.8165 18.7372 50.1084 18.5426 50.303V53.8055L19.1262 54.4866H20.6824V54.3893Z" fill="#E0E0E0"/>
<path d="M22.4434 51.9488V49.5165L23.0271 48.8354H25.0706L25.7517 49.7111V54.2838L25.0706 55.0621H22.4434V54.3811H24.7784C24.8757 54.2838 24.9734 54.1865 25.168 53.9919V52.7271H22.9297L22.4434 51.9488ZM25.2653 50.1003L24.8758 49.7111H23.3193L23.1245 50.003V51.7542C23.2218 51.8515 23.2221 51.8515 23.4167 52.0461H25.3621V50.1003H25.2653Z" fill="#E0E0E0"/>
<path d="M27.6397 55.1676L26.7637 54.1947V50.0111L27.6397 48.9409H29.3911L30.2671 50.0111V54.1947L29.3911 55.1676H27.6397ZM29.1963 54.3893L29.6833 53.8055V50.2057C29.4887 50.0111 29.3909 49.8165 29.1963 49.5247H27.9313L27.4449 50.1084V53.8055C27.6395 54.0001 27.7367 54.1947 27.9313 54.3893H29.1963Z" fill="#E0E0E0"/>
<path d="M31.9813 55.1676L31.1055 54.1947V50.0111L31.9813 48.9409H33.7324L34.6077 50.0111V54.1947L33.7324 55.1676H31.9813ZM33.5377 54.3893L34.024 53.8055V50.2057C33.8294 50.0111 33.7323 49.8165 33.5377 49.5247H32.2729L31.7866 50.1084V53.8055C31.9811 54.0001 32.0783 54.1947 32.2729 54.3893H33.5377Z" fill="#E0E0E0"/>
<path d="M36.2572 55.1676V49.7193H35.4785V48.9409H36.9379V55.1676H36.2572Z" fill="#E0E0E0"/>
<path d="M38.011 50.2988L38.4974 50.7853L38.1084 51.2718L37.7188 50.7853L38.011 50.2988ZM38.011 53.023L38.4974 53.5095L38.1084 53.9959L37.7188 53.5095L38.011 53.023Z" fill="#E0E0E0"/>
<path d="M39.2754 48.9404H41.5123L42.3874 49.9134V51.2754L41.6097 52.3457H40.2478L39.859 52.9294V54.4861H42.3874V55.1671H39.2754V52.6375L40.0531 51.5673H41.415L41.9012 50.9836V50.2052C41.7067 50.0106 41.6095 49.8161 41.415 49.6215H39.4695V48.9404H39.2754Z" fill="#E0E0E0"/>
<path d="M44.1434 55.1676L43.2676 54.1947V50.0111L44.1434 48.9409H45.8946L46.7698 50.0111V54.1947L45.8946 55.1676H44.1434ZM45.6024 54.3893L46.0887 53.8055V50.2057C45.8942 50.0111 45.797 49.8165 45.6024 49.5247H44.3376L43.8513 50.1084V53.8055C44.0459 54.0001 44.143 54.1947 44.3376 54.3893H45.6024Z" fill="#E0E0E0"/>
<path d="M48.6236 55.1666L47.748 54.1937V50.0102L48.6236 48.9399H50.3753L51.2515 50.0102V54.1937L50.3753 55.1666H48.6236ZM50.0837 54.3883L50.5702 53.8045V50.2047C50.3755 50.0101 50.2783 49.8156 50.0837 49.5237H48.8185L48.332 50.1075V53.8045C48.5266 53.9991 48.6238 54.1937 48.8185 54.3883H50.0837Z" fill="#E0E0E0"/>
<path d="M52.997 55.1676L52.1211 54.1947V50.0111L52.997 48.9409H54.7481L55.6239 50.0111V54.1947L54.7481 55.1676H52.997ZM54.5533 54.3893L55.0402 53.8055V50.2057C54.8457 50.0111 54.7479 49.8165 54.5533 49.5247H53.2891L52.8022 50.1084V53.8055C52.9968 54.0001 53.0945 54.1947 53.2891 54.3893H54.5533Z" fill="#E0E0E0"/>
<path d="M62.8842 69.6611H6.16211V6.51857L19.4912 0H62.8842V69.6611ZM7.42697 68.4936H61.7167V1.16751H19.7834L7.42697 7.2969V68.4936Z" fill="#37A351"/>
<path d="M13.2365 14.1053L12.1659 13.8134C12.2631 12.4513 12.2634 8.75422 10.6095 7.58671C9.92843 7.10025 8.7908 6.73988 7.62331 7.12905L7.49609 6.32192L19.6574 0.0952148L20.4359 0.873551L13.2365 14.1053ZM10.4147 6.12733C10.7066 6.22462 10.9987 6.4192 11.2906 6.61379C12.6526 7.684 13.1392 9.82443 13.2365 11.5757L18.49 2.04106L10.4147 6.12733Z" fill="#37A351"/>
</svg>
