<svg width="183" height="91" viewBox="0 0 183 91" fill="none" xmlns="http://www.w3.org/2000/svg">
<path d="M3.9674 88.9206C3.63532 88.9206 3.41406 88.7025 3.41406 88.3753V81.0687C3.41406 80.7415 3.63532 80.5234 3.9674 80.5234C4.29948 80.5234 4.52141 80.7415 4.52141 81.0687V88.3753C4.52141 88.5934 4.29948 88.9206 3.9674 88.9206Z" fill="#E0E0E0"/>
<path d="M67.715 13.1311C67.2724 13.1311 66.8299 13.1311 66.3873 13.022C58.0891 12.0405 52.889 2.11668 52.6677 1.68047C52.3358 1.1352 52.5568 0.480875 53.1101 0.153715C53.6633 -0.173445 54.3273 0.0446614 54.6592 0.589928C54.6592 0.698981 59.5277 9.85946 66.6088 10.7319C70.26 11.1681 74.0213 9.20514 77.7832 5.06111C78.1151 4.6249 81.545 0.589928 86.0814 1.02614C89.29 1.24425 92.1668 3.64343 94.4903 8.11461C94.8223 8.65988 94.6019 9.31419 94.0487 9.64135C93.4955 9.96851 92.8314 9.75041 92.4995 9.20514C90.508 5.49733 88.1847 3.53437 85.8612 3.31626C82.4313 2.9891 79.5538 6.58786 79.5538 6.58786C75.6813 10.95 71.6981 13.1311 67.715 13.1311Z" fill="#E0E0E0"/>
<path d="M32.8571 52.0669C36.3976 53.9208 39.495 55.6657 42.7036 57.4105C43.1462 57.6286 43.5894 57.8468 44.032 58.0649C45.3597 58.7192 45.9127 58.1739 45.9127 56.8653C45.9127 55.4476 45.9127 53.9208 45.9127 51.9579C50.3383 54.357 54.4319 56.4291 58.8576 58.8282C58.9682 56.4291 59.0792 54.4661 59.1898 52.0669C60.8494 52.8303 62.2874 53.4846 63.6151 54.248C65.7173 55.3385 67.7088 56.6472 69.811 57.7377C70.3642 58.0649 71.1393 58.0649 71.8031 58.283C72.0244 57.6286 72.2449 56.8653 72.3555 56.211C72.4661 55.0114 72.3555 53.8118 72.3555 52.0669C75.3428 53.5937 77.8874 55.0114 80.4321 56.32C81.6492 56.9743 82.8671 57.6286 84.0842 58.283C86.8502 59.7007 88.2888 58.9373 88.5101 55.8838C89.1739 46.5052 89.9478 37.0176 90.6116 27.639C90.8329 24.2583 91.1655 20.9867 91.2761 17.6061C91.3868 16.1884 91.8287 15.3159 93.3777 15.534C94.816 15.6431 96.9178 14.6616 97.1391 17.2789C97.471 21.532 97.8039 25.8941 98.1358 30.1472C98.689 38.1081 99.2413 46.069 99.9051 54.0299C100.016 55.1204 100.127 56.2109 100.348 57.3015C100.459 57.7377 100.901 58.6101 101.233 58.6101C103.667 58.7192 103.225 60.464 103.225 61.8817C103.225 69.8426 103.225 77.6945 103.336 85.6554C103.336 87.7274 102.782 88.4907 100.57 88.4907C78.552 88.3817 56.5339 88.3817 34.5163 88.4907C33.1886 88.4907 32.4141 88.2726 32.4141 86.7459C32.4141 75.7315 32.4141 64.6081 32.4141 53.5937C32.6353 53.1575 32.7464 52.8303 32.8571 52.0669ZM45.3596 78.3488C47.0192 78.3488 48.7891 78.3488 50.4487 78.3488C51.5551 78.3488 52.2193 78.1307 52.2193 76.9311C52.2193 75.8406 52.2192 74.5319 50.6702 74.5319C47.1297 74.5319 43.4781 74.5319 39.9376 74.5319C38.4993 74.5319 38.168 75.7315 38.4999 76.713C38.7212 77.3673 39.4953 78.1307 40.1591 78.2397C41.8187 78.4578 43.5893 78.3488 45.3596 78.3488ZM45.2489 71.8056C45.2489 71.9146 45.2489 71.9146 45.2489 71.8056C46.9085 71.9146 48.6783 71.9146 50.3379 71.9146C51.7763 71.9146 52.2193 71.0422 52.2193 69.7336C52.2193 68.4249 51.555 67.9887 50.3379 68.0978C46.9081 68.0978 43.589 68.0978 40.1591 68.0978C38.942 68.0978 38.1676 68.534 38.1676 69.9517C38.1676 71.2603 38.8313 71.9146 40.0484 71.9146C41.9293 71.9146 43.5892 71.8056 45.2489 71.8056ZM75.5645 78.2397C77.3348 78.2397 79.1049 78.2397 80.8751 78.2397C82.2028 78.2397 82.6458 77.5854 82.6458 76.4949C82.6458 75.4043 82.5351 74.4229 81.2074 74.4229C77.5562 74.4229 73.9051 74.4229 70.254 74.4229C68.9263 74.4229 68.5943 75.5134 68.8156 76.4949C69.0368 77.1492 69.8115 78.1307 70.3647 78.1307C72.0243 78.3488 73.7943 78.2397 75.5645 78.2397ZM90.6116 78.2397C92.2712 78.2397 94.0411 78.2397 95.7007 78.2397C96.9178 78.2397 97.5821 77.8035 97.5821 76.6039C97.5821 75.4043 97.2498 74.3138 95.8115 74.3138C92.3816 74.3138 89.0632 74.2048 85.6333 74.4229C84.9694 74.4229 84.1947 75.7315 83.9734 76.6039C83.7521 77.6945 84.4163 78.3488 85.744 78.3488C87.4037 78.2397 88.952 78.2397 90.6116 78.2397ZM75.5645 68.0978C73.7943 68.2068 72.0243 67.9887 70.3647 68.2068C69.7009 68.3159 68.7049 69.2974 68.8156 69.7336C68.9262 70.4969 69.7007 71.6965 70.254 71.6965C73.7945 71.9146 77.4453 71.8056 80.9859 71.8056C82.3136 71.8056 82.6458 70.8241 82.6458 69.6245C82.6458 68.3159 81.8708 67.9887 80.7644 67.9887C78.9941 68.0978 77.2242 68.0978 75.5645 68.0978ZM60.2959 78.2397C61.8449 78.2397 63.3937 78.2397 64.9427 78.2397C66.381 78.3488 67.3772 78.0216 67.3772 76.3858C67.3772 74.9681 66.4918 74.3138 65.0535 74.3138C61.8448 74.3138 58.5255 74.2048 55.3169 74.3138C54.7637 74.3138 53.8784 75.5134 53.7678 76.1677C53.5465 77.1492 53.8787 78.2397 55.4277 78.1307C56.9767 78.2397 58.6363 78.2397 60.2959 78.2397ZM90.6116 71.9146C92.2712 71.9146 93.8209 71.9146 95.4806 71.9146C96.8083 71.9146 97.5821 71.3694 97.5821 69.9517C97.5821 68.534 96.8083 67.9887 95.4806 67.9887C92.2719 67.9887 89.1728 68.0978 85.9642 68.0978C84.6365 68.0978 83.9734 68.534 83.9734 69.8426C83.9734 71.1513 84.5259 71.9146 85.9642 71.9146C87.5132 71.9146 89.0626 71.9146 90.6116 71.9146ZM60.1852 71.8056C61.9555 71.9146 63.7255 71.9146 65.4958 71.9146C66.8235 71.9146 67.4879 71.2603 67.4879 69.9517C67.4879 68.643 66.8235 68.0978 65.4958 68.0978C62.1765 68.0978 58.8577 68.0978 55.5384 68.0978C54.3214 68.0978 53.7684 68.7521 53.6577 69.8426C53.6577 71.0422 54.2107 71.8056 55.5384 71.8056C57.0874 71.8056 58.6362 71.8056 60.1852 71.8056Z" fill="#E0E0E0"/>
<path d="M19.8031 75.8319C22.5528 75.8319 24.7813 73.6348 24.7813 70.9245C24.7813 68.2142 22.5528 66.0171 19.8031 66.0171C17.0534 66.0171 14.8242 68.2142 14.8242 70.9245C14.8242 73.6348 17.0534 75.8319 19.8031 75.8319Z" fill="#E0E0E0"/>
<path d="M19.8045 76.7092C16.5958 76.7092 14.0508 74.201 14.0508 71.0384C14.0508 67.8759 16.5958 65.3677 19.8045 65.3677C23.0132 65.3677 25.5576 67.8759 25.5576 71.0384C25.5576 74.0919 23.0132 76.7092 19.8045 76.7092ZM19.8045 66.8944C17.5916 66.8944 15.71 68.7483 15.71 70.9294C15.71 73.1104 17.5916 74.9644 19.8045 74.9644C22.0174 74.9644 23.8983 73.1104 23.8983 70.9294C23.8983 68.7483 22.0174 66.8944 19.8045 66.8944Z" fill="#E0E0E0"/>
<path d="M19.8116 88.9222C19.3688 88.9222 18.9258 88.5951 18.9258 88.0498V75.8358C18.9258 75.3996 19.2581 74.9634 19.8116 74.9634C20.2544 74.9634 20.6967 75.2905 20.6967 75.8358V88.0498C20.6967 88.486 20.2544 88.9222 19.8116 88.9222Z" fill="#E0E0E0"/>
<path d="M3.99235 80.9586C5.88662 80.9586 7.4222 79.445 7.4222 77.5779C7.4222 75.7108 5.88662 74.1973 3.99235 74.1973C2.09808 74.1973 0.5625 75.7108 0.5625 77.5779C0.5625 79.445 2.09808 80.9586 3.99235 80.9586Z" fill="#E0E0E0"/>
<path d="M3.98319 81.5071C1.77021 81.5071 0 79.7623 0 77.5812C0 75.4001 1.77021 73.6553 3.98319 73.6553C6.19616 73.6553 7.96705 75.4001 7.96705 77.5812C7.96705 79.7623 6.19616 81.5071 3.98319 81.5071ZM3.98319 74.7458C2.43411 74.7458 1.10689 76.0545 1.10689 77.5812C1.10689 79.1079 2.43411 80.4166 3.98319 80.4166C5.53227 80.4166 6.86016 79.1079 6.86016 77.5812C6.86016 76.0545 5.53227 74.7458 3.98319 74.7458Z" fill="#E0E0E0"/>
<path d="M13.9301 40.5015H6.18359V41.592H13.9301V40.5015Z" fill="#37A351"/>
<path d="M10.6113 37.2334H9.50391V44.8671H10.6113V37.2334Z" fill="#37A351"/>
<path d="M18.3672 43.3442H19.8056V39.5274H18.588V38.5459C19.3625 38.4369 19.8054 38.2188 20.248 37.8916H21.4649V43.3442H22.6818V44.6529H18.3672V43.3442Z" fill="#37A351"/>
<path d="M24.0312 43.3442H25.4695V39.5274H24.2527V38.5459C25.0271 38.4369 25.4699 38.2188 25.9124 37.8916H27.1291V43.3442H28.3459V44.6529H24.0312V43.3442Z" fill="#37A351"/>
<path d="M29.3086 41.2651C29.3086 38.975 30.3039 37.7754 31.7421 37.7754C33.1802 37.7754 34.1762 38.975 34.1762 41.2651C34.1762 43.5552 33.1802 44.7548 31.7421 44.7548C30.1933 44.7548 29.3086 43.5552 29.3086 41.2651ZM32.5165 41.2651C32.5165 39.4112 32.0738 39.084 31.6313 39.084C31.1888 39.084 30.7468 39.4112 30.7468 41.2651C30.7468 43.119 31.0782 43.5552 31.6313 43.5552C32.1845 43.5552 32.5165 43.119 32.5165 41.2651Z" fill="#37A351"/>
<path d="M34.8398 41.2651C34.8398 38.975 35.8352 37.7754 37.2733 37.7754C38.7114 37.7754 39.7074 38.975 39.7074 41.2651C39.7074 43.5552 38.7114 44.7548 37.2733 44.7548C35.8352 44.7548 34.8398 43.5552 34.8398 41.2651ZM38.1585 41.2651C38.1585 39.4112 37.7158 39.084 37.2733 39.084C36.8308 39.084 36.3888 39.4112 36.3888 41.2651C36.3888 43.119 36.7202 43.5552 37.2733 43.5552C37.7158 43.5552 38.1585 43.119 38.1585 41.2651Z" fill="#37A351"/>
<path d="M40.7188 39.527H42.0468L42.1576 40.1813C42.6003 39.7451 43.154 39.418 43.8181 39.418C44.9248 39.418 45.4778 40.1813 45.4778 41.49V44.6525H43.8181V41.7081C43.8181 41.0538 43.5968 40.8357 43.2648 40.8357C42.9328 40.8357 42.7112 40.9447 42.3792 41.2719V44.7616H40.7188V39.527Z" fill="#37A351"/>
<path d="M43.9102 39.527L44.5738 39.7451L45.3482 40.1813C45.7906 39.7451 46.3433 39.418 47.007 39.418C48.1131 39.418 48.6665 40.1813 48.6665 41.49V44.6525H47.007V41.7081C47.007 41.0538 46.7859 40.8357 46.4541 40.8357C46.1222 40.8357 45.9008 40.9447 45.569 41.2719V44.7616H43.9102V39.527Z" fill="#37A351"/>
<path d="M49.6843 41.1608C50.6804 40.2883 51.3447 39.525 51.3447 38.9797C51.3447 38.6525 51.1234 38.4344 50.7914 38.4344C50.5701 38.4344 50.3488 38.6525 50.1274 38.7616L49.5742 38.2163C50.0169 37.7801 50.3489 37.562 50.9022 37.562C51.6769 37.562 52.2302 37.9982 52.2302 38.7616C52.2302 39.4159 51.6763 40.1793 51.0123 40.8336C51.2337 40.8336 51.455 40.8336 51.6763 40.8336H52.4511V41.597H49.6843V41.1608Z" fill="#37A351"/>
<path d="M183.001 77.042H117.391V91.0008H183.001V77.042Z" fill="#E0E0E0"/>
<path d="M165.071 70.163H135.419C133.096 70.163 131.215 68.3091 131.215 66.0189V64.165C131.215 61.8749 133.096 60.021 135.419 60.021H165.071C167.395 60.021 169.276 61.8749 169.276 64.165V66.0189C169.165 68.3091 167.284 70.163 165.071 70.163Z" fill="#E0E0E0"/>
<path d="M167.52 63.3985V43.5508C167.52 43.2236 167.852 42.8965 168.183 42.8965H168.515C168.847 42.8965 169.178 43.2236 169.178 43.5508V63.3985C169.178 63.7256 168.847 64.0528 168.515 64.0528H168.183C167.852 64.0528 167.52 63.7256 167.52 63.3985Z" fill="#E0E0E0"/>
<path d="M131.215 63.3985V43.5508C131.215 43.2236 131.546 42.8965 131.878 42.8965H132.21C132.543 42.8965 132.875 43.2236 132.875 43.5508V63.3985C132.875 63.7256 132.543 64.0528 132.21 64.0528H131.878C131.435 64.0528 131.215 63.7256 131.215 63.3985Z" fill="#E0E0E0"/>
<path d="M156.769 18.0339C156.769 21.6327 150.131 30.0298 150.131 30.0298C150.131 30.0298 143.492 21.6327 143.492 18.0339C143.492 14.4352 146.479 11.4907 150.131 11.4907C153.782 11.4907 156.769 14.4352 156.769 18.0339Z" fill="#37A351"/>
<path d="M147.25 22.8343V14.9824H148.578L152.119 21.6347V14.9824H153.004V22.8343H151.676L148.135 16.182V22.8343H147.25Z" fill="black"/>
<path d="M158.862 44.4222V41.8049C158.862 41.8049 155.543 44.7494 158.198 39.951L156.76 37.5518C156.76 37.5518 155.432 41.8049 155.321 36.5704L152.998 35.2617C152.998 35.2617 153.219 39.6238 151.006 35.2617H148.351C148.351 35.2617 150.786 39.0786 146.471 36.2432L144.036 37.6609C144.036 37.6609 147.355 39.2967 143.04 39.4057L141.491 41.4778C141.491 41.4778 145.586 41.4777 141.16 43.6588V46.4942C141.16 46.4942 144.59 44.5312 142.488 48.021L143.815 50.4201C143.815 50.4201 145.917 46.9304 145.474 51.1835L147.909 53.2555C147.909 53.2555 147.908 49.3296 150.011 53.6917H152.887C152.887 53.6917 150.343 50.3111 154.326 52.4921L156.76 50.8563C156.76 50.8563 153.22 49.0024 157.756 49.2205L159.084 46.7123C159.195 46.7123 155.543 47.0395 158.862 44.4222ZM150.564 50.093C147.134 50.093 144.368 47.3666 144.368 43.986C144.368 40.6053 147.134 37.879 150.564 37.879C153.994 37.879 156.76 40.6053 156.76 43.986C156.76 47.3666 153.994 50.093 150.564 50.093Z" fill="#E0E0E0"/>
<path d="M150.557 49.1089C147.68 49.1089 145.355 46.8188 145.355 43.9834C145.355 41.148 147.68 38.8579 150.557 38.8579C153.434 38.8579 155.757 41.148 155.757 43.9834C155.757 46.8188 153.434 49.1089 150.557 49.1089ZM150.557 39.4032C148.012 39.4032 146.02 41.4752 146.02 43.8744C146.02 46.3826 148.123 48.3455 150.557 48.3455C152.991 48.3455 155.092 46.2735 155.092 43.8744C155.203 41.4752 153.102 39.4032 150.557 39.4032Z" fill="#E0E0E0"/>
<path d="M132 43.8779H140.078L140.189 43.987V45.5137H140.078H132V43.987V43.8779Z" fill="#E0E0E0"/>
<path d="M160.73 43.8779H168.809L168.918 43.987V45.5137H160.73V43.987V43.8779Z" fill="#E0E0E0"/>
<path d="M150.474 55.6604C144.389 55.6604 139.41 50.9711 139.078 45.0822L140.295 44.9731C140.627 50.3168 145.053 54.4608 150.474 54.4608C155.896 54.4608 160.32 50.3168 160.652 44.9731L161.871 45.0822C161.539 50.9711 156.56 55.6604 150.474 55.6604Z" fill="#E0E0E0"/>
<path d="M132.988 80.8403H134.316L135.313 83.5666C135.423 83.8938 135.534 84.33 135.645 84.6572C135.756 84.33 135.865 83.8938 135.976 83.5666L136.973 80.8403H138.3V86.7292H137.193V84.221C137.193 83.6757 137.304 82.8033 137.304 82.258L136.862 83.6757L135.976 86.1839H135.313L134.427 83.6757L133.985 82.258C134.096 82.8033 134.096 83.6757 134.096 84.221V86.7292H132.988V80.8403Z" fill="#37A351"/>
<path d="M139.301 85.7477L140.075 85.2025C140.296 85.6387 140.629 85.8568 140.961 85.8568C141.514 85.8568 141.734 85.5296 141.734 84.7663V80.8403H142.951V84.8753C142.951 85.9658 142.399 86.8383 141.071 86.8383C140.297 86.8383 139.743 86.5111 139.301 85.7477Z" fill="#37A351"/>
<path d="M144.398 85.7508H145.726V82.043H144.62V81.2797C145.173 81.1706 145.616 81.0615 146.058 80.7344H146.943V85.6418H148.05V86.6233H144.509V85.7508H144.398Z" fill="#37A351"/>
<path d="M149.152 85.7504H150.48V82.0425H149.374V81.2792C149.927 81.1701 150.369 81.061 150.812 80.7339H151.696V85.6413H152.802V86.6228H149.263V85.7504H149.152Z" fill="#37A351"/>
<path d="M153.583 86.078C155.244 84.6603 156.129 83.5698 156.129 82.5883C156.129 82.043 155.796 81.6068 155.242 81.6068C154.8 81.6068 154.468 81.934 154.136 82.2611L153.473 81.6068C154.026 81.0615 154.579 80.7344 155.353 80.7344C156.46 80.7344 157.235 81.4977 157.235 82.5883C157.235 83.6788 156.349 84.7694 155.242 85.8599C155.574 85.8599 155.907 85.7508 156.239 85.7508H157.567V86.7323H153.583V86.078Z" fill="#37A351"/>
<path d="M158.32 85.2056C158.32 84.4422 158.762 84.006 159.316 83.6788C158.873 83.3517 158.542 82.9155 158.542 82.2611C158.542 81.2797 159.316 80.7344 160.312 80.7344C161.418 80.7344 162.081 81.3887 162.081 82.2611C162.081 82.8064 161.75 83.3517 161.307 83.5698C161.86 83.8969 162.302 84.3332 162.302 85.0965C162.302 85.969 161.529 86.6233 160.312 86.6233C159.206 86.8414 158.32 86.187 158.32 85.2056ZM161.307 85.2056C161.307 84.5512 160.754 84.3332 159.98 84.006C159.648 84.2241 159.426 84.6603 159.426 85.0965C159.426 85.6418 159.87 85.969 160.423 85.969C160.865 85.969 161.307 85.7508 161.307 85.2056ZM161.197 82.3702C161.197 81.934 160.865 81.4978 160.423 81.4978C159.98 81.4978 159.648 81.7159 159.648 82.2611C159.648 82.8064 160.09 83.1336 160.754 83.3517C161.085 83.0245 161.197 82.6974 161.197 82.3702Z" fill="#37A351"/>
</svg>
