<svg width="52" height="126" viewBox="0 0 52 126" fill="none" xmlns="http://www.w3.org/2000/svg">
<path d="M41.6981 14.6284L51.6471 36.3497C51.6471 36.3497 31.4901 52.7056 36.5943 101.254H26.1262C26.1262 101.168 16.6964 23.8881 41.6981 14.6284Z" fill="#E0E0E0"/>
<path d="M41.6981 14.6284L51.6471 36.3497C51.6471 36.3497 31.4901 52.7056 36.5943 101.254H26.1262C26.1262 101.168 16.6964 23.8881 41.6981 14.6284Z" fill="#E0E0E0"/>
<path d="M41.6981 14.6284L51.6471 36.3497C51.6471 36.3497 31.4901 52.7056 36.5943 101.254H26.1262C26.1262 101.168 16.6964 23.8881 41.6981 14.6284Z" stroke="#E0E0E0" stroke-width="0.2" stroke-miterlimit="10"/>
<path d="M10.3039 14.6284L0.355469 36.3497C0.355469 36.3497 20.5125 52.7056 15.4083 101.254H25.8759C25.8759 101.168 35.2192 23.8881 10.3039 14.6284Z" fill="#E0E0E0" stroke="#E0E0E0" stroke-width="0.2" stroke-miterlimit="10"/>
<path fill-rule="evenodd" clip-rule="evenodd" d="M36.5181 11.2501L34.0089 9.34623L35.9125 6.75005L34.528 4.24042L31.4136 4.4135L31.2404 1.21154L28.5585 0.173074L26.223 2.33655L23.9736 0L21.2917 0.865387L20.9453 3.9808L17.7444 3.63465L16.2738 6.05774L18.0042 8.74046L15.3223 10.5578L15.7547 13.4136L18.7825 14.3655L17.9176 17.4809L20.0804 19.3848L23.0221 18.1732L24.3195 21.1155L27.1746 21.2021L28.6451 18.3463L31.5002 19.7309L33.7497 18.0001L33.0574 14.8847L36.1718 14.1059L36.5181 11.2501ZM25.9632 15.6636C23.1083 15.6636 20.7726 13.327 20.7726 10.4712C20.7726 7.61545 23.1083 5.27889 25.9632 5.27889C28.8182 5.27889 31.1544 7.61545 31.1544 10.4712C31.1544 13.327 28.8182 15.6636 25.9632 15.6636Z" fill="#37A351"/>
<path d="M25.9655 14.4509C23.8027 14.4509 21.9863 12.6335 21.9863 10.4701C21.9863 8.30658 23.8027 6.48926 25.9655 6.48926C28.1283 6.48926 29.9452 8.30658 29.9452 10.4701C29.9452 12.6335 28.1283 14.4509 25.9655 14.4509ZM25.9655 7.35464C24.2353 7.35464 22.8512 8.73927 22.8512 10.4701C22.8512 12.2008 24.2353 13.5855 25.9655 13.5855C27.6957 13.5855 29.0798 12.2008 29.0798 10.4701C28.9932 8.73927 27.6092 7.35464 25.9655 7.35464Z" fill="#37A351"/>
<path d="M40.1376 101.167H11.6758V105.148H40.1376V101.167Z" fill="#37A351"/>
<path d="M45.089 105.148H5.72656V121.937H45.089V105.148Z" fill="#E0E0E0"/>
<path d="M48.3598 121.933H2.24805V126H48.3598V121.933Z" fill="#37A351"/>
<path d="M9.01853 114.06V109.993H7.7207V109.474H10.8348V109.993H9.53755V114.06H9.01853Z" fill="#37A351"/>
<path d="M13.7613 109.993H12.1175C11.9445 110.166 11.7715 110.339 11.5985 110.512V111.464H13.6747V111.983H11.5985V113.022L12.1175 113.541H13.7613V114.06H11.9443L11.166 113.281V110.339L11.9443 109.56H13.7613V109.993Z" fill="#37A351"/>
<path d="M16.9666 109.993H15.1495L14.6304 110.512V113.022L15.1495 113.541H16.9666V114.06H14.9768L14.1113 113.281V110.339L14.9768 109.56H16.9666V109.993Z" fill="#37A351"/>
<path d="M18.1089 109.475V111.465H20.3584V109.475H20.8775V114.062H20.3584V111.985H18.1089V114.062H17.5898V109.475H18.1089Z" fill="#37A351"/>
<path d="M21.5762 114.062V109.475H22.3549L24.3443 113.369V109.475H24.8633V114.062H24.085L22.0952 110.167V114.062H21.5762Z" fill="#37A351"/>
<path d="M26.312 114.062L25.5332 113.283V110.34L26.312 109.475H28.1285L28.9073 110.34V113.283L28.1285 114.062H26.312ZM27.9558 113.542L28.4749 113.023V110.514L27.9558 109.994H26.5713C26.3983 110.167 26.3118 110.34 26.0523 110.514V113.023L26.5713 113.542H27.9558Z" fill="#37A351"/>
<path d="M32.0303 114.062H29.5215V109.475H30.0406V113.542H32.0303V114.062Z" fill="#37A351"/>
<path d="M33.3355 114.061L32.5566 113.282V110.34L33.3355 109.474H35.1519L35.9308 110.34V113.282L35.1519 114.061H33.3355ZM34.8926 113.541L35.4117 113.022V110.513L34.8926 109.993H33.5082C33.3351 110.166 33.2486 110.34 32.9891 110.513V113.022L33.5082 113.541H34.8926Z" fill="#37A351"/>
<path d="M39.4547 109.993H37.5518C37.3787 110.166 37.2057 110.339 37.0327 110.512V113.022L37.5518 113.541H38.5033C38.6763 113.454 38.8493 113.281 39.0223 113.108V112.243C38.8493 112.156 38.7629 112.07 38.5898 111.897H37.8976V111.377H38.763L39.5413 111.983V113.368L38.6764 114.06H37.3786L36.5137 113.281V110.339L37.3786 109.56H39.4547V109.993Z" fill="#37A351"/>
<path d="M41.3603 114.06V111.897L40.0625 110.252V109.56H40.5815V110.079L41.6196 111.291L42.6576 110.079V109.56H43.1766V110.252L41.8793 111.897V114.06H41.3603Z" fill="#37A351"/>
<path d="M18.451 116.229H16.6339L16.1148 116.748V119.258L16.6339 119.777H18.451V120.296H16.4612L15.5957 119.518V116.575L16.4612 115.796H18.451V116.229Z" fill="#37A351"/>
<path d="M21.4655 116.229H19.8214C19.6483 116.402 19.4753 116.575 19.3022 116.748V117.7H21.3789V118.219H19.3022V119.258L19.8214 119.777H21.4655V120.296H19.6482L18.8691 119.518V116.575L19.6482 115.796H21.4655V116.229Z" fill="#37A351"/>
<path d="M21.9863 120.206V115.619H22.7647L24.7544 119.513V115.619H25.2734V120.206H24.4951L22.5054 116.311V120.206H21.9863Z" fill="#37A351"/>
<path d="M26.9985 120.205V116.138H25.7012V115.619H28.8153V116.138H27.5175V120.205H26.9985Z" fill="#37A351"/>
<path d="M31.7769 116.229H30.1337C29.9607 116.402 29.7871 116.575 29.6141 116.748V117.7H31.6909V118.219H29.6141V119.258L30.1337 119.777H31.7769V120.296H29.9605L29.1816 119.518V116.575L29.9605 115.796H31.7769V116.229Z" fill="#37A351"/>
<path d="M34.7904 119.686H35.3095V120.206H34.4446L33.1468 118.388H32.7143V120.206H32.1953V115.619H34.358L34.9636 116.138V117.783L34.358 118.302H33.839L34.7904 119.686ZM34.2714 117.869L34.5307 117.61V116.398L34.2714 116.138H32.8009V117.783H34.2714V117.869Z" fill="#37A351"/>
</svg>
