<svg width="90" height="117" viewBox="0 0 90 117" fill="none" xmlns="http://www.w3.org/2000/svg">
<path d="M59.2355 73.8364C59.2355 74.7536 59.0063 76.1294 59.3502 77.2759C59.4649 77.7345 60.6119 78.1931 61.2998 78.1931C66.6885 78.3078 72.0763 78.1931 77.5796 78.1931C80.3312 78.1931 83.1987 78.1931 85.9504 78.0785C87.3262 78.0785 87.8986 78.5371 87.8986 80.0275C87.7839 81.518 87.7839 83.1231 87.8986 84.6136C87.8986 85.9894 87.3262 86.5626 85.9504 86.5626C76.3196 86.5626 66.8033 86.448 57.1725 86.448C45.478 86.448 33.8975 86.5626 22.2029 86.5626C15.4384 86.5626 8.67383 86.448 2.02399 86.5626C0.762811 86.5626 0.190444 86.104 0.0757915 84.9575C-0.038861 83.1231 -0.0401486 81.2887 0.189156 79.4543C0.189156 78.9957 0.993067 78.4224 1.56633 78.1931C2.25424 77.9638 3.05614 78.0785 3.74406 78.1931C4.77593 78.3078 5.34925 77.8492 5.23459 76.7027C5.11994 75.4415 5.80814 75.0976 6.95466 75.0976C10.1649 75.0976 13.3748 75.0976 16.5851 75.0976C17.8463 75.0976 18.4198 75.5562 18.3051 76.8173C18.1905 77.9638 18.7638 78.3078 19.7957 78.1931C21.0569 78.0785 22.4323 78.1931 23.6935 78.1931C24.6107 78.1931 25.0693 77.8492 25.0693 76.932V76.8173C25.2986 72.2313 25.2985 72.2313 20.7124 72.2313C17.9607 72.2313 15.5538 71.5434 14.2926 68.9064C12.4581 65.0083 14.7505 59.9637 19.3366 59.9637C31.7191 60.193 43.9867 59.9637 56.3692 60.0783C57.745 60.0783 58.6625 59.7344 59.5798 58.5879C64.7391 52.6261 73.7966 53.314 78.1534 60.0783C78.3827 60.5369 78.6122 61.2249 78.3829 61.5688C78.1536 61.9128 77.4657 62.1421 76.8924 62.1421C74.5993 62.2567 72.3066 62.2567 70.0135 62.1421C68.6377 62.1421 68.064 62.6007 68.1787 64.0911C68.2934 65.4669 68.2934 66.8427 68.1787 68.2185C68.1787 69.365 68.6374 69.709 69.6692 69.709C71.9623 69.709 74.3698 69.709 76.6629 69.709C77.2361 69.709 78.039 70.0529 78.3829 70.3969C78.6122 70.6262 78.1531 71.5434 77.8091 72.002C74.8281 76.7027 70.4717 78.0785 65.3124 77.0466C63.2486 76.4734 61.2992 74.9829 59.2355 73.8364ZM42.0376 72.1167C38.4834 72.1167 34.8152 72.1167 31.2609 72.1167C27.3627 72.1167 27.4778 72.1167 27.3631 76.0148C27.3631 77.7345 27.821 78.1931 29.4261 78.1931C37.5664 78.0785 45.592 78.1931 53.7324 78.1931C56.5987 78.1931 56.5987 78.1931 56.5987 75.3269C56.5987 74.8683 56.5987 74.295 56.5987 73.8364C56.828 72.5752 56.3692 72.1167 54.9934 72.1167C50.7512 72.1167 46.3944 72.1167 42.0376 72.1167ZM19.5662 67.9892C20.8273 67.9892 22.0891 66.7281 21.6305 65.6962C21.2866 64.8937 20.254 63.8618 19.4514 63.7472C18.3049 63.6325 17.3871 64.779 17.5018 66.0402C17.6164 67.3013 18.4196 67.9892 19.5662 67.9892Z" fill="#E0E0E0"/>
<path d="M43.9725 87.8242C56.011 87.8242 68.0497 87.8242 80.0881 87.8242C81.8079 87.8242 82.3806 88.3975 82.3806 90.1172C82.3806 98.6014 82.3807 106.971 82.4953 115.455C82.4953 116.487 82.0368 116.716 81.1196 116.716C77.5654 116.716 74.0105 116.716 70.4563 116.716C69.3098 116.716 68.8524 116.143 68.8524 114.996C68.9671 110.984 68.9659 106.971 69.0806 102.958C69.0806 101.582 68.7375 100.78 67.1324 100.894C65.0687 101.009 63.0045 100.894 60.9408 100.894C59.6796 100.894 59.2207 101.238 59.2207 102.614C59.2207 106.627 59.1059 110.64 59.1059 114.538C59.1059 116.143 58.648 116.716 56.9282 116.716C40.4184 116.716 23.9078 116.716 7.39794 116.716C5.21956 116.716 5.10547 116.601 5.10547 113.85C5.10547 111.672 5.21967 111.557 7.51271 111.557C9.34713 111.557 11.1827 111.672 13.0172 111.442C13.4758 111.442 14.2782 110.754 14.2782 110.41C14.3928 107.773 14.2783 105.022 14.3929 102.385C14.3929 101.353 13.9343 101.009 12.9024 101.009C10.9533 101.009 8.88936 101.009 6.94029 101.009C5.67912 101.009 5.10547 100.55 5.10547 99.1746C5.22012 96.1937 5.22023 93.0981 5.22023 90.1172C5.22023 88.1682 5.44909 87.9389 7.62747 87.9389C19.6659 87.8242 31.8195 87.8242 43.9725 87.8242ZM53.7176 111.442C53.7176 108.232 53.7176 105.251 53.7176 102.27C53.7176 101.124 53.259 100.78 52.2271 100.78C50.278 100.78 48.2141 100.894 46.265 100.894C40.5324 100.894 34.8 100.894 29.182 100.894C27.8062 100.894 27.3486 101.353 27.3486 102.729C27.4633 105.022 27.4633 107.429 27.3486 109.722C27.234 111.213 27.8063 111.557 29.2968 111.557C34.5708 111.442 39.9596 111.557 45.2335 111.557C47.8705 111.442 50.6221 111.442 53.7176 111.442ZM16.4559 111.328C19.4368 111.328 22.0736 111.328 24.8252 111.328C24.8252 108.117 24.8252 104.907 24.8252 101.812C24.8252 101.468 24.1377 100.894 23.7937 100.894C21.73 100.78 19.6658 100.78 17.6021 100.894C17.2582 100.894 16.5706 101.697 16.5706 102.156C16.456 105.136 16.4559 108.232 16.4559 111.328Z" fill="#E0E0E0"/>
<path d="M62.6921 26.8234C59.0233 26.8234 55.0101 26.3648 50.6535 24.989L43.6602 23.1546V0.683105L51.1125 3.20541C55.0106 5.03981 62.3482 7.44747 65.673 6.07167C66.2463 5.84237 66.9332 5.49842 67.6211 5.26912C73.6975 2.63216 81.2654 -0.578053 86.0806 1.48565L89.1749 2.86145L86.4235 4.92516C84.3599 6.53026 81.2643 9.39652 80.5764 11.4602C83.9012 13.5239 88.2583 16.8488 88.2583 19.8297V22.352L85.8511 21.7788C85.7365 21.7788 83.0992 21.2055 79.7745 23.0399C79.3159 23.1546 72.6664 26.8234 62.6921 26.8234ZM47.5578 20.1737L51.6863 21.3202C66.4759 25.7915 77.5955 19.6004 77.7102 19.6004C79.4299 18.6832 81.1501 18.11 82.5259 17.9953C81.1501 16.8488 79.3163 15.473 77.3673 14.3265L76.4492 13.7532V12.6067C76.3346 9.96978 78.2846 7.10352 80.3483 5.03981C76.7942 5.72771 72.2071 7.67677 69.1116 8.93793C68.4237 9.28188 67.7367 9.51118 67.1635 9.74048C61.3165 12.2628 51.1124 7.67677 49.5073 6.87422L47.6725 6.30097V20.1737H47.5578Z" fill="#37A351"/>
<path d="M45.6098 62.8284C44.4632 62.8284 43.6602 61.9112 43.6602 60.8794V1.94906C43.6602 0.802554 44.5779 0 45.6098 0C46.6417 0 47.558 0.917204 47.558 1.94906V60.8794C47.558 61.9112 46.6417 62.8284 45.6098 62.8284Z" fill="#E0E0E0"/>
<path d="M45.6098 62.8284C44.4632 62.8284 43.6602 61.9112 43.6602 60.8794V1.94906C43.6602 0.802554 44.5779 0 45.6098 0C46.6417 0 47.558 0.917204 47.558 1.94906V60.8794C47.558 61.9112 46.6417 62.8284 45.6098 62.8284Z" fill="#37A351"/>
</svg>
