<svg width="167" height="103" viewBox="0 0 167 103" fill="none" xmlns="http://www.w3.org/2000/svg">
<path d="M75.6087 86.3418H0.976562V102.452H75.6087V86.3418Z" fill="#E0E0E0"/>
<path d="M52.0953 66.5799H47.9433C47.5657 66.5799 47.1875 66.2023 47.1875 65.8247V29.5779C47.1875 29.2003 47.5657 28.8228 47.9433 28.8228H52.0953C52.4728 28.8228 52.851 29.2003 52.851 29.5779V65.8247C52.851 66.3281 52.4728 66.5799 52.0953 66.5799Z" fill="#E0E0E0"/>
<path d="M58.4829 37.5127H22.2348C21.8573 37.5127 21.4805 37.1351 21.4805 36.7576V32.6043C21.4805 32.2267 21.8573 31.8491 22.2348 31.8491H58.4829C58.8605 31.8491 59.2388 32.2267 59.2388 32.6043V36.7576C59.2388 37.1351 58.8605 37.5127 58.4829 37.5127Z" fill="#E0E0E0"/>
<path d="M24.375 29.5823V42.4199H27.2685V29.5823H24.375Z" fill="#37A351"/>
<path d="M25.166 40.2508V53.0884H26.5506V40.2508H25.166Z" fill="#37A351"/>
<path d="M57.3605 75.1341H23.5051C20.8622 75.1341 18.7227 72.9946 18.7227 70.3516V68.4637C18.7227 65.8207 20.8622 63.6812 23.5051 63.6812H57.3605C60.0034 63.6812 62.143 65.8207 62.143 68.4637V70.3516C62.0171 72.9946 60.0034 75.1341 57.3605 75.1341Z" fill="#37A351"/>
<path d="M47.5406 7.55141C47.5406 11.7047 39.99 21.5216 39.99 21.5216C39.99 21.5216 32.4395 11.8306 32.4395 7.55141C32.4395 3.39812 35.837 0 39.99 0C44.143 0 47.5406 3.39812 47.5406 7.55141Z" fill="#37A351"/>
<path d="M36.709 13.09V4.02832H38.2192L42.2461 11.8314V4.02832H43.2539V13.09H41.7437L37.7153 5.28689V13.09H36.709Z" fill="#E0E0E0"/>
<path d="M22.3652 91.3623H23.8753L25.0074 94.5087C25.1333 94.8863 25.2595 95.3897 25.3853 95.8932C25.5111 95.3897 25.6374 95.0122 25.7632 94.5087L26.8953 91.3623H28.4054V98.1586H27.1473V95.2639C27.1473 94.6346 27.2732 93.6277 27.2732 92.9985L26.7694 94.6346L25.7632 97.5293H25.0074L24.0012 94.6346L23.4974 92.9985C23.6232 93.6277 23.6233 94.6346 23.6233 95.2639V98.1586H22.3652V91.3623Z" fill="#37A351"/>
<path d="M31.4107 94.636L29.6488 91.3638H31.1604L31.7886 92.7482C31.9145 93.1258 32.0408 93.3775 32.2925 93.8809C32.4183 93.5033 32.5431 93.1258 32.7948 92.7482L33.4246 91.3638H34.8086L33.0467 94.7619L34.9346 98.2859H33.4246L32.6703 96.7756C32.5445 96.398 32.2923 96.0205 32.1665 95.6429C32.0407 96.0205 31.7885 96.398 31.6627 96.7756L30.9084 98.2859H29.3984L31.4107 94.636Z" fill="#37A351"/>
<path d="M35.4395 97.4158L36.0681 96.5348C36.4458 96.9124 36.9493 97.2899 37.5789 97.2899C38.3343 97.2899 38.8392 96.7865 38.8392 96.0313C38.8392 95.2762 38.3344 94.7728 37.7049 94.7728C37.3272 94.7728 37.0759 94.8986 36.6982 95.1503L36.0681 94.7728L36.1941 91.5005H39.8458V92.6332H37.3283L37.2023 94.1435C37.4541 94.0176 37.7053 93.8918 38.083 93.8918C39.2161 93.8918 40.2239 94.5211 40.2239 96.0313C40.2239 97.5416 39.09 98.4226 37.8309 98.4226C36.5719 98.2968 35.9431 97.9192 35.4395 97.4158Z" fill="#37A351"/>
<path d="M40.9941 94.7652C40.9941 92.3739 41.8755 91.2412 43.2594 91.2412C44.6433 91.2412 45.5231 92.3739 45.5231 94.7652C45.5231 97.1565 44.6433 98.2892 43.2594 98.2892C42.0013 98.2892 40.9941 97.0306 40.9941 94.7652ZM44.3912 94.7652C44.3912 92.8773 43.8885 92.2481 43.3853 92.2481C42.7563 92.2481 42.3778 92.7515 42.3778 94.7652C42.3778 96.6531 42.8821 97.2824 43.3853 97.2824C43.8885 97.2824 44.3912 96.6531 44.3912 94.7652Z" fill="#37A351"/>
<path d="M50.3253 92.7519C50.0736 92.5001 49.6966 92.2484 49.3191 92.2484C48.564 92.2484 47.9348 92.8777 47.809 94.5139C48.1865 94.0104 48.8155 93.7587 49.1931 93.7587C50.3257 93.7587 51.2071 94.388 51.2071 95.8983C51.2071 97.2827 50.1997 98.1637 49.0671 98.1637C47.8086 98.1637 46.5508 97.1569 46.5508 94.7656C46.5508 92.2484 47.8088 91.1157 49.1931 91.1157C50.074 91.1157 50.5777 91.4933 51.0811 91.8709L50.3253 92.7519ZM49.9489 96.0242C49.9489 95.269 49.5704 94.8914 48.9411 94.8914C48.5636 94.8914 48.1865 95.1432 47.809 95.6466C47.9348 96.9052 48.4378 97.4086 48.9411 97.4086C49.4445 97.2827 49.9489 96.9052 49.9489 96.0242Z" fill="#37A351"/>
<path d="M166.093 86.0825H92.4668V101.94H166.093V86.0825Z" fill="#E0E0E0"/>
<path d="M166.093 86.4707H92.4668V102.329H166.093V86.4707Z" fill="#E0E0E0"/>
<path d="M156.409 47.0634H104.306C103.928 47.0634 103.676 46.8117 103.676 46.4341V44.0429C103.676 43.6653 103.928 43.4136 104.306 43.4136H156.409C156.786 43.4136 157.038 43.6653 157.038 44.0429V46.4341C157.038 46.8117 156.66 47.0634 156.409 47.0634Z" fill="#E0E0E0"/>
<path d="M150.382 77.1403H109.603C108.219 77.1403 107.211 76.0076 107.211 74.749V47.3122C107.211 45.9277 108.344 44.9209 109.603 44.9209H150.382C151.766 44.9209 152.772 46.0536 152.772 47.3122V74.749C152.772 76.1335 151.64 77.1403 150.382 77.1403Z" fill="#37A351"/>
<path d="M149.612 65.9426H112.357C110.973 65.9426 109.965 64.8098 109.965 63.5513V36.1144C109.965 34.73 111.098 33.7231 112.357 33.7231H149.612C150.996 33.7231 152.004 34.8559 152.004 36.1144V63.5513C152.004 64.9357 150.996 65.9426 149.612 65.9426Z" fill="#E0E0E0"/>
<path d="M138.531 11.699C138.531 15.8523 131.106 25.4174 131.106 25.4174C131.106 25.4174 123.682 15.8523 123.682 11.699C123.682 7.5457 127.079 4.27344 131.106 4.27344C135.134 4.27344 138.531 7.5457 138.531 11.699Z" fill="#37A351"/>
<path d="M127.723 17.6092V8.67334H129.233L133.261 16.3506V8.67334H134.268V17.6092H132.757L128.731 9.93191V17.6092H127.723Z" fill="#E0E0E0"/>
<path d="M118.131 91.1094H119.641L120.775 94.2558C120.9 94.6334 121.025 95.1368 121.151 95.5144C121.277 95.1368 121.403 94.6334 121.529 94.2558L122.661 91.1094H124.171V97.9056H122.913V95.1368C122.913 94.5075 123.039 93.5007 123.039 92.8714L122.535 94.5075L121.529 97.4022H120.775L119.767 94.5075L119.265 92.8714C119.39 93.5007 119.389 94.5075 119.389 95.1368V97.9056H118.131V91.1094Z" fill="#37A351"/>
<path d="M125.941 91.1108H130.095V92.2436H127.326V94.0055H129.717V95.1383H127.326V97.9071H125.941V91.1108Z" fill="#37A351"/>
<path d="M136.264 94.3868C136.264 91.9955 137.143 90.8628 138.527 90.8628C139.911 90.8628 140.793 91.9955 140.793 94.3868C140.793 96.6523 139.911 97.9108 138.527 97.9108C137.143 97.9108 136.264 96.7781 136.264 94.3868ZM139.535 94.3868C139.535 92.499 139.156 91.9955 138.527 91.9955C137.898 91.9955 137.521 92.499 137.521 94.3868C137.521 96.2747 137.898 96.904 138.527 96.904C139.156 96.904 139.535 96.2747 139.535 94.3868Z" fill="#37A351"/>
<path d="M130.861 97.1602L131.491 96.2792C131.869 96.6568 132.372 96.9085 133.002 96.9085C133.757 96.9085 134.26 96.4051 134.26 95.65C134.26 94.8948 133.757 94.3914 133.128 94.3914C132.75 94.3914 132.497 94.5172 132.12 94.769L131.491 94.3914L131.617 91.1191H135.266V92.2518H132.75L132.624 93.6363C132.875 93.5104 133.128 93.3846 133.38 93.3846C134.512 93.3846 135.518 94.0138 135.518 95.5241C135.518 97.0344 134.386 97.9154 133.128 97.9154C132.121 98.0412 131.365 97.6637 130.861 97.1602Z" fill="#37A351"/>
</svg>
