<svg width="313" height="87" viewBox="0 0 313 87" fill="none" xmlns="http://www.w3.org/2000/svg">
<path d="M186.921 75.0005H167.095C157.818 75.0005 150.336 67.663 150.336 58.5644V47.5581C150.336 44.0361 147.419 41.2479 143.902 41.2479H115.996V40.0005H144.202C148.316 40.0005 151.683 43.3024 151.683 47.338V58.5644C151.683 66.9292 158.641 73.7531 167.17 73.7531H186.996V75.0005H186.921Z" fill="#37A351"/>
<path d="M117.998 34L106.998 40.5L117.998 47V34Z" fill="#37A351"/>
<path d="M41.2914 41.5129H1.13445C0.453822 41.5129 0 41.0612 0 40.3836C0 39.7061 0.453822 39.2544 1.13445 39.2544H41.2914C41.972 39.2544 42.4258 39.7061 42.4258 40.3836C42.4258 41.0612 41.972 41.5129 41.2914 41.5129Z" fill="#E0E0E0"/>
<path d="M35.3966 40.3794H7.03711V55.0594H35.3966V40.3794Z" fill="#E0E0E0"/>
<path d="M36.5173 56.1928H5.88867V39.2544H36.5173V56.1928ZM8.15759 53.9344H34.362V41.5129H8.15759V53.9344Z" fill="#E0E0E0"/>
<path d="M35.3966 55.0688H7.03711V68.7325H35.3966V55.0688Z" fill="#E0E0E0"/>
<path d="M36.5173 69.8645H5.88867V53.9424H36.5173V69.8645ZM8.15759 67.606H34.362V56.2008H8.15759V67.606Z" fill="#E0E0E0"/>
<path d="M25.6255 50.3239H17.7985C17.1179 50.3239 16.6641 49.8722 16.6641 49.1947C16.6641 48.5171 17.1179 48.0654 17.7985 48.0654H25.6255C26.3062 48.0654 26.76 48.5171 26.76 49.1947C26.76 49.8722 26.1927 50.3239 25.6255 50.3239Z" fill="#37A351"/>
<path d="M25.6255 64.8927H17.7985C17.1179 64.8927 16.6641 64.441 16.6641 63.7635C16.6641 63.086 17.1179 62.6343 17.7985 62.6343H25.6255C26.3062 62.6343 26.76 63.086 26.76 63.7635C26.76 64.441 26.1927 64.8927 25.6255 64.8927Z" fill="#37A351"/>
<path d="M78.4993 62.9778C77.8187 62.9778 77.3652 62.5261 77.3652 61.8486V57.8963C77.3652 57.2188 77.8187 56.7671 78.4993 56.7671C79.1799 56.7671 79.6337 57.2188 79.6337 57.8963V61.8486C79.6337 62.5261 79.1799 62.9778 78.4993 62.9778Z" fill="#E0E0E0"/>
<path d="M62.8551 62.9778C62.1745 62.9778 61.7207 62.5261 61.7207 61.8486V57.8963C61.7207 57.2188 62.1745 56.7671 62.8551 56.7671C63.5357 56.7671 63.9892 57.2188 63.9892 57.8963V61.8486C63.9892 62.5261 63.5357 62.9778 62.8551 62.9778Z" fill="#E0E0E0"/>
<path d="M94.3931 40.3885H47.543V28.6445H94.3931V40.3885ZM49.8115 38.13H92.1242V31.0159H49.8115V38.13Z" fill="#E0E0E0"/>
<path d="M94.3931 50.1043H47.543V38.3604H94.3931V50.1043ZM49.8115 47.8459H92.1242V40.6188H49.8115V47.8459Z" fill="white"/>
<path d="M94.3931 71.7855H47.543V38.3604H94.3931V71.7855ZM49.8115 69.527H92.1242V40.6188H49.8115V69.527Z" fill="#E0E0E0"/>
<path d="M75.7591 71.7848H65.8906V47.8452H75.7591V71.7848ZM68.159 69.5264H73.4903V50.1037H68.159V69.5264Z" fill="#E0E0E0"/>
<path d="M72.72 35.6462H68.7497C68.0691 35.6462 67.6152 35.1945 67.6152 34.5169C67.6152 33.8394 68.0691 33.3877 68.7497 33.3877H72.72C73.4007 33.3877 73.8541 33.8394 73.8541 34.5169C73.8541 35.1945 73.2872 35.6462 72.72 35.6462Z" fill="#E0E0E0"/>
<path d="M72.72 44.4562H68.7497C68.0691 44.4562 67.6152 44.0045 67.6152 43.327C67.6152 42.6494 68.0691 42.1978 68.7497 42.1978H72.72C73.4007 42.1978 73.8541 42.6494 73.8541 43.327C73.8541 44.0045 73.2872 44.4562 72.72 44.4562Z" fill="#E0E0E0"/>
<path d="M211.125 84.2385H203.184C201.483 84.2385 200.121 82.8834 200.121 81.1895C200.121 79.4957 201.483 78.1406 203.184 78.1406H211.125C212.826 78.1406 214.188 79.4957 214.188 81.1895C214.188 82.8834 212.826 84.2385 211.125 84.2385Z" fill="#E0E0E0"/>
<path d="M214.438 86.2705H211.035C210.128 86.2705 209.334 85.48 209.334 84.5766C209.334 83.6733 210.128 82.8828 211.035 82.8828H214.438C215.346 82.8828 216.139 83.6733 216.139 84.5766C216.026 85.48 215.346 86.2705 214.438 86.2705Z" fill="#E0E0E0"/>
<path d="M303.695 84.2415H210.449C208.18 84.2415 206.365 82.4347 206.365 80.1762V55.7849C206.365 53.5265 208.18 51.7197 210.449 51.7197H303.695C305.964 51.7197 307.779 53.5265 307.779 55.7849V80.1762C307.779 82.4347 305.964 84.2415 303.695 84.2415Z" fill="#E0E0E0"/>
<path d="M309.937 84.2404H301.996C300.295 84.2404 298.934 82.8853 298.934 81.1915C298.934 79.4977 300.295 78.1426 301.996 78.1426H309.937C311.638 78.1426 313 79.4977 313 81.1915C313 82.8853 311.525 84.2404 309.937 84.2404Z" fill="#E0E0E0"/>
<path d="M302.091 85.9297H298.688C297.78 85.9297 296.986 85.1392 296.986 84.2359C296.986 83.3325 297.78 82.542 298.688 82.542H302.091C302.999 82.542 303.793 83.3325 303.793 84.2359C303.793 85.1392 302.999 85.9297 302.091 85.9297Z" fill="#E0E0E0"/>
<path d="M247.754 33.2041H234.596V76.5663H247.754V33.2041Z" fill="#37A351"/>
<path d="M272.03 22.8052H247.754V43.583H272.03V22.8052Z" fill="#E0E0E0"/>
<path d="M272.065 0.000488281H250.852V6.88879H272.065V0.000488281Z" fill="#E0E0E0"/>
<path d="M268.201 6.89307H262.643V10.9583H268.201V6.89307Z" fill="#E0E0E0"/>
<path d="M252.405 0H247.754V24.3913H252.405V0Z" fill="#E0E0E0"/>
<path d="M303.695 67.5335H210.449C208.18 67.5335 206.365 65.7267 206.365 63.4683V59.8548C206.365 57.5963 208.18 55.7896 210.449 55.7896H303.695C305.964 55.7896 307.779 57.5963 307.779 59.8548V63.4683C307.779 65.6138 305.964 67.5335 303.695 67.5335Z" fill="#37A351"/>
</svg>
