<svg width="253" height="63" viewBox="0 0 253 63" fill="none" xmlns="http://www.w3.org/2000/svg">
<path d="M227.089 29.5227H208.222C207.917 29.5227 207.688 29.2938 207.688 28.9886C207.688 28.6835 207.917 28.4546 208.222 28.4546H227.089C227.394 28.4546 227.623 28.6835 227.623 28.9886C227.623 29.2938 227.394 29.5227 227.089 29.5227Z" fill="#37A351"/>
<path d="M224.336 28.9807H210.969V35.8456H224.336V28.9807Z" fill="#37A351"/>
<path d="M224.879 36.4595H210.52V28.5269H224.879V36.4595ZM211.513 35.3916H223.81V29.5947H211.513V35.3916Z" fill="#37A351"/>
<path d="M224.336 35.9282H210.969V42.3354H224.336V35.9282Z" fill="#37A351"/>
<path d="M224.879 42.8674H210.52V35.3923H224.879V42.8674ZM211.513 41.7995H223.81V36.4602H211.513V41.7995Z" fill="#37A351"/>
<path d="M219.764 33.7132H216.097C215.792 33.7132 215.562 33.4843 215.562 33.1791C215.562 32.8739 215.792 32.645 216.097 32.645H219.764C220.069 32.645 220.298 32.8739 220.298 33.1791C220.298 33.4843 220.069 33.7132 219.764 33.7132Z" fill="#E0E0E0"/>
<path d="M219.764 40.5745H216.097C215.792 40.5745 215.562 40.3456 215.562 40.0404C215.562 39.7352 215.792 39.5063 216.097 39.5063H219.764C220.069 39.5063 220.298 39.7352 220.298 40.0404C220.298 40.3456 220.069 40.5745 219.764 40.5745Z" fill="#E0E0E0"/>
<path d="M244.593 39.6642C244.288 39.6642 244.059 39.4353 244.059 39.1301V37.299C244.059 36.9938 244.288 36.7649 244.593 36.7649C244.899 36.7649 245.128 36.9938 245.128 37.299V39.1301C245.128 39.4353 244.899 39.6642 244.593 39.6642Z" fill="#37A351"/>
<path d="M237.164 39.6642C236.858 39.6642 236.629 39.4353 236.629 39.1301V37.299C236.629 36.9938 236.858 36.7649 237.164 36.7649C237.469 36.7649 237.698 36.9938 237.698 37.299V39.1301C237.698 39.4353 237.469 39.6642 237.164 39.6642Z" fill="#37A351"/>
<path d="M252.002 28.9855H230.004V23.4937H252.002V28.9855ZM231.073 27.9939H250.933V24.6378H231.073V27.9939Z" fill="#E0E0E0"/>
<path d="M252.002 33.558H230.004V28.0662H252.002V33.558ZM231.073 32.4901H250.933V29.134H231.073V32.4901Z" fill="#E0E0E0"/>
<path d="M252.002 43.779H230.004V28.0662H252.002V43.779ZM231.073 42.7111H250.933V29.134H231.073V42.7111Z" fill="#E0E0E0"/>
<path d="M243.208 43.7796H238.625V32.4907H243.208V43.7796ZM239.694 42.7117H242.215V33.5586H239.694V42.7117Z" fill="#E0E0E0"/>
<path d="M241.833 26.7715H239.999C239.694 26.7715 239.465 26.5426 239.465 26.2375C239.465 25.9323 239.694 25.7034 239.999 25.7034H241.833C242.138 25.7034 242.367 25.9323 242.367 26.2375C242.367 26.5426 242.138 26.7715 241.833 26.7715Z" fill="#37A351"/>
<path d="M241.833 30.9678H239.999C239.694 30.9678 239.465 30.7389 239.465 30.4337C239.465 30.1286 239.694 29.8997 239.999 29.8997H241.833C242.138 29.8997 242.367 30.1286 242.367 30.4337C242.367 30.6626 242.138 30.9678 241.833 30.9678Z" fill="#37A351"/>
<path d="M85.9492 40.4447L85.9492 39.6045L82.5119 39.6045L82.5119 40.4447L85.9492 40.4447Z" fill="#37A351"/>
<path d="M85.9492 42.0399L85.9492 41.1997L82.512 41.1997L82.512 42.0399L85.9492 42.0399Z" fill="#37A351"/>
<path d="M53.411 13.7084L38.4766 2.70239L33.9878 8.77946L48.9223 19.7854L53.411 13.7084Z" fill="#37A351" stroke="#37A351" stroke-width="0.15" stroke-miterlimit="10"/>
<path d="M54.7184 14.9187L53.3047 13.8772L49.0873 19.5854L50.5009 20.627L54.7184 14.9187Z" fill="#37A351" stroke="#37A351" stroke-width="0.15" stroke-miterlimit="10"/>
<path d="M71.5872 27.7082L54.5 15.1189L50.6454 20.3362L67.7326 32.9255L71.5872 27.7082Z" fill="#37A351" stroke="#37A351" stroke-width="0.15" stroke-miterlimit="10"/>
<path d="M68.902 33.9417L54.0838 23.0343C53.4727 22.5766 53.3199 21.6613 53.7782 21.0511L55.9933 18.0763C56.4516 17.4661 57.3682 17.3136 57.9792 17.7712L72.7975 28.6786C73.4086 29.1363 73.5613 30.0516 73.103 30.6618L70.8879 33.6366C70.4296 34.2468 69.5131 34.3993 68.902 33.9417Z" fill="#37A351" stroke="#37A351" stroke-width="0.15" stroke-miterlimit="10"/>
<path d="M71.3555 33.8838L71.3555 30.0701L67.0782 30.0701L67.0782 33.8838L71.3555 33.8838Z" fill="#37A351" stroke="#37A351" stroke-width="0.2" stroke-miterlimit="10"/>
<path d="M71.8945 37.4766L71.8945 33.6628L66.6241 33.6628L66.6241 37.4766L71.8945 37.4766Z" fill="#37A351"/>
<path d="M85.9453 38.6672L85.9453 37.5991L61.8084 37.5991L61.8084 38.6672L85.9453 38.6672Z" fill="#37A351"/>
<path d="M65.2656 40.4525L65.2656 39.6123L61.8283 39.6123L61.8283 40.4525L65.2656 40.4525Z" fill="#37A351"/>
<path d="M65.2656 42.0536L65.2656 41.2134L61.8284 41.2134L61.8284 42.0536L65.2656 42.0536Z" fill="#37A351"/>
<path d="M91.1367 45.4885L91.1367 42.9707L56.077 42.9707L56.077 45.4885L91.1367 45.4885Z" fill="#37A351"/>
<path d="M69.1973 32.4181C70.3785 32.4181 71.336 31.462 71.336 30.2825C71.336 29.1029 70.3785 28.1467 69.1973 28.1467C68.0161 28.1467 67.0586 29.1029 67.0586 30.2825C67.0586 31.462 68.0161 32.4181 69.1973 32.4181Z" fill="#37A351" stroke="#37A351" stroke-width="0.15" stroke-miterlimit="10"/>
<path d="M30.8503 38.5968C30.8503 34.1728 27.1077 30.6641 22.6775 31.0455C18.9348 31.3506 15.9559 34.3254 15.6503 38.0629C15.6503 38.1392 15.6503 38.1391 15.6503 38.2154C15.4976 40.8851 14.7337 43.4022 13.588 45.7667C13.0533 46.9109 12.7477 48.1313 12.8241 49.5043C13.0533 53.3943 16.185 56.5216 20.0805 56.6742C24.4343 56.8267 28.0242 53.3943 28.0242 49.0466C28.0242 48.9703 28.0242 48.9703 28.0242 48.8941C27.9478 46.6058 28.6352 44.3938 29.781 42.4869C30.4684 41.3427 30.8503 40.0461 30.8503 38.5968Z" fill="#37A351" stroke="#37A351" stroke-width="0.1" stroke-miterlimit="10"/>
<path d="M28.6558 54.4578H2.60938V63.0007H28.6558V54.4578Z" fill="#37A351"/>
<path d="M2.22656 50.1855H17.7324C17.7324 45.0751 13.5313 43.0156 8.49004 43.0156C4.97641 43.0156 2.22656 43.7784 2.22656 47.2108V50.1855Z" fill="#37A351" stroke="#37A351" stroke-width="0.1" stroke-miterlimit="10"/>
<path d="M30.0253 50.2637H1V54.4588H30.0253V50.2637Z" fill="#37A351" stroke="#37A351" stroke-width="0.1" stroke-miterlimit="10"/>
<path d="M31.7176 4.34813C31.4121 5.03461 31.2594 5.72109 31.183 6.40758C31.0302 9.07723 30.2663 11.7469 29.1969 14.264L23.6975 26.9257C22.6281 29.4428 21.1768 31.7311 19.3436 33.7143C18.8853 34.2482 18.4271 34.8584 18.1979 35.4687C16.823 38.6722 18.2742 42.3335 21.4823 43.7827C24.6904 45.1557 28.3567 43.7064 29.808 40.5028C30.1135 39.8164 30.2664 39.1299 30.3428 38.4434C30.4955 35.7737 31.2593 33.1041 32.3287 30.587L37.8282 17.9252C38.8976 15.4081 40.3489 13.1198 42.1821 11.1367C42.6404 10.6027 43.0987 9.99253 43.3278 9.38233C44.7027 6.17874 43.2515 2.51751 40.0434 1.06827C36.8353 -0.304698 33.0925 1.14454 31.7176 4.34813Z" fill="#37A351" stroke="#37A351" stroke-width="0.1" stroke-miterlimit="10"/>
<path d="M25.1242 37.1427C24.0548 36.0748 22.3744 36.0748 21.305 37.1427L13.5141 44.9228H6.18126C4.72999 44.9228 3.50781 46.1433 3.50781 47.5925C3.50781 49.0418 4.72999 50.2622 6.18126 50.2622H15.7291L25.0478 40.9565C26.1936 39.8886 26.1935 38.2106 25.1242 37.1427Z" fill="#37A351" stroke="#37A351" stroke-width="0.1" stroke-miterlimit="10"/>
<path d="M37.437 11.5912C40.0946 11.5912 42.2491 9.43977 42.2491 6.78584C42.2491 4.13191 40.0946 1.98047 37.437 1.98047C34.7794 1.98047 32.625 4.13191 32.625 6.78584C32.625 9.43977 34.7794 11.5912 37.437 11.5912Z" fill="#37A351" stroke="#37A351" stroke-width="0.2" stroke-miterlimit="10"/>
<path d="M120.828 9.15576H106.621V41.6493H120.828V9.15576Z" fill="#E0E0E0"/>
<path d="M106.621 41.7212L108.531 42.5604C108.607 42.5604 108.683 42.6367 108.683 42.6367H121.897L120.828 41.7975H106.621V41.7212Z" fill="#E0E0E0"/>
<path d="M126.261 45.0794L124.734 46.071C124.734 46.071 123.741 44.8506 123.512 44.3929C123.435 44.2404 123.359 44.0878 123.359 43.9353C122.977 42.7911 122.824 41.647 122.824 40.5029V11.6707H124.352V39.2825C124.352 40.3503 124.505 41.4182 124.734 42.486C124.81 42.7911 124.887 43.02 124.963 43.1725C125.116 43.7065 126.261 45.0794 126.261 45.0794Z" fill="#37A351"/>
<path d="M125.039 29.1385C125.883 29.1385 126.567 28.4553 126.567 27.6126C126.567 26.7698 125.883 26.0867 125.039 26.0867C124.196 26.0867 123.512 26.7698 123.512 27.6126C123.512 28.4553 124.196 29.1385 125.039 29.1385Z" fill="#37A351" stroke="#37A351" stroke-width="0.1" stroke-miterlimit="10"/>
<path d="M125.039 32.5712C125.883 32.5712 126.567 31.888 126.567 31.0452C126.567 30.2025 125.883 29.5193 125.039 29.5193C124.196 29.5193 123.512 30.2025 123.512 31.0452C123.512 31.888 124.196 32.5712 125.039 32.5712Z" fill="#37A351" stroke="#37A351" stroke-width="0.1" stroke-miterlimit="10"/>
<path d="M125.039 36.0799C125.883 36.0799 126.567 35.3968 126.567 34.554C126.567 33.7112 125.883 33.0281 125.039 33.0281C124.196 33.0281 123.512 33.7112 123.512 34.554C123.512 35.3968 124.196 36.0799 125.039 36.0799Z" fill="#37A351" stroke="#37A351" stroke-width="0.1" stroke-miterlimit="10"/>
<path d="M125.039 39.5145C125.883 39.5145 126.567 38.8313 126.567 37.9886C126.567 37.1458 125.883 36.4626 125.039 36.4626C124.196 36.4626 123.512 37.1458 123.512 37.9886C123.512 38.8313 124.196 39.5145 125.039 39.5145Z" fill="#37A351" stroke="#37A351" stroke-width="0.1" stroke-miterlimit="10"/>
<path d="M125.956 25.7003C127.306 25.7003 128.4 24.6075 128.4 23.2594C128.4 21.9114 127.306 20.8186 125.956 20.8186C124.606 20.8186 123.512 21.9114 123.512 23.2594C123.512 24.6075 124.606 25.7003 125.956 25.7003Z" fill="#37A351" stroke="#37A351" stroke-width="0.1" stroke-miterlimit="10"/>
<path d="M125.952 24.3333C126.543 24.3333 127.022 23.8551 127.022 23.2652C127.022 22.6752 126.543 22.197 125.952 22.197C125.362 22.197 124.883 22.6752 124.883 23.2652C124.883 23.8551 125.362 24.3333 125.952 24.3333Z" fill="#37A351"/>
<path d="M162.84 10.9814H148.785V14.4911H162.84V10.9814Z" fill="#37A351"/>
<path d="M162.376 14.5649H149.238V15.7094H162.376V14.5649Z" fill="#37A351" stroke="#37A351" stroke-width="0.1" stroke-miterlimit="10"/>
<path d="M162.376 14.5649H149.238V15.7094H162.376V14.5649Z" fill="#37A351" stroke="#37A351" stroke-width="0.1" stroke-miterlimit="10"/>
<path d="M162.84 15.7119H148.785V16.7038H162.84V15.7119Z" fill="#37A351" stroke="#37A351" stroke-width="0.1" stroke-miterlimit="10"/>
<path d="M162.84 15.7119H148.785V16.7038H162.84V15.7119Z" fill="#37A351" stroke="#37A351" stroke-width="0.1" stroke-miterlimit="10"/>
<path d="M161.388 19.8325L160.472 20.5952H151.077L150.16 19.7562V16.6289H161.388V19.8325Z" fill="#37A351" stroke="#37A351" stroke-width="0.1" stroke-miterlimit="10"/>
<path d="M161.388 19.8325L160.472 20.5952H151.077L150.16 19.7562V16.6289H161.388V19.8325Z" fill="#37A351" stroke="#37A351" stroke-width="0.1" stroke-miterlimit="10"/>
<path d="M161.388 26.5436L159.631 27.6115H151.993L150.16 26.4673V22.2722H161.388V26.5436Z" fill="#37A351" stroke="#37A351" stroke-width="0.1" stroke-miterlimit="10"/>
<path d="M161.388 26.5436L159.631 27.6115H151.993L150.16 26.4673V22.2722H161.388V26.5436Z" fill="#37A351" stroke="#37A351" stroke-width="0.1" stroke-miterlimit="10"/>
<path d="M160.104 20.5911H151.473V22.2696H160.104V20.5911Z" fill="#37A351" stroke="#37A351" stroke-width="0.1" stroke-miterlimit="10"/>
<path d="M160.104 20.5911H151.473V22.2696H160.104V20.5911Z" fill="#37A351" stroke="#37A351" stroke-width="0.1" stroke-miterlimit="10"/>
<path d="M171.014 45.3075V40.197H157.647V41.6463H153.904V40.197H139.926V45.3075H171.014Z" fill="#E0E0E0"/>
<path d="M154.367 33.0993V34.0148L157.193 32.9467V32.1074L154.367 33.0993Z" fill="#37A351"/>
<path d="M157.193 29.9739V27.6086H154.367V30.9657L157.193 29.9739Z" fill="#37A351"/>
<path d="M154.367 31.6585V32.4978L157.193 31.4296V30.5903L154.367 31.6585Z" fill="#37A351"/>
<path d="M157.193 34.5498V33.6343L154.367 34.6262V35.618L157.193 34.5498Z" fill="#37A351"/>
<path d="M195.535 45.0047L203.479 40.4281L195.535 35.8516V45.0047Z" fill="#E0E0E0"/>
<path d="M177.084 39.1809C176.929 39.1809 176.773 39.1809 176.617 39.1809V41.6692C176.773 41.6692 176.929 41.6692 177.084 41.6692H197.168V39.1809H177.084Z" fill="#E0E0E0"/>
<path d="M91.9714 0.0762629C91.9714 -1.28009e-05 91.9714 0 91.895 0H91.8187H77.917H77.8407L76.924 0.61022V0.686483H76.8477V20.8996H90.2146H90.7493H90.9785C90.9785 20.8996 90.9784 20.8996 91.0548 20.8996L92.0478 20.1368L92.1242 20.0605V0.0762629C91.9714 0.152539 91.9714 0.0762629 91.9714 0.0762629ZM77.3059 0.686483L77.917 0.30511H91.2839L90.5965 0.686483H77.3059ZM91.6659 19.8317L90.8257 20.4419H90.6729V0.915301L91.5895 0.381373L91.6659 19.8317Z" fill="#E0E0E0"/>
</svg>
